<?xml version="1.0" encoding="utf-8"?>
<!-- Generator: Adobe Illustrator 21.0.0, SVG Export Plug-In . SVG Version: 6.00 Build 0)  -->
<svg version="1.1" xmlns="http://www.w3.org/2000/svg" xmlns:xlink="http://www.w3.org/1999/xlink" x="0px" y="0px"
	 viewBox="0 0 539.5 181.9" style="enable-background:new 0 0 539.5 181.9;" xml:space="preserve">
<style type="text/css">
	.st0{fill:#FFFFFF;}
</style>
<g id="Vector_Smart_Object_xA0_Image_1_">
	<path class="st0" d="M205.6,2.1c2.8,1.6,5.6,3.3,8.5,4.9c9.7,5.4,19.4,10.8,29.2,16.3c0.2,0.1,0.5,0.3,0.9,0.5
		c-1,0.4-1.9,0.8-2.7,1.1c-11.8,4.5-23.5,8.9-35.3,13.4c-0.8,0.3-1.4,0.2-2.1-0.2c-6-3.4-12.1-6.7-18.1-10.1c-2.2-1.2-4.3,0-4.3,2.4
		c0.2,7.7,0.4,15.4,0.6,23.1c0.1,3.4,0.1,6.7,0.1,10.1c0,0.3-0.1,0.6-0.2,0.9c-0.7-0.2-1.3-0.3-1.9-0.6c-0.3-0.1-0.5-0.6-0.5-0.9
		c0.2-5,0.4-9.9,0.6-14.9c0.2-5,0.2-9.9,0.4-14.9c0-1.4,0.1-2.8,0.2-4.2c0-0.4,0.4-0.9,0.7-1.1c0.6-0.4,1.3-0.7,2.2-1.1
		c-5.2-2.9-10.3-5.8-15.6-8.7c1.3-0.6,2.5-1.1,3.6-1.6c10.5-4.6,21-9.1,31.5-13.7c0.5-0.2,0.9-0.5,1.3-0.7
		C205,2.1,205.3,2.1,205.6,2.1z"/>
	<path class="st0" d="M193.6,87.2c-2.5,1.2-4.8,2.3-7.1,3.3c-0.1,0-0.1-0.1-0.2-0.1c5-6.9,9.9-13.7,14.9-20.6c0.1,0,0.2,0,0.3,0.1
		c0,8.5,0,17,0,25.4c-1.2-2.3-2.4-4.7-3.8-7.4c-2.6,5-4.2,10.1-4.9,15.5c2.2,0.4,4.3,0.6,6.3,1.1c8.6,1.9,14.1,7.4,17,15.5
		c1.4,4,2,8.3,3,12.4c0.3,1.3,0.4,2.6,0.6,4.1c1.5-0.6,3-1.1,4.3-1.9c9-4.9,16.5-11.5,21.6-20.5c3.5-6.1,4.7-12.7,4.1-19.6
		C248.8,84,245,74.6,240,65.7c-3.2-5.8-6.8-11.5-11-16.7c-0.4-0.5-0.9-1-1.5-1.7c-0.2,1.1-0.2,1.9,0.4,2.8
		c7.2,9.8,13.3,20.3,17.2,31.9c2.1,6.3,3.2,12.8,2.5,19.4c-0.8,7-3.8,13-8.3,18.3c-2.2,2.5-4.6,4.7-7.6,6.5
		c-0.2-0.3-0.4-0.6-0.4-0.6c2.7-2.6,5.4-5,7.8-7.7c4.2-4.8,6.4-10.7,7.1-17c0.9-7.9-1-15.4-3.8-22.7C238,67.1,231.6,57,224.1,47.7
		c-1.3-1.6-2.8-2.2-4.8-2.2c-5.9-0.2-10.7,2-13.7,7.2c-0.3,0.4-0.5,0.9-0.7,1.4c-4.2-8-10.8-10-19.2-7.9c0.3-5.8,0.5-11.5,0.8-17.5
		c3.2,1.8,6.1,3.5,9.1,5.1c2.9,1.6,5.8,3.2,8.6,4.9c0.6,0.4,1.1,0.4,1.8,0.1c6.5-2.5,12.9-5,19.4-7.5c0.3-0.1,0.7-0.2,1.2-0.4
		c0.2,4.5,0.4,9,0.7,13.6c0.5,0,1,0,1.4,0c9.1,0,18.2,0,27.4,0c1,0,1.7,0.3,2.5,0.9c4,3.4,6.8,7.6,9,12.3c3,6.2,4.7,12.8,5.8,19.6
		c1.1,6.7,1.7,13.5,1.4,20.3c-0.4,10.9-4,20.6-11.1,28.9c-8.5,9.9-19.3,15.9-32,18.2c-8.6,1.6-17.2,1.4-25.5-2
		c-10-4.1-15.9-11.5-17.7-22.1c-1.8-10.7-0.1-21.1,4-31.1C192.7,88.8,193.1,88.1,193.6,87.2z M214.2,137.5c0-0.6,0-1.1,0-1.6
		c-0.3-2.7-0.6-5.4-0.9-8.1c-0.6-5.2-2.4-10-6-13.9c-3.3-3.7-7.3-6-12.4-7c0.6,11.4,2.9,21.6,14.4,27c-0.3,1.2-0.9,0.6-1.4,0.3
		c-8.4-4.1-12.5-11.2-13.5-20.2c-0.3-2.4-0.3-4.8-0.5-7.3c-0.4,0-0.8,0-1.3,0c-0.1,0.1-0.1,0.2-0.1,0.2c0,0.9-0.1,1.8-0.1,2.6
		c-0.4,4.9,0.3,9.6,2.2,14.1C198.3,132.4,204.9,136.8,214.2,137.5z"/>
	<path class="st0" d="M308.5,98.8c0,0.6,0,1.1,0,1.5c0,10.4,0,20.7,0,31.1c0,1.2,0,2.5,0.1,3.7c0.3,4,2.1,6.6,6,7.5
		c2.8,0.7,5.7,0.8,8.5,1.2c0.4,0.1,0.8,0,1.3,0c0,1,0,2,0,3.1c-15.3,0-30.6,0-46,0c0-1,0-1.9,0-2.9c2.1-0.2,4.2-0.3,6.3-0.6
		c1.1-0.1,2.1-0.4,3.1-0.7c3.7-1.2,5.5-3.5,5.8-7.4c0-0.6,0.1-1.3,0.1-1.9c0-24.4,0-48.7,0-73.1c0-2.3-0.3-4.6-0.8-6.7
		c-0.9-3.5-3-5-6.6-5c-2.5,0-5,0-7.6,0c-0.1,0-0.1-0.1-0.3-0.1c0-1,0-2,0-3.2c2.3-0.1,4.6-0.2,6.9-0.3c10.5-0.2,21-0.6,31.5-0.7
		c7.5-0.1,14.9,0.5,22.2,2.6c3.2,0.9,6.2,2.2,9,4c5.4,3.5,8.6,8.6,9.7,14.9c0.8,4.9,0.6,9.7-0.8,14.5c-2.3,8-7.6,13-15.3,15.8
		c-5.4,1.9-10.9,2.6-16.6,2.7c-5,0-10.1,0-15.1,0C309.5,98.8,309.1,98.8,308.5,98.8z M308.5,95.9c0.4,0,0.7,0.1,1,0.1
		c4,0,7.9,0,11.9,0c8.7,0,16.5-5.5,19.3-13.7c1.8-5.2,1.9-10.5,1.2-15.8c-1.3-10.2-7.5-17-17.7-18.4c-5.1-0.7-10.3-0.4-15.4-0.6
		c-0.1,0-0.2,0.1-0.3,0.2C308.5,63.6,308.5,79.7,308.5,95.9z"/>
	<path class="st0" d="M167.8,115.6c1.3,0,2.7,0,4.2,0c-1.1,10.5-2.2,20.9-3.2,31.4c-27.8,0-55.4,0-83.2,0c0-1,0-2,0-3.1
		c2,0,4,0,5.9,0c4.7,0,8.7-3.7,9-8.4c0-0.4,0-0.7,0-1.1c0-25.9,0-51.8,0-77.6c0-1.5-0.4-3.1-1.1-4.5c-1.1-2.4-3.2-3.6-5.9-3.6
		c-1.9,0-3.8,0-5.8,0c0-1.1,0-2.1,0-3.2c24.1,0,48.1,0,72.3,0c0.9,8.3,1.7,16.7,2.6,25.1c-1.3,0-2.4,0-3.6,0
		c-0.6-2.2-1.1-4.5-1.8-6.7c-0.5-1.6-1.1-3.2-1.8-4.7c-2.5-5.8-7.3-8.8-13.3-9.7c-3-0.5-6-0.7-9.1-0.7c-5.6-0.1-11.2,0-16.8,0
		c-0.2,0-0.5,0-0.8,0c0,14.3,0,28.5,0,42.9c0.4,0,0.8,0,1.3,0c5.5,0,11,0,16.6,0c4.8,0,8-3.2,8-8c0-2.6,0-5.1,0-7.8
		c1.3,0,2.5,0,3.8,0c0,11.5,0,23,0,34.7c-1.2,0-2.4,0-3.7,0c-0.2-2.2-0.2-4.5-0.6-6.6c-0.3-1.9-0.9-3.8-1.7-5.6
		c-0.9-1.9-2.6-3-4.7-3c-6.3-0.1-12.6,0-19,0c0,0.5,0,0.9,0,1.3c0,11,0,22.1,0.1,33.1c0,2.2,0.3,4.5,0.7,6.7c0.9,5,3.1,7.2,8.1,7.4
		c6.7,0.3,13.4,0.3,20,0.1c5.6-0.2,10.1-3,13.8-7c4.5-4.9,6.9-10.9,8.6-17.2c0.3-1.2,0.6-2.5,0.9-3.7
		C167.7,115.8,167.7,115.7,167.8,115.6z"/>
	<path class="st0" d="M0,48.6c0-1.2,0-2.2,0-3.3C3,45.2,6,45,8.9,44.9c10.7-0.2,21.3-0.5,32-0.5c7.9,0,15.6,0.8,23.1,3.7
		c6.7,2.6,12,6.8,14.2,13.9c2.4,7.5,2.1,15-1.2,22.1c-3.4,7.6-10,11.2-17.7,13.2c-4.2,1.1-8.5,1.5-12.8,1.5c-5,0-10,0-15,0
		c-0.4,0-0.9,0-1.4,0c0,0.5-0.1,0.9-0.1,1.4c0,11,0,22,0,33c0,1,0.1,2.1,0.3,3.1c0.5,3.4,2.6,5.6,5.9,6.4c2.8,0.7,5.7,0.8,8.6,1.2
		c0.4,0.1,0.8,0,1.2,0c0,1.1,0,2.1,0,3.1c-15.3,0-30.6,0-46,0c0-1,0-2,0-2.9c2.6-0.3,5.1-0.5,7.5-0.9c0.9-0.1,1.9-0.4,2.8-0.8
		c3.8-1.5,4.9-4.6,5-8.4c0-7.5,0-15,0-22.4c0-17.2,0-34.3,0-51.5c0-2.4-0.4-4.9-1.1-7.2c-0.9-3.1-2.9-4.3-6.1-4.3
		C5.4,48.6,2.7,48.6,0,48.6z M30,95.9c4.4,0,8.6,0,12.8,0c8.4,0,15.8-5,19-12.8c2.4-5.8,2.4-11.8,1.4-17.8
		c-1.5-8.5-6.1-14.4-14.7-16.8c-6-1.7-12.1-1.1-18.2-1.1c-0.1,0-0.1,0.1-0.3,0.2C30,63.6,30,79.7,30,95.9z"/>
	<path class="st0" d="M455.2,48.6c0-1.1,0-2.1,0-3.2c24,0,48.1,0,72.3,0c0.9,8.3,1.7,16.7,2.6,25.1c-1.3,0-2.5,0-3.5,0
		c-0.9-3.1-1.7-6.1-2.7-9c-2.5-7.8-8.1-11.7-16-12.3c-5.6-0.5-11.2-0.4-16.8-0.5c-2.7-0.1-5.4,0-8.1,0c0,14.3,0,28.5,0,42.9
		c0.4,0,0.9,0,1.3,0c5.5,0,11,0,16.4,0c4.8,0,8-3.2,8-7.9c0-2.6,0-5.2,0-7.8c1.3,0,2.5,0,3.8,0c0,11.5,0,23.1,0,34.7
		c-1.2,0-2.4,0-3.7,0c-0.1-1.7-0.1-3.6-0.4-5.3c-0.4-2.2-0.9-4.4-1.7-6.4c-0.9-2.4-3-3.5-5.6-3.5c-5.7,0-11.4,0-17.2,0
		c-0.3,0-0.7,0-1.2,0.1c0,0.5,0,0.9,0,1.4c0,10,0,20,0,30c0,3,0.2,6.1,0.6,9.1c0.9,5.8,3.6,8.1,9.5,8.2c6,0.1,12.1,0.2,18.1,0
		c6.8-0.2,11.9-3.7,16-8.9c4.1-5.3,6.3-11.5,7.8-18c0.1-0.4,0.2-0.8,0.3-1.3c1.4,0,2.7,0,4.3,0c-1.1,10.4-2.2,20.8-3.2,31.3
		c-27.7,0-55.4,0-83.2,0c0-0.5,0-1,0-1.5c0-0.5,0-0.9,0-1.5c2.1,0,4,0,6,0c4.5,0,8.3-3.4,9-7.8c0.1-0.9,0.2-1.8,0.2-2.7
		c0-25.2,0-50.4,0-75.6c0-1.7-0.4-3.6-1-5.2c-1.1-2.6-3.2-3.9-6.1-3.9C459.1,48.6,457.2,48.6,455.2,48.6z"/>
	<path class="st0" d="M364.3,48.6c0-1.2,0-2.2,0-3.2c15.5,0,30.9,0,46.4,0c0,1.1,0,2.1,0,3.2c-2.9,0-5.8,0-8.6,0c-1,0-2,0.1-3,0.4
		c-2.3,0.6-3.9,2.2-5.1,4.3c-1.5,2.9-2,6.1-2.1,9.3c0,22.2-0.1,44.4,0,66.6c0,2.9,0.5,5.9,1.1,8.8c0.8,3.6,3.4,5.4,7,5.7
		c1.4,0.1,2.8,0.2,4.2,0.2c4.6,0,9.2-0.1,13.8,0c7.6,0.2,13.5-3.1,18.1-8.9c4-5.1,6.1-11.1,7.6-17.3c0.2-0.7,0.3-1.3,0.5-2
		c1.4,0,2.8,0,4.3,0c-1.1,10.5-2.2,20.9-3.2,31.4c-27.7,0-55.4,0-83.1,0c0-1,0-2,0-3.1c1.7,0,3.4-0.2,5.1,0c5,0.5,10-3.7,9.8-9.8
		c0-0.1,0-0.2,0-0.4c0-25.4,0-50.9,0-76.3c0-1.9-0.3-3.7-1.3-5.4c-1.3-2.2-3.2-3.3-5.7-3.3C368.2,48.6,366.3,48.6,364.3,48.6z"/>
	<path class="st0" d="M455.4,26.9c0,3.3,0,6.6,0,10c-0.4,0-0.8,0-1.2,0.1c0-4.2,0-8.3,0-12.5c0.7,0,1.4,0,2.2,0
		c1.3,3.2,2.6,6.5,3.9,9.9c1-2.9,2-5.5,2.9-8.1c0.7-2,0.7-2,3-1.8c0,4.1,0,8.2,0,12.4c-0.5,0-1,0-1.6,0c0-3.3,0-6.6,0-9.9
		c-0.1,0-0.2,0-0.3-0.1c-0.3,0.8-0.6,1.7-0.9,2.5c-0.8,2.1-1.5,4.2-2.3,6.3c-0.2,0.5-0.2,1.4-1,1.2c-0.4-0.1-0.8-0.7-1-1.2
		c-1.2-3-2.3-5.9-3.5-8.9C455.6,26.8,455.5,26.8,455.4,26.9z"/>
	<path class="st0" d="M366,24.5c1-0.3,1.5-0.1,1.8,1c0.7,2.9,1.5,5.9,2.5,8.8c0.7-3.3,1.4-6.5,2.2-9.8c0.4,0,0.9,0,1.4,0
		c-0.6,2.4-1.1,4.8-1.7,7.2c-0.3,1.3-0.7,2.6-0.8,3.9c-0.2,1.3-0.7,1.8-2.1,1.3c-0.8-3-1.6-6-2.6-9.4c-0.9,3.4-1.7,6.4-2.6,9.5
		c-0.6,0-1.1,0-1.7,0c-1-4.2-2.1-8.3-3.1-12.5c0.6,0,1.1,0,1.7,0c0.8,3.2,1.6,6.5,2.3,9.7c0.1,0,0.1,0,0.2,0
		C364.3,30.9,365.2,27.7,366,24.5z"/>
	<path class="st0" d="M442.7,177.3c-0.8-1-0.8-1.2,0.5-2.8c-1.1-1.5-1.3-2.6-0.5-3.8c1.2-1.7,3-1.6,4.8-1.1c0.3-1.2,1-1.7,2.6-1.3
		c-0.3,0.4-0.5,0.8-0.9,1c-0.8,0.3-1,0.6-0.6,1.4c1.3,2.6-0.1,4.7-3,4.6c-0.1,0-0.2,0-0.2,0c-0.7,0-1.8-0.4-1.8,0.7
		c0,1,1.1,0.8,1.8,0.8c0.9,0.1,1.9,0,2.9,0.1c1.1,0.1,1.9,0.7,2,1.9c0.2,1.2-0.4,2.1-1.6,2.5c-1.7,0.6-3.5,0.7-5.2,0
		c-0.7-0.3-1.5-1-1.7-1.7C441.7,179.1,442.4,178.2,442.7,177.3z M445.8,174.3c1.2,0,1.9-0.8,1.9-2c0-1.1-0.9-1.9-2-1.9
		c-1.1,0-1.9,0.8-1.9,1.8C443.8,173.4,444.7,174.2,445.8,174.3z M446,178.1C446,178.1,446,178.1,446,178.1c-0.5,0-1.1-0.2-1.5-0.1
		c-0.5,0.1-1,0.5-1.2,0.9c-0.1,0.2,0.3,1,0.6,1.1c1.5,0.7,3,0.7,4.5,0c0.3-0.1,0.6-0.8,0.6-1.1c0-0.3-0.6-0.6-0.9-0.7
		C447.4,178.1,446.7,178.2,446,178.1z"/>
	<path class="st0" d="M312.3,177.3c-0.9-1-0.8-1.4,0.6-2.8c-1.2-1.2-1.5-2.6-0.5-3.9c1.2-1.6,2.9-1.5,4.8-1c0.3-1.3,1.1-1.7,2.6-1.3
		c-0.3,0.4-0.5,0.8-0.8,0.9c-0.9,0.3-1.1,0.7-0.6,1.6c1.2,2.3-0.2,4.4-2.7,4.5c-0.2,0-0.4,0-0.6,0c-0.7,0-1.8-0.3-1.8,0.7
		c0,1,1.1,0.8,1.8,0.9c0.9,0.1,1.9,0,2.9,0.1c1.3,0.2,2,0.9,2.1,2c0.1,1.2-0.5,2-1.7,2.4c-1.8,0.6-3.6,0.7-5.3-0.1
		c-0.7-0.3-1.4-1.1-1.5-1.7C311.3,179,311.9,178.2,312.3,177.3z M315.3,170.4c-1.1,0-2,0.8-1.9,1.9c0,1.2,0.8,2,2,2.1
		c1.2,0,1.9-0.8,1.9-2C317.3,171.2,316.5,170.4,315.3,170.4z M315.6,178.1C315.6,178.1,315.6,178.1,315.6,178.1
		c-0.6,0-1.1-0.2-1.7-0.1c-0.4,0.1-1,0.5-1.1,0.9c-0.1,0.3,0.2,0.9,0.5,1.2c0.9,0.7,3.8,0.7,4.7,0c0.3-0.2,0.5-0.7,0.5-1.1
		c0-0.3-0.5-0.6-0.8-0.7C317,178.2,316.3,178.2,315.6,178.1z"/>
	<path class="st0" d="M76,169.6c0.3-1.2,1.1-1.7,2.7-1.3c-0.4,0.4-0.7,0.8-1,1c-0.7,0.3-1,0.6-0.6,1.4c1.3,2.5-0.2,4.7-3,4.6
		c-0.1,0-0.2,0-0.2,0c-0.7,0-1.8-0.3-1.8,0.7c0,1,1.1,0.8,1.8,0.9c1,0.1,2,0,3,0.2c1.1,0.2,1.9,0.7,1.9,1.9c0.1,1.2-0.4,2-1.6,2.4
		c-1.7,0.6-3.4,0.6-5.1,0.1c-0.9-0.3-1.9-0.7-1.9-1.8c0-0.7,0.5-1.5,0.8-2.4c-0.9-1-0.8-1.2,0.6-2.8c-1.1-1.4-1.3-2.6-0.5-3.8
		C72,169.3,73.6,169,76,169.6z M74.2,174.3c1.2,0,1.9-0.8,1.9-2c0-1.1-0.9-1.9-2-1.9c-1.1,0-1.9,0.9-1.9,1.9
		C72.2,173.4,73.1,174.3,74.2,174.3z M74.3,178.1C74.3,178.1,74.3,178.1,74.3,178.1c-0.5,0-1-0.2-1.4-0.1c-0.5,0.2-1.1,0.5-1.3,0.9
		c-0.1,0.2,0.4,1.2,0.8,1.2c1.4,0.1,2.8,0.1,4.2,0c0.3,0,0.7-0.7,0.8-1.1c0-0.2-0.6-0.7-1-0.8C75.7,178.1,75,178.2,74.3,178.1z"/>
	<path class="st0" d="M338.8,178.3c-0.6,0-1,0-1.5,0c0-3,0-5.9,0-8.9c0.4,0,0.8,0,1.2-0.1c0,0.5,0.1,0.9,0.1,1.1
		c0.9-0.4,1.7-1,2.7-1.1c1.1-0.2,1.9,0.7,2.5,1.7c0.3-0.3,0.5-0.6,0.8-0.9c0.8-0.8,1.9-1.1,3-0.8c1.1,0.3,1.7,1.2,1.8,2.3
		c0.1,2.1,0,4.3,0,6.5c-0.5,0-0.9,0-1.4,0c0-1.8,0-3.6,0-5.4c0-1.5-0.6-2.3-1.7-2.3c-1.1,0-2,0.8-2.1,2.2c-0.1,1.6,0,3.2,0,4.8
		c0,0.2,0,0.5,0,0.8c-0.4,0-0.8,0-1.4,0c0-1.8,0-3.5,0-5.3c0-1.5-0.6-2.3-1.8-2.4c-1.2-0.1-2.1,0.9-2.2,2.4
		C338.7,174.7,338.8,176.4,338.8,178.3z"/>
	<path class="st0" d="M144,169.4c0.4,0,0.8,0,1.2,0c0.1,0.4,0.1,0.8,0.1,1c0.9-0.4,1.9-1,2.8-1c0.8,0,1.7,0.8,2.6,1.4
		c0,0,0.2-0.3,0.4-0.5c0.9-0.9,1.9-1.2,3.1-0.9c1.1,0.4,1.8,1.3,1.8,2.4c0.1,2.1,0,4.2,0,6.4c-0.5,0-0.9,0-1.4,0c0-1.9,0-3.7,0-5.5
		c0-1.4-0.5-2.1-1.5-2.2c-1-0.1-2,0.6-2.2,1.8c-0.2,1.3-0.1,2.6-0.2,3.9c0,0.6,0,1.3,0,2c-0.5,0-0.8,0-1.4,0c0-1.8,0-3.5,0-5.2
		c0-1.6-0.7-2.5-1.8-2.5c-1.2,0-2.1,1-2.1,2.5c0,1.7,0,3.4,0,5.2c-0.5,0-0.9,0-1.4,0.1C144,175.3,144,172.4,144,169.4z"/>
	<path class="st0" d="M199.1,172.7c-0.4,1.1-0.7,2.5-1.3,3.7c-0.9,1.6-2.4,2.3-4.2,2.1c-1.8-0.1-3-1-3.7-2.6c-1-2.3-1.2-4.6-0.1-7
		c0.9-1.9,2.6-2.9,4.6-2.8c2.1,0.1,3.4,1.3,4,3.2C198.7,170.3,198.9,171.4,199.1,172.7z M197.6,172.5c-0.3-1.1-0.4-2.2-0.9-3.2
		c-1-2.2-3.7-2.4-5.1-0.5c-1.4,1.9-1.4,5.3,0,7.2c1.4,1.8,4,1.7,5-0.4C197.2,174.7,197.3,173.5,197.6,172.5z"/>
	<path class="st0" d="M97.2,177c2.1,0,4.1,0,6.1,0c0,0.5,0,0.9,0,1.4c-2.6,0-5.1,0-7.7,0c0-4,0-7.9,0-11.9c2.5,0,5,0,7.5,0
		c0,0.4,0,0.8,0,1.3c-2,0-3.9,0-5.9,0c0,1.3,0,2.4,0,3.7c1.5,0,3,0,4.6,0c0,0.5,0,0.8,0,1.3c-1.5,0-3,0-4.6,0
		C97.2,174.2,97.2,175.5,97.2,177z"/>
	<path class="st0" d="M464.9,177c0,0.5,0,0.9,0,1.4c-2.6,0-5.1,0-7.8,0c0-4,0-7.9,0-11.9c2.4,0,4.9,0,7.4,0c0,0.4,0,0.8,0,1.3
		c-1.9,0-3.8,0-5.8,0c0,1.3,0,2.5,0,3.7c1.5,0,3,0,4.5,0c0,0.4,0.1,0.8,0.1,1.2c-1.6,0-3.1,0-4.6,0c0,1.5,0,2.8,0,4.3
		C460.8,177,462.9,177,464.9,177z"/>
	<path class="st0" d="M286.6,178.2c0-3.9,0-7.8,0-11.8c1.8,0,3.5-0.1,5.3,0c1.7,0.2,2.9,1.6,2.9,3.4c0,1.8-1.1,3.2-2.8,3.5
		c-0.6,0.1-1.2,0.1-1.8,0.1c-0.6,0-1.2,0-2,0c0,0.8,0,1.6,0,2.3c0,0.8,0,1.5,0,2.4C287.6,178.2,287.1,178.2,286.6,178.2z
		 M288.2,172.2c0.3,0,0.4,0.1,0.6,0.1c0.7,0,1.4,0,2.2,0c1.3,0,2.1-0.8,2.3-2c0.1-1.2-0.7-2.4-1.9-2.5c-1-0.1-2,0-3.1,0
		C288.2,169.2,288.2,170.7,288.2,172.2z"/>
	<path class="st0" d="M2.7,173.5c0,1,0,1.8,0,2.5c0,0.7,0,1.4,0,2.3c-0.5,0-1,0-1.5,0.1c0-4,0-7.9,0-11.9c1.7,0,3.4-0.1,5.1,0
		c1.8,0.2,3,1.7,3,3.5c0,1.8-1.2,3.3-3,3.5C5.2,173.6,4,173.5,2.7,173.5z M2.8,172.3c1,0,1.8,0,2.6,0c1.4,0,2.2-0.8,2.3-2.1
		c0.1-1.3-0.8-2.4-2.2-2.5c-0.9-0.1-1.8,0-2.8,0C2.8,169.2,2.8,170.7,2.8,172.3z"/>
	<path class="st0" d="M486.9,28.5c0-1.5,0-2.7,0-4.1c0.5,0,0.9,0,1.4,0c0,4.2,0,8.3,0,12.5c-0.4,0-0.7,0-1.1,0.1
		c-0.1-0.4-0.1-0.8-0.2-1.3c-0.3,0.3-0.5,0.5-0.8,0.7c-1.5,1.2-3.5,1-4.6-0.6c-1.3-1.8-1.3-3.7-0.7-5.7
		C481.8,27.2,484.3,26.5,486.9,28.5z M486.9,32.1C486.9,32.1,486.9,32.1,486.9,32.1c0-0.4,0.1-0.9,0-1.3c-0.1-1.2-1-2.1-2.1-2.3
		c-1-0.1-2.1,0.4-2.3,1.6c-0.2,1.3-0.3,2.8-0.1,4.1c0.2,1.3,1.2,1.8,2.2,1.7c1.1-0.1,2.1-1,2.3-2.1C487,33.2,486.9,32.7,486.9,32.1z
		"/>
	<path class="st0" d="M254.5,24.4c0.5,0,0.8,0,1.3,0c0,0.8,0,1.6,0,2.4c0,2.1,0,4.2,0,6.4c0,2.2-1.4,3.7-3.7,4
		c-2.4,0.2-4.3-0.9-4.8-3c-0.1-0.5-0.2-0.9-0.2-1.4c0-2.7,0-5.4,0-8.2c0.6,0,1,0,1.6,0c0,2.8,0,5.6,0,8.4c0,1.8,1.2,2.9,3,2.8
		c1.7,0,2.8-1.1,2.8-2.9C254.6,30,254.5,27.3,254.5,24.4z"/>
	<path class="st0" d="M470.3,29.8c0.7-2,2.6-2.9,5-2.5c1.9,0.3,2.7,1.4,2.7,3.6c0,2,0,4,0,6c-0.3,0-0.6,0-1,0
		c-0.1-0.4-0.2-0.8-0.3-1c-1.1,0.4-2.2,0.9-3.3,1c-1.9,0.2-3.2-1-3.4-2.5c-0.1-1.6,1.3-3.2,3.1-3.4c1.1-0.1,2.3,0,3.5,0
		c0.1-1.1-0.1-1.9-1.1-2.3c-1.3-0.6-2.7-0.3-3.5,0.6C471.4,30.2,471.4,30.2,470.3,29.8z M476.6,32.1c-1.3,0.2-2.5,0.2-3.6,0.5
		c-0.9,0.3-1.6,1.1-1.4,2.1c0.3,1.1,1.2,1.3,2.2,1.2C475.7,35.7,476.6,34.5,476.6,32.1z"/>
	<path class="st0" d="M203,177.4c0,1.3,0,2.5,0,3.8c-0.5,0-0.9,0-1.3,0c0-3.9,0-7.8,0-11.7c0.3,0,0.7-0.1,1.1-0.1
		c0.1,0.4,0.2,0.8,0.3,1.5c0.3-0.5,0.4-0.7,0.6-0.9c1.4-1.3,3.4-1.1,4.4,0.5c1.3,2,1.4,4.2,0.3,6.3c-0.9,2-3,2.4-4.8,1.1
		C203.5,177.7,203.3,177.6,203,177.4z M202.9,173.8c0.1,0.7,0,1.5,0.4,2c0.5,0.6,1.2,1.3,2,1.5c0.5,0.1,1.5-0.5,1.8-1
		c0.8-1.5,0.7-3.2,0-4.7c-0.5-1.1-1.6-1.3-2.7-0.7C203.2,171.4,202.9,172.5,202.9,173.8z"/>
	<path class="st0" d="M213.1,177.4c0,1.3,0,2.5,0,3.7c-0.4,0-0.9,0-1.3,0c0-3.9,0-7.7,0-11.7c0.3,0,0.7-0.1,1.1-0.1
		c0.1,0.4,0.2,0.7,0.2,1.1c0.1,0,0.2-0.1,0.3-0.1c2-2,4.4-1.6,5.3,1.2c0.4,1.2,0.5,2.5,0.3,3.8C218.5,178.2,215.9,179.8,213.1,177.4
		z M213.1,174.1c0,0.2-0.1,0.7,0,1.1c0.2,1.1,0.8,1.8,1.9,2c0.9,0.2,1.7-0.2,2.1-1.1c0.7-1.5,0.7-3.1-0.1-4.6
		c-0.5-1.1-1.7-1.4-2.7-0.7C213.1,171.5,213,172.6,213.1,174.1z"/>
	<path class="st0" d="M40,169.8c-0.4,0.1-0.8,0.2-1.2,0.3c-0.2-0.4-0.3-0.7-0.5-1.1c-0.5-1.1-1.5-1.6-2.6-1.7
		c-1.2-0.1-2,0.5-2.6,1.5c-1.2,1.9-1.1,5.3,0.3,7.2c1.2,1.7,3.6,1.6,4.6-0.1c0.3-0.4,0.4-0.9,0.7-1.5c0.4,0,0.8,0.1,1.3,0.1
		c-0.2,1.9-1.3,3.3-2.9,3.7c-1.9,0.6-3.7,0.1-4.9-1.4c-1.9-2.3-2.1-6.2-0.4-8.7c1.1-1.7,3-2.5,5-2C38.6,166.6,39.8,167.9,40,169.8z"
		/>
	<path class="st0" d="M409.7,178.3c-0.3,0-0.6,0-1,0.1c-0.1-0.4-0.2-0.8-0.3-0.9c-1.1,0.3-2.2,0.9-3.3,0.9c-1.6,0.1-2.9-1-3-2.4
		c-0.1-1.4,1-2.9,2.6-3.1c1.2-0.2,2.4-0.2,3.7-0.3c0.1-1-0.2-1.8-1.2-2.1c-1.1-0.4-2.3-0.4-3.1,0.6c-0.5,0.7-1,0.8-1.7,0.4
		c0.5-1.8,2.1-2.7,4.4-2.4c1.9,0.2,2.7,1.2,2.8,3.1C409.8,174.2,409.7,176.2,409.7,178.3z M408.4,173.7c-1.2,0.2-2.4,0.2-3.5,0.5
		c-0.8,0.3-1.3,1.1-1.1,2c0.2,0.9,1,1.1,1.8,1.1C407.5,177.3,408.6,176,408.4,173.7z"/>
	<path class="st0" d="M334.6,178.3c-0.3,0-0.6,0-1,0.1c-0.1-0.4-0.2-0.8-0.3-0.9c-1.1,0.3-2.2,0.9-3.3,0.9c-1.6,0.1-2.9-1-3-2.3
		c-0.1-1.4,1-2.9,2.6-3.2c0.6-0.1,1.3-0.1,1.9-0.2c0.6,0,1.2,0,1.8,0c0.1-1.1-0.1-1.9-1.2-2.2c-1.1-0.4-2.3-0.4-3.1,0.6
		c-0.5,0.7-1,0.8-1.7,0.4c0.4-1.8,2.1-2.7,4.4-2.4c1.9,0.2,2.7,1.2,2.8,3.1C334.6,174.2,334.6,176.2,334.6,178.3z M333.3,173.7
		c-1.2,0.2-2.4,0.2-3.5,0.5c-0.9,0.2-1.4,1-1.2,2c0.2,0.9,1,1.2,1.9,1.1C332.4,177.2,333.3,176.1,333.3,173.7z"/>
	<path class="st0" d="M291.9,32.3c-1.3,0-2.4,0-3.6,0c-1.1,0-2.1,0-3.2,0c-0.3,1.5,0.4,2.8,1.6,3.4c1.3,0.6,2.4,0.1,3.6-1.5
		c0.3,0.1,0.7,0.2,1.1,0.3c-0.7,1.8-1.9,2.7-3.7,2.8c-1.8,0-3.3-0.9-4-2.6c-0.8-2-0.6-3.9,0.6-5.7c1.7-2.4,5.3-2.1,6.6,0.5
		C291.5,30.3,291.6,31.3,291.9,32.3z M285.1,31.2c1.6,0,3.3,0,4.9,0c-0.2-1.7-1.1-2.6-2.5-2.5C286.2,28.7,285.2,29.7,285.1,31.2z"/>
	<path class="st0" d="M345.8,32.4c-0.2,3.4-2.6,5.6-5.5,4.8c-1.5-0.4-2.2-1.5-2.7-2.8c-0.7-2-0.5-3.9,0.7-5.6c1.6-2.1,5-1.9,6.3,0.4
		C345.2,30.1,345.4,31.3,345.8,32.4z M344.1,32.1c-0.2-0.7-0.4-1.6-0.8-2.4c-0.8-1.4-2.5-1.4-3.5-0.3c-1.2,1.3-1.3,4-0.3,5.4
		c0.6,0.8,1.4,1.2,2.4,1.1c1-0.1,1.6-0.7,1.8-1.7C343.8,33.6,343.9,33,344.1,32.1z"/>
	<path class="st0" d="M515.6,32.3c-0.2,3.4-2.5,5.6-5.4,4.8c-1.6-0.4-2.4-1.7-2.8-3.2c-0.6-2-0.3-3.8,1-5.4c1.7-2,5-1.7,6.3,0.7
		C515.2,30.2,515.3,31.3,515.6,32.3z M508.5,32.6c0.3,0.7,0.5,1.7,1,2.3c1.1,1.5,3.5,1.2,4-0.6c0.3-1.2,0.2-2.7,0-4
		c-0.1-1-0.9-1.7-2-1.7c-1.2,0-1.9,0.6-2.3,1.6C508.9,30.9,508.8,31.7,508.5,32.6z"/>
	<path class="st0" d="M409.3,32.3c-0.2,3.4-2.5,5.6-5.4,4.8c-1.6-0.4-2.4-1.6-2.8-3.1c-0.6-2-0.3-3.8,1-5.4c1.7-2.1,5-1.7,6.3,0.7
		C408.8,30.2,409,31.3,409.3,32.3z M402.1,32.4c0.4,0.9,0.6,1.9,1.1,2.6c1,1.3,3,1.2,3.7-0.2c0.9-1.6,0.9-3.4,0-5
		c-0.8-1.5-2.7-1.6-3.7-0.2C402.7,30.4,402.5,31.4,402.1,32.4z"/>
	<path class="st0" d="M496.6,34.5c0.6-0.3,1-0.5,1.6,0.2c0.8,1.1,2.9,1.5,4,0.7c0.4-0.2,0.8-0.8,0.8-1.2c0-0.3-0.5-0.8-0.8-1
		c-0.8-0.3-1.6-0.5-2.4-0.6c-2.1-0.5-2.8-1.1-2.8-2.7c0-1.6,1.2-2.6,3.1-2.9c1.8-0.3,3.4,0.6,4,2.3c-0.4,0.1-0.7,0.3-1.1,0.4
		c-0.8-1.3-1.9-1.7-3.3-1.2c-0.5,0.2-1,0.8-1.1,1.3c-0.1,0.3,0.6,1,1.1,1.1c1,0.4,2.1,0.5,3.1,0.8c1.4,0.4,2.2,1.7,1.7,3
		c-0.5,1.5-2,2.3-4.1,2.3C498.3,37.1,497,36.2,496.6,34.5z"/>
	<path class="st0" d="M380.9,34.6c0.8-0.5,1.2-0.4,1.7,0.2c0.8,1.1,2.9,1.4,4,0.7c0.4-0.2,0.8-0.7,0.8-1.1c0-0.4-0.5-0.9-0.9-1.1
		c-0.7-0.3-1.5-0.4-2.3-0.6c-2.2-0.5-3-1.2-2.9-2.7c0.1-1.6,1.3-2.7,3.3-2.9c1.8-0.2,3.3,0.7,3.9,2.3c-0.6,0.5-1.1,0.5-1.7-0.2
		c-0.8-1-1.9-1-2.9-0.5c-0.4,0.2-0.9,0.8-0.9,1.2c0,0.4,0.6,1,1,1.1c1,0.4,2,0.5,3,0.7c1.1,0.2,1.8,0.8,2,1.8c0.3,1.1-0.1,2-1,2.7
		c-1.6,1.4-5,1.2-6.4-0.4C381.3,35.5,381.1,35,380.9,34.6z"/>
	<path class="st0" d="M308.5,29.4c-0.6,0.4-1.1,0.6-1.7-0.2c-0.7-0.9-2.2-1.1-3.2-0.4c-0.4,0.3-0.7,0.8-0.7,1.2c0,0.3,0.5,0.8,0.9,1
		c1,0.3,2.1,0.6,3.1,0.8c1.1,0.2,1.8,0.8,2.1,1.9c0.2,1-0.2,1.9-1,2.6c-1.6,1.4-5,1.2-6.4-0.4c-0.3-0.3-0.4-0.8-0.7-1.2
		c0.7-0.5,1.2-0.6,1.7,0.2c0.8,1.1,2.8,1.5,4,0.7c0.4-0.2,0.8-0.7,0.8-1.1c0-0.4-0.5-0.9-0.9-1.1c-0.8-0.3-1.6-0.5-2.4-0.6
		c-2.1-0.5-2.9-1.2-2.8-2.6c0-1.6,1.2-2.6,3.1-2.9C306.3,26.8,307.9,27.7,308.5,29.4z"/>
	<path class="st0" d="M430,29.4c-0.3,0.1-0.7,0.3-1,0.4c-1.2-1.4-2.5-1.8-3.7-1.1c-0.4,0.2-0.8,0.8-0.8,1.2c0,0.4,0.5,0.9,0.9,1.1
		c1,0.3,2,0.5,3,0.7c1.1,0.2,1.8,0.7,2.1,1.8c0.3,1.2-0.2,2-1.1,2.7c-2.2,1.8-6.3,0.7-6.8-1.8c0.7-0.4,1.1-0.4,1.7,0.3
		c0.8,1.1,2.9,1.4,4,0.6c0.3-0.2,0.7-0.8,0.7-1.1c0-0.4-0.5-0.9-0.8-1c-0.8-0.3-1.6-0.5-2.4-0.6c-2.2-0.5-2.9-1.2-2.8-2.8
		c0.1-1.5,1.3-2.6,3.2-2.8C428,26.9,429.5,27.8,430,29.4z"/>
	<path class="st0" d="M134.2,166.4c0.4,0,0.8,0,1.3,0c0,1.4,0,2.7,0,4.1c0.2,0,0.3,0,0.3,0c0.9-1.1,1.9-1.7,3.4-1.1
		c1.2,0.4,1.9,1.6,1.9,3.1c0,1.9,0,3.8,0,5.8c-0.5,0-1,0-1.5,0c0-1.9,0-3.6,0-5.4c0-1.1-0.1-2.1-1.4-2.3c-1-0.2-2.2,0.5-2.5,1.8
		c-0.2,0.9-0.2,1.8-0.2,2.7c0,1,0,2.1,0,3.2c-0.5,0-0.9,0-1.4,0C134.2,174.3,134.2,170.4,134.2,166.4z"/>
	<path class="st0" d="M446.3,36.9c-0.5,0-0.9,0-1.4,0c0-1.9,0-3.8,0-5.7c0-1.5-0.5-2.2-1.6-2.4c-1.1-0.2-2.3,0.5-2.7,1.7
		c-0.2,0.7-0.3,1.6-0.3,2.3c0,1.3,0,2.7,0,4.1c-0.5,0-0.9,0-1.3,0.1c0-3.1,0-6.2,0-9.4c0.4,0,0.7-0.1,1.2-0.1
		c0.1,0.4,0.2,0.8,0.3,1.2c0.3-0.2,0.5-0.4,0.7-0.6c1-0.8,2.1-1.2,3.3-0.7c1.3,0.5,1.9,1.6,1.9,2.9
		C446.3,32.5,446.3,34.7,446.3,36.9z"/>
	<path class="st0" d="M166.2,173.9c-2.2,0-4.2,0-6.3,0c-0.3,1.4,0.3,2.6,1.4,3.2c1.1,0.5,2.2,0.3,3.1-0.7c0.6-0.6,0.6-0.6,1.4-0.2
		c-0.7,1.7-2,2.5-3.7,2.5c-1.7,0-3.1-1-3.6-2.7c-0.5-1.5-0.5-3,0.2-4.4c0.8-1.7,2.1-2.5,3.7-2.3c1.8,0.1,3,1.2,3.4,3
		C166.1,172.7,166.1,173.3,166.2,173.9z M164.6,172.9c-0.2-1.6-1-2.5-2.3-2.5c-1.3,0-2.2,1-2.4,2.5
		C161.4,172.9,163,172.9,164.6,172.9z"/>
	<path class="st0" d="M483.9,173.9c-0.1,1.6,0.5,2.8,1.7,3.3c1.1,0.4,2.1,0.1,3.1-1c0.3-0.3,0.8-0.3,1.5-0.5
		c-0.7,1.9-1.7,2.7-3.3,2.9c-1.7,0.2-3-0.5-3.8-1.9c-1.1-1.9-0.8-4.8,0.7-6.4c1.7-1.8,4.8-1.4,6,0.9c0.4,0.8,0.5,1.6,0.8,2.7
		C488.1,173.9,486,173.9,483.9,173.9z M488.7,172.9c-0.2-1.7-1.1-2.6-2.5-2.5c-1.3,0.1-2.2,1.1-2.2,2.5
		C485.6,172.9,487.2,172.9,488.7,172.9z"/>
	<path class="st0" d="M310.1,174c-0.2,2.2-1.3,3.9-2.9,4.5c-1.6,0.5-3.2,0.1-4.1-1.1c-1.4-1.9-1.5-4-0.5-6.1c0.6-1.3,1.7-2,3.1-2.1
		c1.4-0.1,2.7,0.4,3.3,1.7C309.5,171.8,309.8,172.9,310.1,174z M308.4,173.8c-0.1-0.4-0.1-1-0.3-1.5c-0.3-1-0.9-1.8-2-1.9
		c-1.2-0.1-2,0.6-2.3,1.7c-0.2,1-0.3,2.2-0.2,3.3c0.2,1.2,1.3,1.9,2.4,1.9c1.1,0,1.8-0.7,2.1-2C308.3,174.8,308.4,174.4,308.4,173.8
		z"/>
	<path class="st0" d="M370.3,174c-0.2,2.2-1.3,3.9-2.9,4.5c-1.6,0.5-3.2,0.1-4.1-1.1c-1.4-1.9-1.5-4-0.5-6.1c0.6-1.3,1.7-2,3.1-2.1
		c1.4-0.1,2.7,0.4,3.3,1.7C369.8,171.8,370,172.9,370.3,174z M368.7,173.8c-0.1-0.5-0.1-1-0.3-1.5c-0.3-1-0.9-1.8-2.1-1.8
		c-1.1,0-2,0.6-2.2,1.7c-0.3,1.1-0.3,2.3-0.1,3.4c0.2,1.2,1.4,1.9,2.5,1.8c1.2-0.1,1.8-0.9,2.1-2
		C368.6,174.9,368.6,174.4,368.7,173.8z"/>
	<path class="st0" d="M502.8,173.9c-0.1,1.7,0.6,2.8,1.7,3.2c1.2,0.4,2.2,0.1,3.1-1c0.2-0.3,0.8-0.2,1.5-0.4
		c-0.7,1.9-1.9,2.8-3.6,2.8c-1.7,0.1-3-0.7-3.7-2.2c-1-2.1-0.7-4.1,0.7-6c1.4-1.9,4.5-1.7,5.8,0.3c0.5,0.9,0.7,1.9,1.2,3.2
		c-1.4,0-2.4,0-3.4,0C505,173.9,503.9,173.9,502.8,173.9z M507.6,172.9c-0.1-1.6-1-2.5-2.3-2.5c-1.3,0-2.3,1-2.3,2.5
		C504.4,172.9,506,172.9,507.6,172.9z"/>
	<path class="st0" d="M537.9,173.9c-2.3,0-4.3,0-6.4,0c-0.2,1.5,0.4,2.7,1.5,3.2c1.1,0.5,2.1,0.1,3.1-0.9c0.3-0.3,0.8-0.3,1.3-0.3
		c-0.5,1.8-1.8,2.6-3.5,2.7c-1.6,0.1-3.1-0.9-3.7-2.4c-0.7-1.8-0.6-3.5,0.4-5.2c0.7-1.3,1.9-1.9,3.4-1.8c1.6,0.1,2.7,0.9,3.3,2.4
		C537.5,172.3,537.6,173,537.9,173.9z M536.2,172.9c-0.2-1.6-1-2.4-2.3-2.5c-1.3,0-2.2,0.9-2.4,2.5
		C533,172.9,534.5,172.9,536.2,172.9z"/>
	<path class="st0" d="M24,175.8c-0.7,2.1-2.1,3-3.9,2.8c-1.7-0.2-3.1-1.4-3.5-3.1c-0.4-1.4-0.2-2.9,0.5-4.2c0.8-1.4,1.9-2.2,3.6-2.1
		c1.7,0.1,2.9,1.1,3.4,2.8c0.2,0.6,0.2,1.2,0.4,1.9c-2.2,0-4.3,0-6.4,0c-0.1,1.6,0.5,2.8,1.7,3.3c1.1,0.4,2,0.1,3.1-1
		C23.1,176,23.6,176,24,175.8z M22.8,172.9c-0.1-1.6-1-2.4-2.3-2.5c-1.3,0-2.2,0.9-2.5,2.5C19.6,172.9,21.2,172.9,22.8,172.9z"/>
	<path class="st0" d="M68.6,173.9c-2.2,0-4.3,0-6.3,0c-0.2,1.5,0.4,2.7,1.6,3.2c1.1,0.5,2.1,0.1,3.1-0.9c0.3-0.3,0.8-0.3,1.5-0.5
		c-0.9,2.1-2.1,3-3.9,2.9c-1.6,0-3.1-1.1-3.7-2.6c-0.6-1.6-0.5-3.1,0.3-4.6c0.8-1.6,2.1-2.3,3.7-2.1c1.7,0.2,2.8,1.1,3.3,2.8
		C68.4,172.6,68.5,173.2,68.6,173.9z M62.2,172.9c1.6,0,3.2,0,4.7,0c-0.1-1.6-0.9-2.4-2.2-2.5C63.4,170.4,62.5,171.3,62.2,172.9z"/>
	<path class="st0" d="M87.1,175.8c-0.7,2.1-2,2.9-3.7,2.8c-1.7-0.1-3.1-1.2-3.6-3c-0.4-1.5-0.3-2.9,0.4-4.3c0.8-1.5,2.1-2.3,3.7-2.1
		c1.7,0.2,2.8,1.2,3.3,2.7c0.2,0.6,0.2,1.2,0.4,1.9c-2.2,0-4.3,0-6.4,0c-0.1,1.6,0.5,2.8,1.7,3.3c1.1,0.5,2,0.1,3.1-0.9
		C86.2,176,86.7,176,87.1,175.8z M85.9,172.9c-0.2-1.6-1-2.4-2.3-2.5c-1.3,0-2.2,0.9-2.4,2.5C82.8,172.9,84.3,172.9,85.9,172.9z"/>
	<path class="st0" d="M400,173.9c-2.5,0-4.5,0-6.6,0c-0.2,1.5,0.5,2.7,1.6,3.2c1.1,0.5,2.1,0.1,3.1-0.9c0.3-0.3,0.8-0.3,1.4-0.5
		c-0.5,1.9-1.6,2.7-3.3,2.9c-1.6,0.2-3.2-0.7-3.9-2.1c-1-1.8-0.7-4.5,0.7-6.1c1.5-1.7,4.5-1.7,5.7,0.3
		C399.3,171.6,399.5,172.7,400,173.9z M398.1,172.9c-0.1-1.6-1-2.5-2.4-2.5c-1.3,0-2.3,1.1-2.3,2.5
		C395,172.9,396.6,172.9,398.1,172.9z"/>
	<path class="st0" d="M41.8,173.8c0.2-2.8,1.8-4.7,4.1-4.7c1.4,0,2.5,0.6,3.2,1.8c1,1.8,1.1,3.7,0.2,5.5c-0.7,1.4-1.8,2.2-3.4,2.2
		c-1.6,0-2.7-0.8-3.4-2.3C42.1,175.6,42,174.7,41.8,173.8z M43.1,174.1c0.4,0.9,0.7,1.8,1.3,2.5c1,1.1,2.8,0.9,3.4-0.4
		c0.7-1.5,0.8-3.1,0-4.6c-0.8-1.5-2.7-1.6-3.6-0.2C43.7,172.1,43.5,173.1,43.1,174.1z"/>
	<path class="st0" d="M221.1,173.8c0.2-2.8,1.8-4.7,4.1-4.6c1.4,0,2.6,0.7,3.2,1.9c0.9,1.7,1,3.4,0.3,5.2c-0.6,1.5-1.8,2.4-3.5,2.4
		c-1.7,0-2.8-0.9-3.4-2.4C221.4,175.5,221.3,174.6,221.1,173.8z M227.6,173.8c-0.1-0.4-0.1-1-0.3-1.6c-0.3-1-0.9-1.7-2-1.8
		c-1.1-0.1-2,0.5-2.2,1.5c-0.3,1.2-0.4,2.5-0.2,3.7c0.2,1.2,1.4,1.7,2.5,1.6c1.2-0.1,1.8-0.9,2-2
		C227.5,174.8,227.5,174.4,227.6,173.8z"/>
	<path class="st0" d="M261.1,36.9c-0.5,0-0.9,0-1.4,0c0-3.1,0-6.2,0-9.3c0.4,0,0.8,0,1.3,0c0,0.4,0.1,0.8,0.1,1.3
		c0.4-0.3,0.7-0.6,1-0.9c1-0.7,2-1,3.1-0.5c1.1,0.5,1.8,1.4,1.8,2.6c0.1,2.2,0,4.5,0,6.8c-0.5,0-0.9,0-1.4,0c0-2,0-3.9,0-5.8
		c0-1.5-0.4-2.1-1.5-2.4c-1-0.2-2.3,0.4-2.7,1.5c-0.2,0.6-0.4,1.3-0.4,2C261,33.8,261.1,35.3,261.1,36.9z"/>
	<path class="st0" d="M518.6,27.6c0.5,0,0.9,0,1.3,0c0,0.4,0.1,0.8,0.1,1.3c0.4-0.4,0.8-0.7,1.1-1c1.9-1.4,4.5-0.4,4.7,1.9
		c0.2,2.3,0,4.7,0,7.1c-0.4,0-0.8,0-1.4,0c0-1.9,0-3.8,0-5.7c0-1.6-0.4-2.2-1.5-2.5c-1.1-0.2-2.4,0.5-2.8,1.8c-0.3,0.9-0.2,2-0.3,3
		c0,1.1,0,2.2,0,3.4c-0.5,0-0.9,0-1.4,0C518.6,33.8,518.6,30.8,518.6,27.6z"/>
	<path class="st0" d="M419.7,37c-0.6,0-0.9-0.1-1.4-0.1c0-2,0-4,0-5.9c0-1-0.2-1.8-1.2-2.1c-1-0.4-2-0.1-2.6,0.7
		c-0.5,0.7-0.8,1.6-0.8,2.4c-0.1,1.6,0,3.2,0,4.9c-0.5,0-0.9,0-1.4,0c0-3.1,0-6.1,0-9.2c0.4,0,0.8,0,1.3,0c0,0.4,0.1,0.8,0.1,1.3
		c0.4-0.4,0.7-0.7,1.1-1c2-1.5,4.6-0.4,4.8,2.1C419.8,32.3,419.7,34.6,419.7,37z"/>
	<path class="st0" d="M322.6,27.7c1.1-0.4,1.6,0,1.9,1c0.6,1.9,1.3,3.7,2,5.9c0.5-1.4,0.9-2.5,1.3-3.6c0.3-0.9,0.7-1.7,0.9-2.6
		c0.2-0.7,0.6-1,1.4-0.7c0,0.2,0,0.5-0.1,0.7c-1.1,3.2-2.3,6.5-3.4,9.7c-0.8,2.2-2,2.8-4,2.1c0-0.3,0-0.7,0-1.1
		c1.3,0.1,2.5,0,2.8-1.4c0.1-0.5,0.1-1.2,0-1.7c-0.8-2.4-1.7-4.8-2.5-7.2C322.8,28.3,322.7,28,322.6,27.7z"/>
	<path class="st0" d="M512.1,169.4c0.4,0,0.8,0,1.2,0c0,0.4,0.1,0.7,0.1,1.2c0.4-0.3,0.7-0.6,1-0.8c0.9-0.6,1.8-0.9,2.9-0.5
		c1.1,0.5,1.7,1.4,1.7,2.5c0.1,2.1,0,4.2,0,6.4c-0.4,0-0.8,0-1.3,0c0-1.9,0-3.7,0-5.5c0-1-0.2-1.8-1.3-2.2c-1-0.3-2.2,0.2-2.7,1.3
		c-0.3,0.6-0.4,1.4-0.4,2.1c-0.1,1.4,0,2.9,0,4.3c-0.5,0-0.8,0-1.3,0C512.1,175.3,512.1,172.4,512.1,169.4z"/>
	<path class="st0" d="M112.3,178.3c-0.5,0-0.8,0-1.3,0c0-1.8,0-3.6,0-5.4c0-1.6-0.4-2.2-1.5-2.4c-1.2-0.2-2.4,0.5-2.7,1.8
		c-0.2,1.1-0.2,2.3-0.2,3.4c0,0.8,0,1.6,0,2.5c-0.5,0-0.8,0-1.3,0c0-3,0-5.9,0-8.9c0.4,0,0.8,0,1.2-0.1c0,0.4,0.1,0.8,0.1,1.3
		c0.4-0.3,0.7-0.6,1-0.8c0.9-0.7,1.9-1,3-0.5c1.1,0.5,1.7,1.4,1.7,2.6C112.3,174,112.3,176.1,112.3,178.3z"/>
	<path class="st0" d="M243.4,169.4c0.5,0,0.8,0,1.3,0c0,1.5,0,3,0,4.4c0,0.6-0.1,1.3,0.1,1.8c0.3,0.6,0.8,1.6,1.3,1.6
		c0.7,0.1,1.6-0.4,2.1-0.9c0.5-0.5,0.6-1.4,0.7-2.2c0.1-1.5,0-3.1,0-4.7c0.5,0,0.9,0,1.4,0c0,3,0,5.9,0,8.9
		c-0.8,0.1-1.5,0.3-1.3-1.1c-0.3,0.2-0.5,0.3-0.6,0.5c-0.9,0.8-2,1.2-3.2,0.7c-1.2-0.5-1.8-1.5-1.8-2.7
		C243.4,173.7,243.4,171.6,243.4,169.4z"/>
	<path class="st0" d="M169,169.4c0.5,0,0.9,0,1.3,0c0,0.4,0,0.7,0.1,1.2c0.3-0.3,0.6-0.6,0.9-0.8c0.9-0.7,1.9-1,3-0.6
		c1.2,0.5,1.7,1.4,1.8,2.6c0.1,2.1,0,4.1,0,6.3c-0.5,0-0.9,0-1.4,0c0-1.9,0-3.7,0-5.5c0-0.9-0.1-1.8-1.2-2.1c-1-0.3-2.2,0.1-2.7,1.1
		c-0.3,0.6-0.5,1.4-0.5,2c-0.1,1.5,0,3,0,4.5c-0.4,0-0.9,0-1.3,0C169,175.3,169,172.3,169,169.4z"/>
	<path class="st0" d="M433,169.4c0.5,0,0.8,0,1.3,0c0,0.4,0.1,0.8,0.1,1.3c0.3-0.3,0.6-0.6,0.9-0.8c0.9-0.7,1.9-1,3-0.5
		c1.1,0.5,1.7,1.4,1.7,2.5c0.1,2.1,0,4.2,0,6.4c-0.5,0-0.8,0-1.4,0c0-1.8,0-3.7,0-5.5c0-1-0.1-1.9-1.3-2.2c-1.1-0.3-2.2,0.3-2.7,1.4
		c-0.3,0.6-0.4,1.3-0.4,2c-0.1,1.4,0,2.9,0,4.4c-0.5,0-0.9,0-1.3,0C433,175.3,433,172.4,433,169.4z"/>
	<path class="st0" d="M418.6,169.4c0.4,0,0.8,0,1.3,0c0,0.4,0.1,0.7,0.1,1.2c0.3-0.3,0.6-0.5,0.9-0.7c2-1.5,4.5-0.6,4.7,1.9
		c0.2,2.1,0,4.3,0,6.5c-0.4,0-0.8,0-1.3,0c0-1.8,0-3.7,0-5.5c0-1.1-0.2-1.9-1.4-2.2c-1-0.2-2.1,0.2-2.6,1.3
		c-0.3,0.6-0.4,1.2-0.4,1.8c-0.1,1.5,0,3,0,4.6c-0.4,0-0.8,0.1-1.3,0.1C418.6,175.3,418.6,172.4,418.6,169.4z"/>
	<path class="st0" d="M254.9,169.4c0.1,0.4,0.1,0.7,0.2,1.1c0.2-0.1,0.3-0.1,0.4-0.2c1.5-1.3,2.7-1.6,3.8-0.7
		c0.7,0.6,1.3,1.5,1.3,2.4c0.2,2.1,0.1,4.1,0.1,6.3c-0.4,0-0.8,0.1-1.3,0.1c0-1.9,0-3.7,0-5.6c0-1.1-0.2-1.9-1.4-2.2
		c-1.1-0.3-2.2,0.3-2.7,1.3c-0.3,0.6-0.4,1.4-0.4,2.1c-0.1,1.4,0,2.8,0,4.3c-0.5,0-0.8,0-1.3,0c0-3,0-5.9,0-8.9
		C254.1,169.4,254.4,169.4,254.9,169.4z"/>
	<path class="st0" d="M398.8,30.6c-0.4,0.1-0.8,0.2-1.1,0.3c-0.1-0.1-0.2-0.1-0.2-0.2c-0.8-1.7-1.5-2.2-2.7-2
		c-1.2,0.2-2.1,1.3-2.1,3c0,0.9,0.2,1.9,0.5,2.8c0.3,0.8,0.9,1.5,1.9,1.5c1-0.1,1.7-0.6,2-1.6c0.1-0.2,0.2-0.4,0.3-0.6
		c0.3,0,0.7,0,1,0c0.1,1.4-0.7,2.7-1.9,3.2c-1.4,0.6-3.1,0.3-4.1-0.8c-1.9-1.9-2-5.9-0.1-7.8c1-1.1,2.3-1.5,3.7-1
		C397.7,27.8,398.4,29,398.8,30.6z"/>
	<path class="st0" d="M272.8,169.4c0.6,0,1,0,1.5,0c0.7,2.1,1.5,4.2,2.3,6.6c0.8-2.1,1.5-3.9,2.1-5.8c0.3-0.7,0.6-1.1,1.5-0.8
		c-0.9,2.6-1.8,5.2-2.7,7.7c-0.4,1-0.7,2-1.2,3c-0.5,1-1.4,1.5-2.6,1.4c-0.8-0.1-1.1-0.4-0.8-1.2c0.5-0.1,1.1,0,1.6-0.2
		c1-0.4,1.4-1.7,1-2.8C274.7,174.7,273.7,172.1,272.8,169.4z"/>
	<path class="st0" d="M528.4,172.3c-0.7,0.4-1.1,0.2-1.5-0.5c-0.4-0.6-1.2-1.1-1.9-1.3c-0.9-0.2-1.6,0.5-2,1.4
		c-0.6,1.6-0.5,3.1,0.4,4.4c0.3,0.5,1.1,1,1.6,0.9c0.6-0.1,1.4-0.6,1.7-1.2c0.4-0.6,0.6-1.1,1.5-0.6c-0.1,1.2-0.6,2.3-1.8,2.8
		c-1.3,0.6-2.7,0.5-3.8-0.4c-2.2-1.8-2.2-5.9-0.1-7.8C524.7,168.1,527.6,169.2,528.4,172.3z"/>
	<path class="st0" d="M480.9,172.2c-0.8,0.4-1.1,0.3-1.6-0.5c-0.4-0.6-1.2-1.1-1.9-1.3c-0.9-0.2-1.6,0.5-2,1.4
		c-0.6,1.5-0.5,2.9,0.3,4.2c0.4,0.5,1.1,1,1.8,1.1c0.8,0.2,1.5-0.4,1.8-1.3c0.2-0.8,0.6-0.9,1.4-0.6c-0.2,1.2-0.6,2.3-1.9,2.9
		c-1.4,0.6-2.7,0.4-3.8-0.6c-2.1-1.8-2.1-5.8-0.1-7.7c1-0.9,2.2-1.2,3.4-0.9C479.9,169.6,480.6,170.7,480.9,172.2z"/>
	<path class="st0" d="M131.8,175.4c-0.3,1.9-1,2.8-2.5,3.1c-1.5,0.3-2.9-0.2-3.8-1.6c-1.2-1.9-1.2-3.9-0.1-5.9
		c0.8-1.4,2.3-2.1,3.8-1.9c1.4,0.2,2.4,1.3,2.8,3.2c-0.4,0.1-0.7,0.2-1.1,0.2c-0.2-0.4-0.3-0.7-0.5-1c-0.8-1.4-2.7-1.4-3.6-0.1
		c-1,1.4-0.7,4.1,0.4,5.4c1,1,2.6,0.7,3.2-0.8C130.7,175.2,131,175.1,131.8,175.4z"/>
	<path class="st0" d="M349.1,29c-0.7,0-1.2-0.1-1.7-0.1c0-0.4,0-0.7,0-1.1c0.5-0.1,1-0.1,1.5-0.1c0.8-3.4,1.4-3.8,4.3-3.4
		c0,0.2,0.1,0.3,0.1,0.5c0,0.2,0,0.4,0,0.4c-0.9,0.2-1.7,0.3-2.3,0.7c-0.3,0.2-0.3,1-0.5,1.7c0.8,0,1.5,0.1,2.2,0.1
		c0,0.4,0,0.7,0,1.1c-0.7,0-1.3,0.1-2.1,0.1c0,2.6,0,5.2,0,7.9c-0.5,0-0.9,0-1.4,0.1C349.1,34.3,349.1,31.7,349.1,29z"/>
	<path class="st0" d="M321.1,28.8c-0.7,0-1.3,0.1-1.9,0.1c0,2-0.1,4,0,6c0.1,1.5,1.3,1.1,2.3,1.1c0.3,0.9,0.1,1.4-0.9,1.4
		c-2,0.1-3-0.7-3.1-2.9c-0.1-1.4,0-2.8,0-4.2c0-0.4,0-0.9,0-1.4c-0.5-0.1-0.9-0.1-1.4-0.2c0-0.3,0-0.7-0.1-1.1
		c0.5-0.1,0.9-0.1,1.5-0.2c0-0.7,0-1.5,0-2.3c0.6,0,1,0,1.6,0c0,0.7,0,1.4,0,2.3c0.7,0,1.3,0.1,1.9,0.1C321,28,321,28.3,321.1,28.8z
		"/>
	<path class="st0" d="M469.9,173.4c1,1.6,2,3.2,3.1,4.9c-2.7,0.3-2.5-2.5-3.9-3.3c-1.3,0.8-1.1,3.2-3.5,3.4c0.9-1.4,1.5-2.6,2.3-3.7
		c0.5-0.7,0.5-1.1,0-1.8c-0.7-1.1-1.4-2.2-2.1-3.5c0.9-0.2,1.6-0.2,2.1,0.7c0.3,0.7,0.8,1.4,1.3,2.1c1.3-0.7,1.1-3.1,3.4-2.9
		C471.5,170.8,470.7,172,469.9,173.4z"/>
	<path class="st0" d="M268.2,167.1c0.6,0,1,0,1.5,0c0,0.7,0.1,1.4,0.1,2.1c0.6,0,1.1,0.1,1.8,0.1c0,0.3,0.1,0.6,0.1,1.1
		c-0.6,0-1.2,0.1-1.8,0.1c0,2-0.1,3.9,0,5.9c0.1,1.3,1.3,0.7,2.2,0.8c0.4,1,0,1.3-0.9,1.3c-1.9,0.1-2.9-0.8-2.9-2.9
		c0-1.7,0-3.3,0-5.1c-0.5-0.1-0.9-0.1-1.4-0.2c0-0.3-0.1-0.6-0.1-1c0.5-0.1,0.9-0.1,1.4-0.2C268.2,168.6,268.2,168,268.2,167.1z"/>
	<path class="st0" d="M274.1,27.7c1.2-0.4,1.6,0,1.9,1c0.6,2.1,1.4,4.1,2.2,6.4c0.8-2.4,1.5-4.5,2.2-6.6c0.3-0.9,0.3-0.9,1.5-0.7
		c-1,2.9-1.9,5.8-2.9,8.7c-0.1,0.2-0.5,0.5-0.8,0.5c-0.3,0-0.9-0.2-1-0.4C276.2,33.6,275.2,30.7,274.1,27.7z"/>
	<path class="st0" d="M385.1,177.2c1.9,0,3.7,0,5.5,0c0,0.4,0,0.8,0,1.2c-2.3,0-4.6,0-6.9,0c0-4,0-7.9,0-11.9c0.5,0,0.9,0,1.4,0
		C385.1,170,385.1,173.5,385.1,177.2z"/>
	<path class="st0" d="M357.4,170.9c-0.8-0.3-1.9,0.2-1.5-1.3c0.4-0.1,0.9-0.1,1.3-0.2c0.9-3.3,1.3-3.5,4.1-3.2c0,0.3,0,0.7,0,1.1
		c-2.4,0.1-2.6,0.3-2.4,2.1c0.6,0,1.2,0,1.9,0c0,0.4,0,0.8,0.1,1.2c-0.7,0-1.3,0.1-2.1,0.1c0,2.5,0,4.9,0,7.5c-0.5,0-0.9,0-1.4,0
		C357.4,175.8,357.4,173.3,357.4,170.9z"/>
	<path class="st0" d="M238,170.6c-0.5,0-0.9-0.1-1.4-0.1c0-0.3,0-0.7-0.1-1.1c0.5,0,0.9-0.1,1.4-0.1c0-0.7,0.1-1.4,0.1-2.1
		c0.5,0,0.9,0,1.4,0c0,0.7,0,1.4,0,2.1c0.6,0,1.2,0.1,1.8,0.1c0,0.3,0.1,0.6,0.1,1.1c-0.6,0-1.2,0.1-1.9,0.1c0,1.9-0.1,3.8,0,5.6
		c0.1,1.4,1.2,1.2,2.3,1c0,0.5,0,0.8,0.1,1.2c-2.6,0.7-3.9-0.2-3.9-2.8C238,174,238,172.3,238,170.6z"/>
	<path class="st0" d="M183,177.3c0.4,1,0,1.3-0.9,1.4c-1.8,0.1-2.8-0.8-2.9-2.7c-0.1-1.8,0-3.6,0-5.4c-0.5,0-0.9-0.1-1.4-0.1
		c0-0.3-0.1-0.7-0.1-1.1c0.5-0.1,0.9-0.1,1.4-0.2c0-0.7,0.1-1.4,0.1-2.1c0.5,0,0.9,0,1.4,0c0,0.7,0,1.4,0,2.1c0.7,0,1.2,0.1,1.9,0.1
		c0,0.4,0,0.7,0,1.1c-0.6,0-1.2,0.1-1.8,0.1c0,1.9-0.1,3.7,0,5.5C180.9,177.3,181.2,177.4,183,177.3z"/>
	<path class="st0" d="M498.8,178.3c-0.5,0-0.9,0-1.4,0c0-3.9,0-7.8,0-11.8c0.4,0,0.9,0,1.4,0C498.8,170.4,498.8,174.3,498.8,178.3z"
		/>
	<path class="st0" d="M58.2,166.4c0,4,0,7.8,0,11.8c-0.5,0-0.9,0-1.4,0c0-3.9,0-7.8,0-11.8C57.2,166.4,57.6,166.4,58.2,166.4z"/>
	<path class="st0" d="M299.5,28.6c-2.4,0.5-3.2,1.5-3.2,3.9c0,1.4,0,2.7,0,4.1c0,0.1,0,0.2-0.1,0.3c-0.4,0-0.8,0-1.3,0
		c0-3.1,0-6.1,0-9.3c0.4,0,0.7,0,1.1-0.1c0.1,0.5,0.1,1,0.2,1.6c0.8-1.2,1.5-2.2,3.1-1.8C299.5,27.7,299.5,28.1,299.5,28.6z"/>
	<path class="st0" d="M12.5,178.3c-0.5,0-0.9,0-1.3-0.1c0-3,0-5.9,0-8.9c0.3,0,0.7-0.1,1.1-0.1c0.1,0.5,0.1,1,0.2,1.6
		c0.7-1.1,1.4-2.2,3-1.8c0,0.4,0,0.8,0,1.2c-2.3,0.7-3,1.5-3,4C12.5,175.6,12.5,176.9,12.5,178.3z"/>
	<path class="st0" d="M325.7,169.2c0,0.4,0,0.8,0,1.2c-2.3,0.6-2.9,1.5-2.9,3.9c0,1.3,0,2.6,0,4c-0.5,0-0.8,0-1.4,0
		c0-1.5,0-2.9,0-4.4c0-1.5,0-2.9,0-4.5c0.4,0,0.8,0,1.2,0c0.1,0.4,0.1,0.8,0.2,1.4C323.5,169.8,324.1,168.7,325.7,169.2z"/>
	<path class="st0" d="M233,178.3c-0.5,0-0.9,0-1.3,0c0-3,0-5.9,0-8.9c0.4,0,0.7,0,1.1,0c0.1,0.4,0.1,0.9,0.2,1.5
		c0.8-1.1,1.4-2.1,2.9-1.7c0,0.4,0,0.8,0,1.2c-2.2,0.6-2.9,1.5-2.9,3.8C233,175.5,233,176.9,233,178.3z"/>
	<path class="st0" d="M494.3,178.3c-0.5,0-0.9,0-1.3,0c0-4,0-7.8,0-11.8c0.4,0,0.8,0,1.3,0C494.3,170.4,494.3,174.3,494.3,178.3z"/>
	<path class="st0" d="M53.6,178.3c-0.5,0-0.9,0-1.3,0c0-3.9,0-7.8,0-11.9c0.4,0,0.8,0,1.3-0.1C53.6,170.3,53.6,174.3,53.6,178.3z"/>
	<path class="st0" d="M116.5,178.3c-0.5,0-0.9,0-1.3,0c0-3,0-5.8,0-8.8c0.4,0,0.7,0,1.2,0c0,0.5,0,1,0,1.7c0.8-1.3,1.4-2.4,3.1-2
		c0,0.4,0,0.8,0,1.2c-2.2,0.5-2.9,1.4-2.9,3.6C116.4,175.4,116.5,176.8,116.5,178.3z"/>
	<path class="st0" d="M297.8,178.3c-0.4,0-0.7,0-1.2,0.1c0-3,0-5.9,0-8.9c0.3,0,0.6-0.1,1.1-0.1c0,0.6,0.1,1.1,0.1,1.7
		c0.7-1.2,1.4-2.3,3-1.9c0,0.4,0,0.8,0,1.3c-2.2,0.5-2.9,1.4-2.9,3.6c0,1.3,0,2.5,0,3.8C297.9,178,297.9,178,297.8,178.3z"/>
	<path class="st0" d="M416.8,169.2c0,0.5,0,0.8,0,1.2c-2.2,0.5-2.9,1.4-3,3.6c0,1.3,0,2.6,0,3.9c0,0.1-0.1,0.1-0.1,0.3
		c-0.3,0-0.7,0-1.1,0c0-3,0-5.9,0-8.8c0.4,0,0.7,0,1.2,0c0,0.5,0,1,0,1.7C414.5,169.9,415.1,168.8,416.8,169.2z"/>
	<path class="st0" d="M374.1,178.3c-0.5,0-0.9,0-1.3,0c0-2.9,0-5.9,0-8.9c0.3,0,0.6,0,1.1-0.1c0,0.5,0.1,1,0.1,1.8
		c0.7-1.3,1.4-2.4,3-2c0,0.4,0,0.8,0,1.3c-2.2,0.5-2.9,1.4-2.9,3.7C374.1,175.5,374.1,176.8,374.1,178.3z"/>
	<path class="st0" d="M378,36.9c-0.5,0-0.9,0-1.4,0c0-3.1,0-6.2,0-9.3c0.4,0,0.9,0,1.4,0C378,30.7,378,33.7,378,36.9z"/>
	<path class="st0" d="M270.6,27.6c0.5,0,0.9,0,1.4,0c0,3.1,0,6.2,0,9.3c-0.5,0-0.9,0-1.4,0C270.6,33.8,270.6,30.7,270.6,27.6z"/>
	<path class="st0" d="M433.8,27.6c0.5,0,0.9,0,1.4,0c0,3.1,0,6.2,0,9.3c-0.5,0-0.9,0-1.4,0C433.8,33.8,433.8,30.7,433.8,27.6z"/>
	<path class="st0" d="M263.6,169.4c0.5,0,0.9,0,1.4,0c0,2.9,0,5.8,0,8.8c-0.4,0-0.9,0-1.4,0C263.6,175.3,263.6,172.4,263.6,169.4z"
		/>
	<path class="st0" d="M429.9,178.3c-0.5,0-0.9,0-1.4,0c0-3,0-5.9,0-8.8c0.4,0,0.9,0,1.4,0C429.9,172.3,429.9,175.2,429.9,178.3z"/>
	<path class="st0" d="M492.2,36.9c0-3.1,0-6.1,0-9.3c0.4,0,0.8,0,1.4-0.1c0,3.1,0,6.2,0,9.4C493.1,36.9,492.7,36.9,492.2,36.9z"/>
	<path class="st0" d="M313.6,36.9c-0.5,0-0.9,0-1.4,0c0-3.1,0-6.2,0-9.3c0.5,0,0.9,0,1.4,0C313.6,30.7,313.6,33.7,313.6,36.9z"/>
	<path class="st0" d="M121.2,169.4c0.5,0,0.9,0,1.4,0c0,3,0,5.9,0,8.9c-0.5,0-0.9,0-1.4,0C121.2,175.3,121.2,172.4,121.2,169.4z"/>
	<path class="st0" d="M451.9,31.8c0,0.4,0,0.7,0,1.1c-1.2,0-2.4,0-3.7,0c0-0.3,0-0.7-0.1-1.1C449.5,31.8,450.6,31.8,451.9,31.8z"/>
	<path class="st0" d="M25.8,173.4c1.2,0,2.3,0,3.4,0c0.3,0.8,0.2,1.2-0.8,1.2c-0.6,0-1.3,0-1.9,0C25.8,174.7,25.6,174.2,25.8,173.4z
		"/>
	<path class="st0" d="M428.5,167.9c0-0.5,0-1,0-1.5c0.5,0,0.9,0,1.4,0c0,0.5,0,1,0,1.5C429.5,167.9,429,167.9,428.5,167.9z"/>
	<path class="st0" d="M265,166.5c0,0.5,0,1,0,1.5c-0.5,0-0.9,0-1.4,0c0-0.5,0-1,0-1.5C264.1,166.5,264.5,166.5,265,166.5z"/>
	<path class="st0" d="M433.8,26c0-0.5,0-1,0-1.6c0.5,0,0.9,0,1.4,0c0,0.5,0,1,0,1.6C434.8,26,434.4,26,433.8,26z"/>
	<path class="st0" d="M378,26.1c-0.5,0-0.9,0-1.4,0c0-0.5,0-1,0-1.6c0.5,0,0.9,0,1.4,0C378,25,378,25.5,378,26.1z"/>
	<path class="st0" d="M270.6,24.4c0.5,0,0.9,0,1.4,0c0,0.6,0,1.1,0,1.6c-0.5,0-0.9,0-1.4,0C270.6,25.5,270.6,25,270.6,24.4z"/>
	<path class="st0" d="M122.5,166.4c0,0.5,0,1,0,1.5c-0.4,0-0.8,0-1.3,0c0-0.5,0-1,0-1.5C121.6,166.4,122.1,166.4,122.5,166.4z"/>
	<path class="st0" d="M493.6,26c-0.5,0-0.9,0-1.4,0c0-0.5,0-1,0-1.6c0.4,0,0.8,0,1.4,0C493.6,24.9,493.6,25.4,493.6,26z"/>
	<path class="st0" d="M312.2,26c0-0.5,0-1,0-1.5c0.4,0,0.9,0,1.4,0c0,0.5,0,1,0,1.5C313.2,26,312.7,26,312.2,26z"/>
</g>
<g id="_x2122_">
	<g>
		<path class="st0" d="M529.3,0v1.3h-2.4v6.4h-1.5V1.3h-2.4V0H529.3z M537.5,7.6l-0.3-4.5c0-0.6,0-1.3-0.1-2.1h-0.1
			c-0.2,0.7-0.4,1.6-0.6,2.3l-1.4,4.2h-1.6l-1.4-4.3c-0.1-0.6-0.4-1.5-0.5-2.2h-0.1c0,0.7,0,1.4-0.1,2.1l-0.3,4.5h-1.5l0.6-7.6h2.3
			l1.3,3.7c0.2,0.6,0.3,1.1,0.5,1.9h0c0.2-0.7,0.4-1.3,0.5-1.9l1.3-3.8h2.2l0.6,7.6H537.5z"/>
	</g>
</g>
</svg>
