<?xml version="1.0" encoding="utf-8"?>
<!-- Generator: Adobe Illustrator 21.0.0, SVG Export Plug-In . SVG Version: 6.00 Build 0)  -->
<svg version="1.1" id="Layer_1" xmlns="http://www.w3.org/2000/svg" xmlns:xlink="http://www.w3.org/1999/xlink" x="0px" y="0px"
	 viewBox="0 0 502.2 120.9" style="enable-background:new 0 0 502.2 120.9;" xml:space="preserve">
<style type="text/css">
	.st0{fill:#FFFFFF;}
</style>
<g>
	<path class="st0" d="M68.2,120.6l-3-18h3.1l1,7.4c0.3,2.1,0.5,4.4,0.8,6.3h0c0.2-1.9,0.5-4.1,0.8-6.3l1.1-7.4h3l1,7.6
		c0.3,2.1,0.5,4,0.7,6h0c0.2-2,0.5-4.1,0.7-6.2l1-7.4h2.9l-3.3,18H75l-1.1-7.7c-0.2-1.8-0.5-3.5-0.6-5.5h0c-0.2,2-0.4,3.7-0.7,5.5
		l-1.2,7.7H68.2z"/>
	<path class="st0" d="M85.8,102.7v18h-2.9v-18H85.8z"/>
	<path class="st0" d="M88.3,116.4c0.8,0.6,2,1.1,3.2,1.1c1.3,0,2-0.8,2-1.9c0-1.1-0.6-1.8-2.1-2.5c-2.1-1-3.5-2.7-3.5-5.3
		c0-3.1,1.8-5.4,4.8-5.4c1.4,0,2.5,0.4,3.2,0.9l-0.6,3.3c-0.5-0.3-1.4-0.9-2.7-0.9c-1.2,0-1.8,0.8-1.8,1.7c0,1.1,0.7,1.7,2.3,2.5
		c2.2,1.2,3.3,2.8,3.3,5.4c0,3-1.6,5.6-5.1,5.6c-1.4,0-2.9-0.5-3.6-1.1L88.3,116.4z"/>
	<path class="st0" d="M107.7,120.1c-0.5,0.4-1.7,0.8-3.3,0.8c-4.4,0-6.6-3.9-6.6-9c0-6.1,3.1-9.5,6.9-9.5c1.5,0,2.6,0.4,3.1,0.8
		l-0.6,3.2c-0.6-0.3-1.4-0.7-2.4-0.7c-2.3,0-4,1.9-4,5.9c0,3.6,1.5,5.9,4.1,5.9c0.9,0,1.8-0.3,2.4-0.6L107.7,120.1z"/>
	<path class="st0" d="M120.6,111.5c0,5.9-2.5,9.5-6.2,9.5c-3.8,0-6-4-6-9.1c0-5.4,2.4-9.4,6.2-9.4
		C118.5,102.4,120.6,106.5,120.6,111.5z M111.5,111.7c0,3.5,1.2,6,3.1,6c1.9,0,3-2.6,3-6.1c0-3.2-1.1-6-3.1-6
		C112.6,105.6,111.5,108.2,111.5,111.7z"/>
	<path class="st0" d="M122.5,120.6v-18h3.3l2.6,6.6c0.8,1.9,1.5,4.1,2.1,6.2h0.1c-0.2-2.4-0.2-4.8-0.2-7.5v-5.2h2.6v18h-3l-2.7-6.9
		c-0.8-1.9-1.6-4.2-2.2-6.3l-0.1,0c0.1,2.4,0.1,4.9,0.1,7.8v5.4H122.5z"/>
	<path class="st0" d="M135.5,116.4c0.8,0.6,2,1.1,3.2,1.1c1.3,0,2-0.8,2-1.9c0-1.1-0.6-1.8-2.1-2.5c-2.1-1-3.5-2.7-3.5-5.3
		c0-3.1,1.8-5.4,4.8-5.4c1.4,0,2.5,0.4,3.2,0.9l-0.6,3.3c-0.5-0.3-1.4-0.9-2.7-0.9c-1.2,0-1.8,0.8-1.8,1.7c0,1.1,0.7,1.7,2.4,2.5
		c2.2,1.2,3.3,2.8,3.3,5.4c0,3-1.6,5.6-5.1,5.6c-1.4,0-2.9-0.5-3.6-1.1L135.5,116.4z"/>
	<path class="st0" d="M148.5,102.7v18h-2.9v-18H148.5z"/>
	<path class="st0" d="M151,120.6v-18h3.3l2.6,6.6c0.8,1.9,1.5,4.1,2.1,6.2h0.1c-0.2-2.4-0.2-4.8-0.2-7.5v-5.2h2.6v18h-3l-2.7-6.9
		c-0.8-1.9-1.6-4.2-2.2-6.3l-0.1,0c0.1,2.4,0.1,4.9,0.1,7.8v5.4H151z"/>
	<path class="st0" d="M177,120.1c-0.5,0.4-1.7,0.8-3.3,0.8c-4.4,0-6.6-3.9-6.6-9c0-6.1,3.1-9.5,6.9-9.5c1.5,0,2.6,0.4,3.1,0.8
		l-0.6,3.2c-0.6-0.3-1.4-0.7-2.4-0.7c-2.3,0-4,1.9-4,5.9c0,3.6,1.5,5.9,4.1,5.9c0.9,0,1.8-0.3,2.4-0.6L177,120.1z"/>
	<path class="st0" d="M189.9,111.5c0,5.9-2.5,9.5-6.2,9.5c-3.8,0-6-4-6-9.1c0-5.4,2.4-9.4,6.2-9.4
		C187.8,102.4,189.9,106.5,189.9,111.5z M180.8,111.7c0,3.5,1.2,6,3.1,6c1.9,0,3-2.6,3-6.1c0-3.2-1.1-6-3.1-6
		C181.9,105.6,180.8,108.2,180.8,111.7z"/>
	<path class="st0" d="M191.8,102.7h2.9v14.5h5v3.4h-7.9V102.7z"/>
	<path class="st0" d="M201.4,102.7h2.9v14.5h5v3.4h-7.9V102.7z"/>
	<path class="st0" d="M214.1,116l-0.9,4.6h-3l3.9-18h3.8l3.9,18h-3.1l-1-4.6H214.1z M217.3,113l-0.8-3.8c-0.2-1.1-0.5-2.4-0.6-3.5h0
		c-0.2,1.1-0.4,2.4-0.6,3.5l-0.8,3.8H217.3z"/>
	<path class="st0" d="M223.5,102.9c0.8-0.2,2.3-0.4,3.7-0.4c1.7,0,2.8,0.2,3.7,1c0.9,0.7,1.5,1.9,1.5,3.5c0,1.6-0.7,3.1-2.1,3.8v0.1
		c1.4,0.6,2.5,2.1,2.5,4.4c0,1.6-0.5,2.9-1.3,3.8c-0.9,1-2.5,1.6-5,1.6c-1.4,0-2.5-0.1-3.1-0.3V102.9z M226.3,109.8h0.9
		c1.5,0,2.3-0.9,2.3-2.2c0-1.4-0.7-2.1-2-2.1c-0.6,0-1,0.1-1.2,0.1V109.8z M226.3,117.7c0.3,0.1,0.6,0.1,1.1,0.1
		c1.3,0,2.4-0.7,2.4-2.6c0-1.8-1.1-2.5-2.6-2.5h-1V117.7z"/>
	<path class="st0" d="M246.4,111.5c0,5.9-2.5,9.5-6.2,9.5c-3.8,0-6-4-6-9.1c0-5.4,2.4-9.4,6.2-9.4
		C244.3,102.4,246.4,106.5,246.4,111.5z M237.3,111.7c0,3.5,1.2,6,3.1,6c1.9,0,3-2.6,3-6.1c0-3.2-1.1-6-3.1-6
		C238.4,105.6,237.3,108.2,237.3,111.7z"/>
	<path class="st0" d="M248.3,102.9c0.9-0.2,2.3-0.4,3.8-0.4c1.9,0,3.2,0.4,4.1,1.4c0.8,0.9,1.2,2.1,1.2,3.8c0,2.3-1.1,3.9-2.2,4.4
		v0.1c0.9,0.5,1.4,1.7,1.7,3.4c0.4,2,0.8,4.4,1,5.1h-2.9c-0.2-0.5-0.5-2-0.9-4.2c-0.3-2.2-0.9-2.9-2-2.9h-0.9v7.1h-2.8V102.9z
		 M251.1,110.6h1.1c1.4,0,2.3-1,2.3-2.6c0-1.7-0.8-2.5-2.1-2.5c-0.7,0-1.1,0.1-1.3,0.1V110.6z"/>
	<path class="st0" d="M262.6,116l-0.9,4.6h-3l3.9-18h3.8l3.9,18h-3.1l-1-4.6H262.6z M265.8,113l-0.8-3.8c-0.2-1.1-0.5-2.4-0.6-3.5h0
		c-0.2,1.1-0.4,2.4-0.6,3.5L263,113H265.8z"/>
	<path class="st0" d="M272.8,106.1h-3.4v-3.4h9.7v3.4h-3.5v14.5h-2.9V106.1z"/>
	<path class="st0" d="M283.6,102.7v18h-2.9v-18H283.6z"/>
	<path class="st0" d="M289,120.6l-4.1-18h3.1l1.5,7.6c0.4,2.1,0.8,4.2,1.1,6.4h0.1c0.3-2.2,0.7-4.3,1.1-6.3l1.6-7.7h3l-4.3,18H289z"
		/>
	<path class="st0" d="M305.5,113h-4.7v4.3h5.2v3.3H298v-18h7.8v3.3h-4.9v3.7h4.7V113z"/>
	<path class="st0" d="M319.4,113h-4.7v4.3h5.2v3.3h-8.1v-18h7.8v3.3h-4.9v3.7h4.7V113z"/>
	<path class="st0" d="M321.9,102.9c1.1-0.2,2.4-0.4,3.9-0.4c2.4,0,4,0.6,5.2,1.9c1.3,1.4,2.1,3.6,2.1,6.8c0,3.4-0.9,5.8-2.1,7.3
		c-1.3,1.6-3.4,2.3-5.8,2.3c-1.5,0-2.5-0.1-3.3-0.3V102.9z M324.7,117.6c0.2,0.1,0.6,0.1,1,0.1c2.6,0,4.3-2,4.3-6.3
		c0-3.7-1.5-5.7-4-5.7c-0.6,0-1.1,0.1-1.3,0.2V117.6z"/>
	<path class="st0" d="M337.8,102.7V113c0,3.1,0.8,4.7,2.3,4.7c1.5,0,2.3-1.5,2.3-4.7v-10.3h2.9v10.1c0,5.5-2,8.2-5.3,8.2
		c-3.2,0-5.1-2.5-5.1-8.2v-10H337.8z"/>
	<path class="st0" d="M357.1,120.1c-0.5,0.4-1.7,0.8-3.3,0.8c-4.4,0-6.6-3.9-6.6-9c0-6.1,3.1-9.5,6.9-9.5c1.5,0,2.6,0.4,3.1,0.8
		l-0.6,3.2c-0.6-0.3-1.4-0.7-2.4-0.7c-2.3,0-4,1.9-4,5.9c0,3.6,1.5,5.9,4.1,5.9c0.9,0,1.8-0.3,2.4-0.6L357.1,120.1z"/>
	<path class="st0" d="M362.1,116l-0.9,4.6h-3l3.9-18h3.8l3.9,18h-3.1l-1-4.6H362.1z M365.3,113l-0.8-3.8c-0.2-1.1-0.5-2.4-0.6-3.5h0
		c-0.2,1.1-0.4,2.4-0.6,3.5l-0.8,3.8H365.3z"/>
	<path class="st0" d="M372.4,106.1h-3.4v-3.4h9.7v3.4h-3.5v14.5h-2.9V106.1z"/>
	<path class="st0" d="M383.1,102.7v18h-2.9v-18H383.1z"/>
	<path class="st0" d="M397.2,111.5c0,5.9-2.5,9.5-6.2,9.5c-3.8,0-6-4-6-9.1c0-5.4,2.4-9.4,6.2-9.4
		C395,102.4,397.2,106.5,397.2,111.5z M388,111.7c0,3.5,1.2,6,3.1,6c1.9,0,3-2.6,3-6.1c0-3.2-1.1-6-3.1-6
		C389.1,105.6,388,108.2,388,111.7z"/>
	<path class="st0" d="M399,120.6v-18h3.3l2.6,6.6c0.8,1.9,1.5,4.1,2.1,6.2h0.1c-0.2-2.4-0.2-4.8-0.2-7.5v-5.2h2.6v18h-3l-2.7-6.9
		c-0.8-1.9-1.6-4.2-2.2-6.3l-0.1,0c0.1,2.4,0.1,4.9,0.1,7.8v5.4H399z"/>
	<path class="st0" d="M415.8,102.9c0.9-0.2,2.3-0.4,3.8-0.4c1.9,0,3.2,0.4,4.1,1.4c0.8,0.9,1.2,2.1,1.2,3.8c0,2.3-1.1,3.9-2.2,4.4
		v0.1c0.9,0.5,1.4,1.7,1.7,3.4c0.4,2,0.8,4.4,1,5.1h-2.9c-0.2-0.5-0.5-2-0.9-4.2c-0.3-2.2-0.9-2.9-2-2.9h-0.9v7.1h-2.8V102.9z
		 M418.6,110.6h1.1c1.4,0,2.3-1,2.3-2.6c0-1.7-0.8-2.5-2.1-2.5c-0.7,0-1.1,0.1-1.3,0.1V110.6z"/>
	<path class="st0" d="M434.5,113h-4.7v4.3h5.2v3.3H427v-18h7.8v3.3h-4.9v3.7h4.7V113z"/>
	<path class="st0" d="M437.1,116.4c0.8,0.6,2,1.1,3.2,1.1c1.3,0,2-0.8,2-1.9c0-1.1-0.6-1.8-2.1-2.5c-2.1-1-3.5-2.7-3.5-5.3
		c0-3.1,1.8-5.4,4.8-5.4c1.4,0,2.5,0.4,3.2,0.9l-0.6,3.3c-0.5-0.3-1.4-0.9-2.7-0.9c-1.2,0-1.8,0.8-1.8,1.7c0,1.1,0.7,1.7,2.3,2.5
		c2.2,1.2,3.3,2.8,3.3,5.4c0,3-1.6,5.6-5.1,5.6c-1.4,0-2.9-0.5-3.6-1.1L437.1,116.4z"/>
	<path class="st0" d="M454.7,113H450v4.3h5.2v3.3h-8.1v-18h7.8v3.3H450v3.7h4.7V113z"/>
	<path class="st0" d="M460.1,116l-0.9,4.6h-3l3.9-18h3.8l3.9,18h-3.1l-1-4.6H460.1z M463.3,113l-0.8-3.8c-0.2-1.1-0.5-2.4-0.6-3.5h0
		c-0.2,1.1-0.4,2.4-0.6,3.5l-0.8,3.8H463.3z"/>
	<path class="st0" d="M469.5,102.9c0.9-0.2,2.3-0.4,3.8-0.4c1.9,0,3.2,0.4,4.1,1.4c0.8,0.9,1.2,2.1,1.2,3.8c0,2.3-1.1,3.9-2.2,4.4
		v0.1c0.9,0.5,1.4,1.7,1.7,3.4c0.4,2,0.8,4.4,1,5.1h-2.9c-0.2-0.5-0.5-2-0.9-4.2c-0.3-2.2-0.9-2.9-2-2.9h-0.9v7.1h-2.8V102.9z
		 M472.3,110.6h1.1c1.4,0,2.3-1,2.3-2.6c0-1.7-0.8-2.5-2.1-2.5c-0.7,0-1.1,0.1-1.3,0.1V110.6z"/>
	<path class="st0" d="M489.9,120.1c-0.5,0.4-1.7,0.8-3.3,0.8c-4.4,0-6.6-3.9-6.6-9c0-6.1,3.1-9.5,6.9-9.5c1.5,0,2.6,0.4,3.1,0.8
		l-0.6,3.2c-0.6-0.3-1.4-0.7-2.4-0.7c-2.3,0-4,1.9-4,5.9c0,3.6,1.5,5.9,4.1,5.9c0.9,0,1.8-0.3,2.4-0.6L489.9,120.1z"/>
	<path class="st0" d="M494.6,102.7v6.9h4.7v-6.9h2.9v18h-2.9v-7.5h-4.7v7.5h-2.9v-18H494.6z"/>
</g>
<g>
	<path class="st0" d="M70.3,96.9V1.6H87l13.2,34.9c3.8,10,7.4,21.9,10.4,32.7h0.2c-0.8-12.6-1.1-25.5-1.1-39.9V1.6h13.2v95.3h-15.1
		L94.2,60.1c-3.8-10.3-8-22.5-11-33.7h-0.4c0.5,12.7,0.7,26.2,0.7,41.7v28.7H70.3z"/>
	<path class="st0" d="M173,56.6h-23.4v22.6h26.1v17.7h-40.4V1.6h39.1v17.7h-24.8V39H173V56.6z"/>
	<path class="st0" d="M197.9,19.7h-17.1V1.6h48.8v18.1h-17.3v77.2h-14.3V19.7z"/>
	<path class="st0" d="M250,96.9L235,1.6h15.3l4.8,39.2c1.4,11.5,2.7,23.8,3.8,33.5h0.2c1-10.5,2.5-21.9,4.1-33.8l5.4-38.9h15.3
		l5.1,40.2c1.4,11.2,2.4,21.4,3.4,32h0.2c0.9-10.6,2.4-21.8,3.7-33.2l5.2-38.9h14.6l-16.4,95.3H284l-5.4-41
		c-1.2-9.6-2.3-18.5-3-29.4h-0.2c-1.1,10.8-2.2,19.8-3.7,29.4l-6,41H250z"/>
	<path class="st0" d="M349.6,98.5c-18.7,0-29.8-21.4-29.8-48.5C319.7,21.4,332,0,350.6,0c19.5,0,30.1,21.9,30.1,48.2
		C380.7,79.6,368.2,98.5,349.6,98.5L349.6,98.5z M350.2,81.3c9.7,0,15.3-13.7,15.3-32.4c0-17.1-5.4-31.8-15.3-31.8
		c-9.9,0-15.4,14.4-15.4,32.3C334.8,67.3,340.5,81.3,350.2,81.3L350.2,81.3z"/>
	<path class="st0" d="M390.1,3c4.6-1.3,11.4-2.1,19.1-2.1c9.4,0,16,2.1,20.5,7.6c3.9,4.5,5.9,11.2,5.9,19.9c0,12-5.7,20.4-11.2,23.3
		v0.4c4.4,2.7,6.9,8.9,8.5,17.7c2,10.9,3.9,23.3,5.1,27h-14.7c-0.9-2.7-2.5-10.5-4.3-22.2c-1.8-12-4.5-15.1-10.5-15.3h-4.2v37.5
		h-14.2V3z M404.4,43.9h5.6c7.2,0,11.4-5.4,11.4-13.7c0-8.6-4-13.2-10.5-13.2c-3.5,0-5.5,0.3-6.5,0.7V43.9z"/>
	<path class="st0" d="M446,1.6h14.2v42.2h0.2c1.4-3.7,2.9-7.1,4.4-10.5l14.3-31.7h17.7l-21,40.6l22,54.7h-16.7l-15.6-41.2l-5.4,10
		v31.1H446V1.6z"/>
</g>
<g>
	<path class="st0" d="M6.4,14.1H0V7.3h18.2v6.8h-6.5v29.1H6.4V14.1z"/>
	<path class="st0" d="M26.4,7.3v13.8h8.8V7.3h5.3v35.9h-5.3v-15h-8.8v15H21V7.3H26.4z"/>
	<path class="st0" d="M59.2,28h-8.7v8.5h9.7v6.7h-15V7.3h14.6v6.7h-9.2v7.5h8.7V28z"/>
</g>
</svg>
