<?xml version="1.0" encoding="utf-8"?>
<!-- Generator: Adobe Illustrator 21.0.0, SVG Export Plug-In . SVG Version: 6.00 Build 0)  -->
<svg version="1.1" id="Layer_1" xmlns="http://www.w3.org/2000/svg" xmlns:xlink="http://www.w3.org/1999/xlink" x="0px" y="0px"
	 viewBox="0 0 1200.9 412.9" style="enable-background:new 0 0 1200.9 412.9;" xml:space="preserve">
<style type="text/css">
	.st0{fill:#00BABE;}
	.st1{fill:#FFFFFF;}
</style>
<g>
	<path class="st0" d="M159.3,225.8c1.5,0.9,2.6,2.1,3.3,3.5c0.7,1.4,0.6,3.1-0.4,5.1l-22.6,32.1c-1,1.5-2,2.4-3.1,2.6
		c-1.1,0.2-2.5-0.2-4.1-1.1c-4.4-3.3-9.2-5.8-14.4-7.6c-5.3-1.8-10.8-2.7-16.7-2.7c-7.3,0-14,1.4-20.2,4.1
		c-6.2,2.8-11.5,6.6-15.9,11.4c-4.5,4.8-7.9,10.4-10.4,16.9c-2.5,6.4-3.7,13.3-3.7,20.6c0,7.3,1.2,14.2,3.7,20.5
		c2.5,6.4,6,11.9,10.4,16.7c4.5,4.8,9.8,8.5,15.9,11.3c6.2,2.8,12.9,4.1,20.2,4.1c5.9,0,11.5-0.9,16.9-2.7
		c5.4-1.8,10.2-4.4,14.6-7.7c1.6-1,2.9-1.4,4-1.2s2.1,1,3.2,2.4l22.9,32.9c1,2,1.1,3.6,0.4,4.9c-0.7,1.3-1.8,2.5-3.3,3.3
		c-8.4,5.6-17.4,10-27.1,13c-9.7,3.1-19.9,4.6-30.6,4.6c-9.5,0-18.5-1.2-27.2-3.6s-16.8-5.8-24.4-10.3c-7.6-4.5-14.5-9.8-20.7-16
		c-6.2-6.2-11.5-13.1-16-20.6c-4.5-7.5-7.9-15.6-10.3-24.3C1.2,329.4,0,320.3,0,310.9c0-9.5,1.2-18.5,3.6-27.2
		c2.4-8.7,5.8-16.9,10.3-24.5c4.5-7.6,9.8-14.6,16-20.8c6.2-6.2,13.1-11.6,20.7-16s15.7-7.8,24.4-10.3c8.7-2.5,17.8-3.7,27.2-3.7
		c10.7,0,20.8,1.5,30.3,4.5C142,215.9,150.9,220.2,159.3,225.8z"/>
	<path class="st0" d="M176.3,310.9c0-9.5,1.2-18.5,3.6-27.2c2.4-8.7,5.8-16.9,10.3-24.5c4.5-7.6,9.8-14.6,16-20.8
		c6.2-6.2,13.1-11.6,20.7-16c7.6-4.4,15.7-7.8,24.4-10.3c8.7-2.5,17.8-3.7,27.2-3.7c9.4,0,18.4,1.2,27.2,3.7
		c8.7,2.5,16.9,5.9,24.5,10.3s14.5,9.7,20.7,16c6.2,6.2,11.6,13.2,16,20.8c4.4,7.6,7.8,15.8,10.3,24.5c2.5,8.7,3.7,17.8,3.7,27.2
		c0,9.5-1.2,18.5-3.7,27.2c-2.5,8.7-5.9,16.8-10.3,24.3c-4.4,7.5-9.7,14.4-16,20.6c-6.2,6.2-13.2,11.5-20.7,16
		c-7.6,4.5-15.7,7.9-24.5,10.3c-8.7,2.4-17.8,3.6-27.2,3.6c-9.5,0-18.5-1.2-27.2-3.6s-16.8-5.8-24.4-10.3c-7.6-4.5-14.5-9.8-20.7-16
		c-6.2-6.2-11.5-13.1-16-20.6c-4.5-7.5-7.9-15.6-10.3-24.3C177.5,329.4,176.3,320.3,176.3,310.9z M228,310.7
		c0,7.4,1.2,14.3,3.7,20.7c2.5,6.4,6,12,10.5,16.8c4.5,4.8,9.8,8.5,16,11.2c6.1,2.7,12.9,4.1,20.3,4.1c7.4,0,14.2-1.4,20.4-4.1
		c6.2-2.7,11.5-6.5,16-11.2c4.5-4.8,8-10.4,10.5-16.8c2.5-6.4,3.7-13.3,3.7-20.7c0-7.3-1.2-14.2-3.7-20.7c-2.5-6.5-6-12.1-10.5-16.9
		c-4.5-4.8-9.8-8.6-16-11.4c-6.2-2.8-13-4.1-20.4-4.1c-7.4,0-14.2,1.4-20.3,4.1c-6.1,2.8-11.5,6.6-16,11.4
		c-4.5,4.8-8,10.5-10.5,16.9C229.3,296.5,228,303.4,228,310.7z"/>
	<path class="st0" d="M430.2,345.8c1.5,1.2,3.5,2.9,5.8,5c2.4,2.1,5.1,4.2,8.1,6.2c4.5,3,9.1,5.4,13.5,7.1c4.5,1.7,9.1,2.5,14,2.5
		c4.5,0,8.4-0.5,11.4-1.5c3.1-1,5.5-2.4,7.3-4.1c1.8-1.7,3.1-3.7,3.8-5.9c0.8-2.2,1.1-4.6,1.1-7.1c0-2.8-1.1-5.2-3.1-7.4
		c-2.1-2.2-4.7-4.1-7.7-5.8c-3-1.7-6.2-3.1-9.5-4.3c-3.3-1.2-6.2-2.2-8.6-3c-10.7-3.7-20.1-7.8-28.1-12.1c-8-4.3-14.7-9.1-20.1-14.4
		c-5.4-5.3-9.4-11.1-12-17.5c-2.7-6.4-4-13.5-4-21.3c0-8.3,1.7-15.8,5-22.6c3.3-6.8,8.1-12.6,14.3-17.4c6.2-4.8,13.7-8.5,22.4-11.2
		c8.7-2.6,18.5-3.9,29.3-3.9c8.1,0,15.9,0.9,23.3,2.7c7.4,1.8,14.8,4.7,22,8.8c3,1.8,5.9,3.6,8.6,5.6c2.7,1.9,5.1,3.8,7.2,5.6
		c2,1.8,3.7,3.5,4.9,5.1c1.2,1.6,1.8,3,1.8,4.1s-0.3,2.2-0.9,3.2c-0.6,1-1.5,2.1-2.6,3.3l-20.5,21.8c-1.5,1.5-3,2.3-4.5,2.3
		c-1.2,0-2.4-0.4-3.4-1.1c-1-0.7-2.2-1.6-3.4-2.7l-1.2-1.1c-1.8-1.5-3.8-3.1-5.9-4.7c-2.2-1.6-4.5-3.1-7-4.3
		c-2.5-1.3-5.1-2.4-7.9-3.2c-2.8-0.8-5.6-1.3-8.4-1.3c-2.9,0-5.7,0.2-8.3,0.7s-4.9,1.3-6.8,2.3c-2,1.1-3.5,2.5-4.7,4.2
		c-1.2,1.7-1.7,3.9-1.7,6.4c0,2.5,0.6,4.7,1.9,6.5c1.2,1.8,3.1,3.5,5.6,5.1c2.5,1.6,5.6,3,9.3,4.4c3.7,1.4,8,2.9,12.9,4.5
		c9.5,3.1,18.2,6.4,26.1,9.8c8,3.4,14.9,7.5,20.7,12.2c5.8,4.7,10.3,10.3,13.6,16.8c3.3,6.5,4.9,14.4,4.9,23.7c0,9.8-2,18.7-6,26.7
		c-4,8-9.5,14.8-16.5,20.4c-7,5.6-15.2,10-24.7,13c-9.5,3.1-19.6,4.6-30.5,4.6c-10.3,0-20.3-1.8-30.2-5.5
		c-9.9-3.7-19.1-8.6-27.7-14.8c-3.6-2.6-6.6-5.1-9-7.6c-2.5-2.5-4.4-4.5-5.8-6l-0.4-0.4c-0.1-0.2-0.2-0.3-0.3-0.3
		c-0.1,0-0.2-0.1-0.3-0.2c-0.1-0.2-0.2-0.3-0.3-0.3s-0.2-0.1-0.3-0.2c-2.1-2.2-3.1-4-3.1-5.4c0-1.5,1-3.2,3.1-5.1l23.1-22.1
		c1.9-1.3,3.4-2,4.5-2c0.8,0,1.6,0.3,2.5,0.8C427.9,343.9,429,344.7,430.2,345.8z"/>
	<path class="st0" d="M591.8,217.2c0.2-1.6,0.8-3,1.9-4.1c1.1-1.2,2.6-1.7,4.5-1.7h46.3c3.3,0,5.4,1.7,6.4,5.1l36.4,121.4
		l36.6-121.4c1.2-3.4,3.5-5.1,6.8-5.1h45.7c1.6,0,3.1,0.6,4.3,1.7c1.3,1.1,2,2.5,2.2,4.2c3.1,31.4,6.3,62.5,9.6,93.4
		c3.2,30.9,6.4,62,9.6,93.4v0.7c0,3.5-2,5.2-5.9,5.2h-37.8c-4.1,0-6.2-2-6.4-5.9l-11.6-103.4l-30.1,104.1c-0.2,0.9-0.8,2-1.9,3.2
		c-1.1,1.2-2.2,1.9-3.3,1.9h-35.2c-1.1,0-2.2-0.6-3.4-1.8c-1.2-1.2-1.9-2.3-1.9-3.3L634.5,301l-11.6,103.1c-0.2,3.9-2.4,5.9-6.6,5.9
		h-37.8c-3.8,0-5.8-2-5.8-5.9L591.8,217.2z"/>
	<path class="st0" d="M1082.4,345.8c1.5,1.2,3.5,2.9,5.8,5c2.4,2.1,5.1,4.2,8.1,6.2c4.5,3,9.1,5.4,13.5,7.1s9.1,2.5,14,2.5
		c4.5,0,8.4-0.5,11.4-1.5c3.1-1,5.5-2.4,7.3-4.1c1.8-1.7,3.1-3.7,3.8-5.9c0.8-2.2,1.1-4.6,1.1-7.1c0-2.8-1.1-5.2-3.1-7.4
		c-2.1-2.2-4.7-4.1-7.7-5.8c-3-1.7-6.2-3.1-9.5-4.3c-3.3-1.2-6.2-2.2-8.6-3c-10.7-3.7-20.1-7.8-28.1-12.1c-8-4.3-14.7-9.1-20.1-14.4
		c-5.4-5.3-9.4-11.1-12-17.5c-2.7-6.4-4-13.5-4-21.3c0-8.3,1.7-15.8,5-22.6c3.3-6.8,8.1-12.6,14.3-17.4c6.2-4.8,13.7-8.5,22.4-11.2
		c8.7-2.6,18.5-3.9,29.3-3.9c8.1,0,15.9,0.9,23.3,2.7c7.4,1.8,14.8,4.7,22,8.8c3,1.8,5.9,3.6,8.6,5.6s5.1,3.8,7.2,5.6
		c2,1.8,3.7,3.5,4.9,5.1c1.2,1.6,1.8,3,1.8,4.1s-0.3,2.2-0.9,3.2c-0.6,1-1.5,2.1-2.6,3.3l-20.5,21.8c-1.5,1.5-3,2.3-4.5,2.3
		c-1.2,0-2.4-0.4-3.4-1.1s-2.2-1.6-3.4-2.7l-1.2-1.1c-1.8-1.5-3.8-3.1-5.9-4.7c-2.2-1.6-4.5-3.1-7-4.3c-2.5-1.3-5.1-2.4-7.9-3.2
		c-2.8-0.8-5.6-1.3-8.4-1.3c-2.9,0-5.7,0.2-8.3,0.7s-4.9,1.3-6.8,2.3c-2,1.1-3.5,2.5-4.7,4.2c-1.2,1.7-1.7,3.9-1.7,6.4
		c0,2.5,0.6,4.7,1.9,6.5c1.2,1.8,3.1,3.5,5.6,5.1c2.5,1.6,5.6,3,9.3,4.4c3.7,1.4,8,2.9,12.9,4.5c9.5,3.1,18.2,6.4,26.1,9.8
		c8,3.4,14.9,7.5,20.7,12.2c5.8,4.7,10.3,10.3,13.6,16.8c3.3,6.5,4.9,14.4,4.9,23.7c0,9.8-2,18.7-6,26.7c-4,8-9.5,14.8-16.5,20.4
		c-7,5.6-15.2,10-24.7,13c-9.5,3.1-19.6,4.6-30.5,4.6c-10.3,0-20.3-1.8-30.2-5.5c-9.9-3.7-19.1-8.6-27.7-14.8
		c-3.6-2.6-6.6-5.1-9-7.6c-2.5-2.5-4.4-4.5-5.8-6l-0.4-0.4c-0.1-0.2-0.2-0.3-0.3-0.3c-0.1,0-0.2-0.1-0.3-0.2
		c-0.1-0.2-0.2-0.3-0.3-0.3c-0.1,0-0.2-0.1-0.3-0.2c-2.1-2.2-3.1-4-3.1-5.4c0-1.5,1-3.2,3.1-5.1l23.1-22.1c1.9-1.3,3.4-2,4.5-2
		c0.8,0,1.6,0.3,2.5,0.8C1080,343.9,1081.1,344.7,1082.4,345.8z"/>
</g>
<g>
	<path class="st0" d="M68.1,4.7c0.1-0.5,0.3-1,0.8-1.5c0.4-0.5,0.9-1,1.6-1.5c0.6-0.5,1.3-0.8,2-1.1c0.7-0.3,1.3-0.4,2-0.4H104
		c1.3,0,2.4,0.4,3.4,1.2s1.6,1.5,2.1,2.1l2.9,6.6L173,166.8c0.6,1.5,0.5,2.8-0.3,3.8c-0.8,1-2.3,1.4-4.4,1.4h-33.2
		c-1.8,0-3.1-0.3-4.1-1c-1-0.7-1.7-1.8-2.3-3.3c-1.5-3.9-3-7.8-4.5-11.7c-1.5-3.9-2.9-7.8-4.4-11.7H58.4c-1.5,3.9-3,7.8-4.5,11.7
		c-1.5,3.9-3,7.8-4.5,11.7c-1,2.9-3,4.3-5.9,4.3H9.4c-1.5,0-2.7-0.4-3.6-1.2c-1-0.8-1.1-1.9-0.5-3.5L68.1,4.7z M89.1,54.3
		c-1.5,3.9-3,8.2-4.5,12.7c-1.5,4.6-3,9.1-4.5,13.8c-1.5,4.6-3,9.2-4.5,13.7c-1.5,4.5-3,8.7-4.5,12.7h35.5L89.1,54.3z"/>
	<path class="st0" d="M157.8,5.3c0-1.5,0.5-2.8,1.6-3.7c1-0.9,2.3-1.4,3.9-1.4h124.5c1.4,0,2.6,0.4,3.7,1.3c1.1,0.8,1.7,2.1,1.9,3.8
		V34c0,1.4-0.5,2.7-1.4,4c-1,1.3-2.3,1.9-4.1,1.9h-39.9v126.7c0,1.4-0.5,2.6-1.5,3.8c-1,1.1-2.3,1.7-3.9,1.7h-33.9
		c-1.3,0-2.5-0.5-3.7-1.6c-1.2-1-1.7-2.3-1.7-3.9V39.9h-39.8c-1.5,0-2.8-0.5-3.9-1.5c-1-1-1.6-2.5-1.6-4.4V5.3z"/>
	<path class="st0" d="M391.6,5.6c0-1.6,0.4-2.9,1.3-3.9c0.8-1,2.1-1.4,3.8-1.4h73.9c5.3,0,10.3,0.7,15,2.2c4.7,1.5,9,3.5,13,6.1
		c3.9,2.6,7.5,5.7,10.6,9.3c3.2,3.6,5.8,7.5,8,11.6c2.2,4.2,3.9,8.5,5,13.1c1.2,4.6,1.7,9.2,1.7,13.9c0,6.9-1.3,13.7-3.8,20.4
		c-2.5,6.6-6.1,12.5-10.7,17.7c-4.6,5.2-10.2,9.4-16.7,12.6c-6.5,3.2-13.7,4.8-21.5,4.9h-35.1v55.1c0,3.3-1.8,5-5.3,5h-34.4
		c-1.5,0-2.8-0.4-3.7-1.2c-0.9-0.8-1.4-2.1-1.4-3.8V5.6z M478.7,56.2c0-2.3-0.4-4.6-1.2-6.9c-0.8-2.3-2-4.4-3.5-6.2
		c-1.5-1.8-3.4-3.3-5.6-4.5c-2.2-1.2-4.7-1.7-7.5-1.7h-24.5v38.6h24.5c2.8,0,5.3-0.6,7.5-1.7c2.2-1.1,4.1-2.6,5.6-4.3
		c1.5-1.8,2.7-3.8,3.5-6.1C478.3,61.1,478.7,58.7,478.7,56.2z"/>
	<path class="st0" d="M545.1,5.2c0-1.4,0.5-2.6,1.4-3.6c0.9-1,2.2-1.5,3.8-1.5h34.3c1.3,0,2.5,0.5,3.6,1.4c1.1,0.9,1.7,2.2,1.7,3.7
		v125.9h63.6c1.4,0,2.6,0.5,3.6,1.4c1,0.9,1.5,2.2,1.5,3.8v30.4c0,1.3-0.4,2.5-1.3,3.6c-0.9,1.1-2.1,1.7-3.8,1.7H550.2
		c-3.4,0-5.1-1.7-5.1-5.1V5.2z"/>
	<path class="st0" d="M741.7,4.7c0.1-0.5,0.3-1,0.8-1.5c0.4-0.5,0.9-1,1.6-1.5c0.6-0.5,1.3-0.8,2-1.1c0.7-0.3,1.3-0.4,2-0.4h29.6
		c1.3,0,2.4,0.4,3.4,1.2c0.9,0.8,1.6,1.5,2.1,2.1l2.9,6.6l60.7,156.7c0.6,1.5,0.5,2.8-0.3,3.8c-0.8,1-2.3,1.4-4.4,1.4h-33.2
		c-1.8,0-3.1-0.3-4.1-1c-1-0.7-1.7-1.8-2.3-3.3c-1.5-3.9-3-7.8-4.5-11.7s-2.9-7.8-4.4-11.7H732c-1.5,3.9-3,7.8-4.5,11.7
		c-1.5,3.9-3,7.8-4.5,11.7c-1,2.9-3,4.3-5.9,4.3h-34.1c-1.5,0-2.7-0.4-3.6-1.2c-1-0.8-1.1-1.9-0.5-3.5L741.7,4.7z M762.8,54.3
		c-1.5,3.9-3,8.2-4.5,12.7c-1.5,4.6-3,9.1-4.5,13.8c-1.5,4.6-3,9.2-4.5,13.7c-1.5,4.5-3,8.7-4.5,12.7h35.5L762.8,54.3z"/>
	<path class="st0" d="M903.8,63.6l27.9-59.8c0.5-0.9,0.8-1.6,1.2-2c0.3-0.4,0.6-0.7,0.9-0.9c0.3-0.2,0.6-0.3,1-0.3s0.8-0.1,1.2-0.3
		h44.5c0.5,0,1,0.2,1.3,0.5s0.5,0.8,0.5,1.2c0,0.8-0.5,1.8-1.6,2.9l-54.8,97.1v64.7c0,3.6-1.8,5.4-5.3,5.4H886
		c-1.5,0-2.7-0.5-3.6-1.4c-0.8-1-1.3-2.3-1.3-4v-64.9L826.4,4.9c-1-1-1.5-2-1.5-2.9c0-0.5,0.2-0.9,0.5-1.2c0.3-0.3,0.7-0.5,1.3-0.5
		h44.5c0.5,0.2,1,0.3,1.3,0.3c0.3,0,0.6,0.2,0.9,0.3c0.3,0.2,0.6,0.5,0.9,0.9c0.3,0.4,0.7,1.1,1.3,2L903.8,63.6z"/>
</g>
<g>
	<path class="st1" d="M1011.3,1.9c0-0.5,0.2-1,0.5-1.4c0.3-0.4,0.8-0.6,1.5-0.6h13c0.4,0,0.9,0.2,1.4,0.5c0.5,0.4,0.8,0.8,0.8,1.4
		v61.8c0,1.3-0.7,1.9-2.2,1.9h-13c-1.3,0-1.9-0.6-1.9-1.9V1.9z"/>
	<path class="st1" d="M1042.9,1.9c0-0.5,0.2-1,0.5-1.4c0.3-0.4,0.8-0.6,1.5-0.6h14.5c0.4,0,0.8,0.1,1.3,0.3c0.4,0.2,0.8,0.6,1.1,1.1
		c3.7,6.1,7.5,12,11.2,17.9c3.7,5.9,7.4,11.8,11.2,17.9V1.7c0.1-0.5,0.4-0.9,0.7-1.2s0.8-0.4,1.2-0.4h12.6c0.6,0,1.1,0.2,1.6,0.5
		c0.4,0.3,0.6,0.8,0.6,1.4V64c0,0.6-0.2,1-0.5,1.3c-0.4,0.3-0.8,0.4-1.5,0.4h-14.1c-0.4,0-0.7-0.1-1-0.4c-0.3-0.3-0.6-0.6-0.9-1.1
		c-3.9-6.5-7.8-12.9-11.6-19.3c-3.8-6.3-7.7-12.8-11.7-19.3v38c0,0.6-0.1,1.1-0.4,1.5c-0.3,0.3-0.8,0.5-1.6,0.5h-12.6
		c-0.7,0-1.2-0.2-1.5-0.6c-0.3-0.4-0.5-0.8-0.5-1.4V1.9z"/>
	<path class="st1" d="M1007.5,108.2c0-0.6,0.2-1.1,0.6-1.4c0.4-0.4,0.9-0.5,1.5-0.5h47.6c0.5,0,1,0.2,1.4,0.5
		c0.4,0.3,0.6,0.8,0.7,1.5v11c0,0.5-0.2,1-0.6,1.5c-0.4,0.5-0.9,0.7-1.6,0.7H1042v48.5c0,0.5-0.2,1-0.6,1.4
		c-0.4,0.4-0.9,0.6-1.5,0.6h-13c-0.5,0-1-0.2-1.4-0.6c-0.4-0.4-0.7-0.9-0.7-1.5v-48.5h-15.2c-0.6,0-1.1-0.2-1.5-0.6
		c-0.4-0.4-0.6-0.9-0.6-1.7V108.2z"/>
	<path class="st1" d="M1070.3,108.2c0-0.5,0.2-1,0.6-1.4c0.3-0.4,0.8-0.6,1.4-0.6h13.1c0.4,0,0.9,0.2,1.4,0.6
		c0.5,0.4,0.7,0.8,0.7,1.4v21h22v-21c0-0.5,0.2-1,0.5-1.4c0.4-0.4,0.8-0.6,1.4-0.6h12.9c0.6,0,1.1,0.1,1.5,0.4
		c0.4,0.3,0.7,0.8,0.7,1.4V170c0,0.6-0.2,1.1-0.6,1.5c-0.4,0.3-0.9,0.5-1.5,0.5h-13.1c-0.6,0-1.1-0.2-1.4-0.5
		c-0.4-0.3-0.5-0.8-0.5-1.5v-25.1h-22V170c0,0.6-0.2,1.1-0.6,1.4c-0.4,0.3-0.9,0.5-1.6,0.5h-13c-1.2,0-1.9-0.6-1.9-1.7V108.2z"/>
	<path class="st1" d="M1141,108.3c0-0.6,0.2-1.1,0.5-1.5c0.3-0.4,0.8-0.6,1.4-0.6h43.9c0.6,0,1.2,0.2,1.5,0.6
		c0.4,0.4,0.5,0.9,0.5,1.5v10.9c0,0.5-0.2,1-0.5,1.4c-0.4,0.5-0.9,0.7-1.6,0.7h-28.7v11h22.1c0.6,0,1,0.1,1.4,0.4
		c0.4,0.3,0.6,0.7,0.6,1.3v9.6c0,0.4-0.2,0.8-0.5,1.2c-0.3,0.4-0.8,0.6-1.4,0.6h-22.2v11.3h29.7c1.3,0,2,0.7,2,2v11.1
		c0,0.3-0.1,0.6-0.4,0.8c-0.1,0.8-0.7,1.2-1.8,1.2h-44.8c-0.6,0-1.1-0.2-1.4-0.5c-0.4-0.3-0.5-0.8-0.5-1.4V108.3z"/>
</g>
<path class="st0" d="M828.4,310.9c0-9.5,1.2-18.5,3.6-27.2c2.4-8.7,5.8-16.8,10.3-24.5c4.5-7.6,9.8-14.6,16-20.8s13.1-11.6,20.7-16
	c7.6-4.4,15.7-7.8,24.4-10.3c8.7-2.5,17.8-3.7,27.2-3.7c9.4,0,18.4,1.2,27.2,3.7c8.7,2.5,16.9,5.9,24.5,10.3
	c7.6,4.4,14.5,9.7,20.8,16c6.2,6.2,11.6,13.2,16,20.8c4.4,7.6,7.8,15.8,10.3,24.5c2.5,8.7,3.7,17.8,3.7,27.2
	c0,9.5-1.2,18.5-3.7,27.2c-2.5,8.7-5.9,16.8-10.3,24.3c-4.4,7.5-9.8,14.4-16,20.6c-6.2,6.2-13.2,11.5-20.8,16
	c-7.6,4.5-15.7,7.9-24.5,10.3c-8.7,2.4-17.8,3.6-27.2,3.6c-9.5,0-18.5-1.2-27.2-3.6c-8.7-2.4-16.8-5.8-24.4-10.3
	c-7.6-4.5-14.5-9.8-20.7-16c-6.2-6.2-11.5-13.1-16-20.6c-4.5-7.5-7.9-15.6-10.3-24.3C829.6,329.4,828.4,320.3,828.4,310.9z
	 M880.1,310.7c0,7.4,1.2,14.3,3.7,20.7c2.5,6.4,6,12,10.5,16.8c4.5,4.8,9.8,8.5,16,11.2s12.9,4.1,20.3,4.1c7.4,0,14.2-1.4,20.4-4.1
	c6.2-2.7,11.5-6.5,16-11.2c4.5-4.8,8-10.4,10.5-16.8c2.5-6.4,3.7-13.3,3.7-20.7c0-7.3-1.2-14.2-3.7-20.7c-2.5-6.5-6-12.1-10.5-16.9
	c-4.5-4.8-9.8-8.6-16-11.4c-6.2-2.8-13-4.2-20.4-4.2c-7.4,0-14.2,1.4-20.3,4.2c-6.1,2.8-11.5,6.5-16,11.4c-4.5,4.8-8,10.5-10.5,16.9
	C881.4,296.5,880.1,303.4,880.1,310.7z"/>
</svg>
