<?xml version="1.0" encoding="utf-8"?>
<!-- Generator: Adobe Illustrator 21.0.0, SVG Export Plug-In . SVG Version: 6.00 Build 0)  -->
<svg version="1.1" id="Layer_1" xmlns="http://www.w3.org/2000/svg" xmlns:xlink="http://www.w3.org/1999/xlink" x="0px" y="0px"
	 viewBox="0 0 1200.9 559.9" style="enable-background:new 0 0 1200.9 559.9;" xml:space="preserve">
<style type="text/css">
	.st0{fill:#00BABE;}
	.st1{fill:#FFFFFF;}
</style>
<g>
	<path class="st0" d="M159.3,225.9c1.5,0.9,2.6,2.1,3.3,3.5s0.6,3.1-0.4,5.1l-22.6,32.1c-1,1.5-2,2.4-3.1,2.6s-2.5-0.2-4.1-1.1
		c-4.4-3.3-9.2-5.8-14.4-7.6c-5.3-1.8-10.8-2.7-16.7-2.7c-7.3,0-14,1.4-20.2,4.1c-6.2,2.8-11.5,6.6-15.9,11.4
		c-4.5,4.8-7.9,10.4-10.4,16.9c-2.5,6.4-3.7,13.3-3.7,20.6c0,7.3,1.2,14.2,3.7,20.5c2.5,6.4,6,11.9,10.4,16.7
		c4.5,4.8,9.8,8.5,15.9,11.3c6.2,2.8,12.9,4.1,20.2,4.1c5.9,0,11.5-0.9,16.9-2.7c5.4-1.8,10.2-4.4,14.6-7.7c1.6-1,2.9-1.4,4-1.2
		s2.1,1,3.2,2.4l22.9,32.9c1,2,1.1,3.6,0.4,4.9c-0.7,1.3-1.8,2.5-3.3,3.3c-8.4,5.6-17.4,10-27.1,13c-9.7,3.1-19.9,4.6-30.6,4.6
		c-9.5,0-18.5-1.2-27.2-3.6s-16.8-5.8-24.4-10.3s-14.5-9.8-20.7-16s-11.5-13.1-16-20.6s-7.9-15.6-10.3-24.3C1.2,329.5,0,320.4,0,311
		c0-9.5,1.2-18.5,3.6-27.2s5.8-16.9,10.3-24.5s9.8-14.6,16-20.8s13.1-11.6,20.7-16s15.7-7.8,24.4-10.3s17.8-3.7,27.2-3.7
		c10.7,0,20.8,1.5,30.3,4.5C142,216,150.9,220.3,159.3,225.9z"/>
	<path class="st0" d="M176.3,311c0-9.5,1.2-18.5,3.6-27.2c2.4-8.7,5.8-16.9,10.3-24.5s9.8-14.6,16-20.8s13.1-11.6,20.7-16
		c7.6-4.4,15.7-7.8,24.4-10.3s17.8-3.7,27.2-3.7s18.4,1.2,27.2,3.7c8.7,2.5,16.9,5.9,24.5,10.3s14.5,9.7,20.7,16
		c6.2,6.2,11.6,13.2,16,20.8s7.8,15.8,10.3,24.5s3.7,17.8,3.7,27.2c0,9.5-1.2,18.5-3.7,27.2s-5.9,16.8-10.3,24.3s-9.7,14.4-16,20.6
		c-6.2,6.2-13.2,11.5-20.7,16c-7.6,4.5-15.7,7.9-24.5,10.3c-8.7,2.4-17.8,3.6-27.2,3.6c-9.5,0-18.5-1.2-27.2-3.6
		s-16.8-5.8-24.4-10.3c-7.6-4.5-14.5-9.8-20.7-16s-11.5-13.1-16-20.6s-7.9-15.6-10.3-24.3C177.5,329.5,176.3,320.4,176.3,311z
		 M228,310.8c0,7.4,1.2,14.3,3.7,20.7c2.5,6.4,6,12,10.5,16.8s9.8,8.5,16,11.2c6.1,2.7,12.9,4.1,20.3,4.1s14.2-1.4,20.4-4.1
		c6.2-2.7,11.5-6.5,16-11.2c4.5-4.8,8-10.4,10.5-16.8s3.7-13.3,3.7-20.7c0-7.3-1.2-14.2-3.7-20.7s-6-12.1-10.5-16.9
		s-9.8-8.6-16-11.4s-13-4.1-20.4-4.1s-14.2,1.4-20.3,4.1c-6.1,2.8-11.5,6.6-16,11.4s-8,10.5-10.5,16.9
		C229.3,296.6,228,303.5,228,310.8z"/>
	<path class="st0" d="M430.2,345.9c1.5,1.2,3.5,2.9,5.8,5c2.4,2.1,5.1,4.2,8.1,6.2c4.5,3,9.1,5.4,13.5,7.1c4.5,1.7,9.1,2.5,14,2.5
		c4.5,0,8.4-0.5,11.4-1.5c3.1-1,5.5-2.4,7.3-4.1s3.1-3.7,3.8-5.9c0.8-2.2,1.1-4.6,1.1-7.1c0-2.8-1.1-5.2-3.1-7.4
		c-2.1-2.2-4.7-4.1-7.7-5.8c-3-1.7-6.2-3.1-9.5-4.3c-3.3-1.2-6.2-2.2-8.6-3c-10.7-3.7-20.1-7.8-28.1-12.1c-8-4.3-14.7-9.1-20.1-14.4
		s-9.4-11.1-12-17.5c-2.7-6.4-4-13.5-4-21.3c0-8.3,1.7-15.8,5-22.6s8.1-12.6,14.3-17.4c6.2-4.8,13.7-8.5,22.4-11.2
		c8.7-2.6,18.5-3.9,29.3-3.9c8.1,0,15.9,0.9,23.3,2.7s14.8,4.7,22,8.8c3,1.8,5.9,3.6,8.6,5.6c2.7,1.9,5.1,3.8,7.2,5.6
		c2,1.8,3.7,3.5,4.9,5.1s1.8,3,1.8,4.1s-0.3,2.2-0.9,3.2c-0.6,1-1.5,2.1-2.6,3.3l-20.5,21.8c-1.5,1.5-3,2.3-4.5,2.3
		c-1.2,0-2.4-0.4-3.4-1.1s-2.2-1.6-3.4-2.7l-1.2-1.1c-1.8-1.5-3.8-3.1-5.9-4.7c-2.2-1.6-4.5-3.1-7-4.3c-2.5-1.3-5.1-2.4-7.9-3.2
		s-5.6-1.3-8.4-1.3c-2.9,0-5.7,0.2-8.3,0.7s-4.9,1.3-6.8,2.3c-2,1.1-3.5,2.5-4.7,4.2s-1.7,3.9-1.7,6.4s0.6,4.7,1.9,6.5
		c1.2,1.8,3.1,3.5,5.6,5.1s5.6,3,9.3,4.4c3.7,1.4,8,2.9,12.9,4.5c9.5,3.1,18.2,6.4,26.1,9.8c8,3.4,14.9,7.5,20.7,12.2
		s10.3,10.3,13.6,16.8s4.9,14.4,4.9,23.7c0,9.8-2,18.7-6,26.7s-9.5,14.8-16.5,20.4s-15.2,10-24.7,13c-9.5,3.1-19.6,4.6-30.5,4.6
		c-10.3,0-20.3-1.8-30.2-5.5c-9.9-3.7-19.1-8.6-27.7-14.8c-3.6-2.6-6.6-5.1-9-7.6c-2.5-2.5-4.4-4.5-5.8-6l-0.4-0.4
		c-0.1-0.2-0.2-0.3-0.3-0.3c-0.1,0-0.2-0.1-0.3-0.2c-0.1-0.2-0.2-0.3-0.3-0.3s-0.2-0.1-0.3-0.2c-2.1-2.2-3.1-4-3.1-5.4
		c0-1.5,1-3.2,3.1-5.1l23.1-22.1c1.9-1.3,3.4-2,4.5-2c0.8,0,1.6,0.3,2.5,0.8C427.9,344,429,344.8,430.2,345.9z"/>
	<path class="st0" d="M591.8,217.3c0.2-1.6,0.8-3,1.9-4.1c1.1-1.2,2.6-1.7,4.5-1.7h46.3c3.3,0,5.4,1.7,6.4,5.1L687.3,338l36.6-121.4
		c1.2-3.4,3.5-5.1,6.8-5.1h45.7c1.6,0,3.1,0.6,4.3,1.7c1.3,1.1,2,2.5,2.2,4.2c3.1,31.4,6.3,62.5,9.6,93.4c3.2,30.9,6.4,62,9.6,93.4
		v0.7c0,3.5-2,5.2-5.9,5.2h-37.8c-4.1,0-6.2-2-6.4-5.9l-11.6-103.4l-30.1,104.1c-0.2,0.9-0.8,2-1.9,3.2c-1.1,1.2-2.2,1.9-3.3,1.9
		h-35.2c-1.1,0-2.2-0.6-3.4-1.8c-1.2-1.2-1.9-2.3-1.9-3.3l-30.1-103.8l-11.6,103.1c-0.2,3.9-2.4,5.9-6.6,5.9h-37.8
		c-3.8,0-5.8-2-5.8-5.9L591.8,217.3z"/>
	<path class="st0" d="M1082.4,345.9c1.5,1.2,3.5,2.9,5.8,5c2.4,2.1,5.1,4.2,8.1,6.2c4.5,3,9.1,5.4,13.5,7.1s9.1,2.5,14,2.5
		c4.5,0,8.4-0.5,11.4-1.5c3.1-1,5.5-2.4,7.3-4.1s3.1-3.7,3.8-5.9c0.8-2.2,1.1-4.6,1.1-7.1c0-2.8-1.1-5.2-3.1-7.4
		c-2.1-2.2-4.7-4.1-7.7-5.8c-3-1.7-6.2-3.1-9.5-4.3c-3.3-1.2-6.2-2.2-8.6-3c-10.7-3.7-20.1-7.8-28.1-12.1c-8-4.3-14.7-9.1-20.1-14.4
		s-9.4-11.1-12-17.5c-2.7-6.4-4-13.5-4-21.3c0-8.3,1.7-15.8,5-22.6s8.1-12.6,14.3-17.4c6.2-4.8,13.7-8.5,22.4-11.2
		c8.7-2.6,18.5-3.9,29.3-3.9c8.1,0,15.9,0.9,23.3,2.7s14.8,4.7,22,8.8c3,1.8,5.9,3.6,8.6,5.6s5.1,3.8,7.2,5.6c2,1.8,3.7,3.5,4.9,5.1
		c1.2,1.6,1.8,3,1.8,4.1s-0.3,2.2-0.9,3.2s-1.5,2.1-2.6,3.3l-20.5,21.8c-1.5,1.5-3,2.3-4.5,2.3c-1.2,0-2.4-0.4-3.4-1.1
		s-2.2-1.6-3.4-2.7l-1.2-1.1c-1.8-1.5-3.8-3.1-5.9-4.7c-2.2-1.6-4.5-3.1-7-4.3c-2.5-1.3-5.1-2.4-7.9-3.2s-5.6-1.3-8.4-1.3
		c-2.9,0-5.7,0.2-8.3,0.7s-4.9,1.3-6.8,2.3c-2,1.1-3.5,2.5-4.7,4.2s-1.7,3.9-1.7,6.4s0.6,4.7,1.9,6.5c1.2,1.8,3.1,3.5,5.6,5.1
		s5.6,3,9.3,4.4c3.7,1.4,8,2.9,12.9,4.5c9.5,3.1,18.2,6.4,26.1,9.8c8,3.4,14.9,7.5,20.7,12.2c5.8,4.7,10.3,10.3,13.6,16.8
		c3.3,6.5,4.9,14.4,4.9,23.7c0,9.8-2,18.7-6,26.7s-9.5,14.8-16.5,20.4s-15.2,10-24.7,13c-9.5,3.1-19.6,4.6-30.5,4.6
		c-10.3,0-20.3-1.8-30.2-5.5c-9.9-3.7-19.1-8.6-27.7-14.8c-3.6-2.6-6.6-5.1-9-7.6c-2.5-2.5-4.4-4.5-5.8-6l-0.4-0.4
		c-0.1-0.2-0.2-0.3-0.3-0.3c-0.1,0-0.2-0.1-0.3-0.2c-0.1-0.2-0.2-0.3-0.3-0.3c-0.1,0-0.2-0.1-0.3-0.2c-2.1-2.2-3.1-4-3.1-5.4
		c0-1.5,1-3.2,3.1-5.1l23.1-22.1c1.9-1.3,3.4-2,4.5-2c0.8,0,1.6,0.3,2.5,0.8C1080,344,1081.1,344.8,1082.4,345.9z"/>
</g>
<g>
	<path class="st0" d="M68.1,4.8c0.1-0.5,0.3-1,0.8-1.5c0.4-0.5,0.9-1,1.6-1.5c0.6-0.5,1.3-0.8,2-1.1s1.3-0.4,2-0.4H104
		c1.3,0,2.4,0.4,3.4,1.2s1.6,1.5,2.1,2.1l2.9,6.6L173,166.9c0.6,1.5,0.5,2.8-0.3,3.8s-2.3,1.4-4.4,1.4h-33.2c-1.8,0-3.1-0.3-4.1-1
		s-1.7-1.8-2.3-3.3c-1.5-3.9-3-7.8-4.5-11.7s-2.9-7.8-4.4-11.7H58.4c-1.5,3.9-3,7.8-4.5,11.7s-3,7.8-4.5,11.7c-1,2.9-3,4.3-5.9,4.3
		H9.4c-1.5,0-2.7-0.4-3.6-1.2c-1-0.8-1.1-1.9-0.5-3.5L68.1,4.8z M89.1,54.4c-1.5,3.9-3,8.2-4.5,12.7c-1.5,4.6-3,9.1-4.5,13.8
		c-1.5,4.6-3,9.2-4.5,13.7s-3,8.7-4.5,12.7h35.5L89.1,54.4z"/>
	<path class="st0" d="M157.8,5.4c0-1.5,0.5-2.8,1.6-3.7c1-0.9,2.3-1.4,3.9-1.4h124.5c1.4,0,2.6,0.4,3.7,1.3c1.1,0.8,1.7,2.1,1.9,3.8
		v28.7c0,1.4-0.5,2.7-1.4,4c-1,1.3-2.3,1.9-4.1,1.9H248v126.7c0,1.4-0.5,2.6-1.5,3.8c-1,1.1-2.3,1.7-3.9,1.7h-33.9
		c-1.3,0-2.5-0.5-3.7-1.6c-1.2-1-1.7-2.3-1.7-3.9V40h-39.8c-1.5,0-2.8-0.5-3.9-1.5c-1-1-1.6-2.5-1.6-4.4V5.4H157.8z"/>
	<path class="st0" d="M391.6,5.7c0-1.6,0.4-2.9,1.3-3.9c0.8-1,2.1-1.4,3.8-1.4h73.9c5.3,0,10.3,0.7,15,2.2s9,3.5,13,6.1
		c3.9,2.6,7.5,5.7,10.6,9.3c3.2,3.6,5.8,7.5,8,11.6c2.2,4.2,3.9,8.5,5,13.1c1.2,4.6,1.7,9.2,1.7,13.9c0,6.9-1.3,13.7-3.8,20.4
		c-2.5,6.6-6.1,12.5-10.7,17.7c-4.6,5.2-10.2,9.4-16.7,12.6s-13.7,4.8-21.5,4.9h-35.1v55.1c0,3.3-1.8,5-5.3,5h-34.4
		c-1.5,0-2.8-0.4-3.7-1.2c-0.9-0.8-1.4-2.1-1.4-3.8V5.7H391.6z M478.7,56.3c0-2.3-0.4-4.6-1.2-6.9c-0.8-2.3-2-4.4-3.5-6.2
		s-3.4-3.3-5.6-4.5s-4.7-1.7-7.5-1.7h-24.5v38.6h24.5c2.8,0,5.3-0.6,7.5-1.7s4.1-2.6,5.6-4.3c1.5-1.8,2.7-3.8,3.5-6.1
		C478.3,61.2,478.7,58.8,478.7,56.3z"/>
	<path class="st0" d="M545.1,5.3c0-1.4,0.5-2.6,1.4-3.6s2.2-1.5,3.8-1.5h34.3c1.3,0,2.5,0.5,3.6,1.4s1.7,2.2,1.7,3.7v125.9h63.6
		c1.4,0,2.6,0.5,3.6,1.4s1.5,2.2,1.5,3.8v30.4c0,1.3-0.4,2.5-1.3,3.6c-0.9,1.1-2.1,1.7-3.8,1.7H550.2c-3.4,0-5.1-1.7-5.1-5.1
		L545.1,5.3L545.1,5.3z"/>
	<path class="st0" d="M741.7,4.8c0.1-0.5,0.3-1,0.8-1.5c0.4-0.5,0.9-1,1.6-1.5c0.6-0.5,1.3-0.8,2-1.1s1.3-0.4,2-0.4h29.6
		c1.3,0,2.4,0.4,3.4,1.2c0.9,0.8,1.6,1.5,2.1,2.1l2.9,6.6l60.7,156.7c0.6,1.5,0.5,2.8-0.3,3.8s-2.3,1.4-4.4,1.4h-33.2
		c-1.8,0-3.1-0.3-4.1-1s-1.7-1.8-2.3-3.3c-1.5-3.9-3-7.8-4.5-11.7s-2.9-7.8-4.4-11.7H732c-1.5,3.9-3,7.8-4.5,11.7s-3,7.8-4.5,11.7
		c-1,2.9-3,4.3-5.9,4.3H683c-1.5,0-2.7-0.4-3.6-1.2c-1-0.8-1.1-1.9-0.5-3.5L741.7,4.8z M762.8,54.4c-1.5,3.9-3,8.2-4.5,12.7
		c-1.5,4.6-3,9.1-4.5,13.8c-1.5,4.6-3,9.2-4.5,13.7s-3,8.7-4.5,12.7h35.5L762.8,54.4z"/>
	<path class="st0" d="M903.8,63.7l27.9-59.8c0.5-0.9,0.8-1.6,1.2-2c0.3-0.4,0.6-0.7,0.9-0.9c0.3-0.2,0.6-0.3,1-0.3s0.8-0.1,1.2-0.3
		h44.5c0.5,0,1,0.2,1.3,0.5s0.5,0.8,0.5,1.2c0,0.8-0.5,1.8-1.6,2.9l-54.8,97.1v64.7c0,3.6-1.8,5.4-5.3,5.4H886
		c-1.5,0-2.7-0.5-3.6-1.4c-0.8-1-1.3-2.3-1.3-4v-64.9L826.4,5c-1-1-1.5-2-1.5-2.9c0-0.5,0.2-0.9,0.5-1.2s0.7-0.5,1.3-0.5h44.5
		c0.5,0.2,1,0.3,1.3,0.3s0.6,0.2,0.9,0.3c0.3,0.2,0.6,0.5,0.9,0.9c0.3,0.4,0.7,1.1,1.3,2L903.8,63.7z"/>
</g>
<g>
	<path class="st1" d="M1011.3,2c0-0.5,0.2-1,0.5-1.4s0.8-0.6,1.5-0.6h13c0.4,0,0.9,0.2,1.4,0.5c0.5,0.4,0.8,0.8,0.8,1.4v61.8
		c0,1.3-0.7,1.9-2.2,1.9h-13c-1.3,0-1.9-0.6-1.9-1.9V2H1011.3z"/>
	<path class="st1" d="M1042.9,2c0-0.5,0.2-1,0.5-1.4s0.8-0.6,1.5-0.6h14.5c0.4,0,0.8,0.1,1.3,0.3c0.4,0.2,0.8,0.6,1.1,1.1
		c3.7,6.1,7.5,12,11.2,17.9s7.4,11.8,11.2,17.9V1.8c0.1-0.5,0.4-0.9,0.7-1.2s0.8-0.4,1.2-0.4h12.6c0.6,0,1.1,0.2,1.6,0.5
		c0.4,0.3,0.6,0.8,0.6,1.4v62c0,0.6-0.2,1-0.5,1.3c-0.4,0.3-0.8,0.4-1.5,0.4h-14.1c-0.4,0-0.7-0.1-1-0.4s-0.6-0.6-0.9-1.1
		c-3.9-6.5-7.8-12.9-11.6-19.3c-3.8-6.3-7.7-12.8-11.7-19.3v38c0,0.6-0.1,1.1-0.4,1.5c-0.3,0.3-0.8,0.5-1.6,0.5H1045
		c-0.7,0-1.2-0.2-1.5-0.6s-0.5-0.8-0.5-1.4L1042.9,2L1042.9,2z"/>
	<path class="st1" d="M1007.5,108.3c0-0.6,0.2-1.1,0.6-1.4c0.4-0.4,0.9-0.5,1.5-0.5h47.6c0.5,0,1,0.2,1.4,0.5s0.6,0.8,0.7,1.5v11
		c0,0.5-0.2,1-0.6,1.5s-0.9,0.7-1.6,0.7H1042v48.5c0,0.5-0.2,1-0.6,1.4s-0.9,0.6-1.5,0.6h-13c-0.5,0-1-0.2-1.4-0.6
		c-0.4-0.4-0.7-0.9-0.7-1.5v-48.5h-15.2c-0.6,0-1.1-0.2-1.5-0.6s-0.6-0.9-0.6-1.7L1007.5,108.3L1007.5,108.3z"/>
	<path class="st1" d="M1070.3,108.3c0-0.5,0.2-1,0.6-1.4c0.3-0.4,0.8-0.6,1.4-0.6h13.1c0.4,0,0.9,0.2,1.4,0.6s0.7,0.8,0.7,1.4v21h22
		v-21c0-0.5,0.2-1,0.5-1.4c0.4-0.4,0.8-0.6,1.4-0.6h12.9c0.6,0,1.1,0.1,1.5,0.4s0.7,0.8,0.7,1.4v62c0,0.6-0.2,1.1-0.6,1.5
		c-0.4,0.3-0.9,0.5-1.5,0.5h-13.1c-0.6,0-1.1-0.2-1.4-0.5c-0.4-0.3-0.5-0.8-0.5-1.5V145h-22v25.1c0,0.6-0.2,1.1-0.6,1.4
		c-0.4,0.3-0.9,0.5-1.6,0.5h-13c-1.2,0-1.9-0.6-1.9-1.7V108.3z"/>
	<path class="st1" d="M1141,108.4c0-0.6,0.2-1.1,0.5-1.5s0.8-0.6,1.4-0.6h43.9c0.6,0,1.2,0.2,1.5,0.6c0.4,0.4,0.5,0.9,0.5,1.5v10.9
		c0,0.5-0.2,1-0.5,1.4c-0.4,0.5-0.9,0.7-1.6,0.7H1158v11h22.1c0.6,0,1,0.1,1.4,0.4c0.4,0.3,0.6,0.7,0.6,1.3v9.6
		c0,0.4-0.2,0.8-0.5,1.2s-0.8,0.6-1.4,0.6H1158v11.3h29.7c1.3,0,2,0.7,2,2v11.1c0,0.3-0.1,0.6-0.4,0.8c-0.1,0.8-0.7,1.2-1.8,1.2
		h-44.8c-0.6,0-1.1-0.2-1.4-0.5c-0.4-0.3-0.5-0.8-0.5-1.4v-61.6H1141z"/>
</g>
<path class="st0" d="M828.4,311c0-9.5,1.2-18.5,3.6-27.2c2.4-8.7,5.8-16.8,10.3-24.5c4.5-7.6,9.8-14.6,16-20.8s13.1-11.6,20.7-16
	c7.6-4.4,15.7-7.8,24.4-10.3s17.8-3.7,27.2-3.7s18.4,1.2,27.2,3.7c8.7,2.5,16.9,5.9,24.5,10.3c7.6,4.4,14.5,9.7,20.8,16
	c6.2,6.2,11.6,13.2,16,20.8s7.8,15.8,10.3,24.5s3.7,17.8,3.7,27.2c0,9.5-1.2,18.5-3.7,27.2s-5.9,16.8-10.3,24.3
	c-4.4,7.5-9.8,14.4-16,20.6s-13.2,11.5-20.8,16s-15.7,7.9-24.5,10.3c-8.7,2.4-17.8,3.6-27.2,3.6c-9.5,0-18.5-1.2-27.2-3.6
	s-16.8-5.8-24.4-10.3c-7.6-4.5-14.5-9.8-20.7-16s-11.5-13.1-16-20.6s-7.9-15.6-10.3-24.3C829.6,329.5,828.4,320.4,828.4,311z
	 M880.1,310.8c0,7.4,1.2,14.3,3.7,20.7c2.5,6.4,6,12,10.5,16.8s9.8,8.5,16,11.2s12.9,4.1,20.3,4.1c7.4,0,14.2-1.4,20.4-4.1
	s11.5-6.5,16-11.2c4.5-4.8,8-10.4,10.5-16.8s3.7-13.3,3.7-20.7c0-7.3-1.2-14.2-3.7-20.7s-6-12.1-10.5-16.9s-9.8-8.6-16-11.4
	s-13-4.2-20.4-4.2s-14.2,1.4-20.3,4.2c-6.1,2.8-11.5,6.5-16,11.4c-4.5,4.8-8,10.5-10.5,16.9C881.4,296.6,880.1,303.5,880.1,310.8z"
	/>
<g>
	<path class="st1" d="M18.5,478l6.7-21.9h8.9l6.7,21.9l7.6-21.9h9.2l-13.3,38H38l-8.3-26.4l-8.3,26.4h-6.3l-13.3-38H11L18.5,478z"/>
	<path class="st1" d="M62.1,456.2h8.5v38h-8.5V456.2z"/>
	<path class="st1" d="M106.5,456.2h8.5v38h-8.5l-18.1-23.8v23.8h-8.5v-38h7.9l18.7,24.5V456.2z"/>
	<path class="st1" d="M150.9,456.2h8.5v38h-8.5l-18.1-23.8v23.8h-8.5v-38h7.9l18.7,24.5V456.2z"/>
	<path class="st1" d="M196.2,456.2v7.6h-18.9v7.8h17v7.2h-17v7.9h19.5v7.5h-28v-38H196.2z"/>
	<path class="st1" d="M235.2,468.8c0,6.1-2.4,10-7.2,11.8l9.6,13.6h-10.4l-8.4-12.1h-5.9v12.1h-8.5v-38h14.4c5.9,0,10.1,1,12.6,3
		C233.9,461.1,235.2,464.3,235.2,468.8z M225,473.3c1.1-0.9,1.6-2.4,1.6-4.5c0-2-0.5-3.5-1.6-4.2c-1.1-0.8-3-1.1-5.7-1.1h-6.4v11.3
		h6.2C221.9,474.7,223.9,474.2,225,473.3z"/>
	<path class="st1" d="M290.2,488.9c-3.8,3.8-8.6,5.6-14.2,5.6c-5.6,0-10.4-1.9-14.2-5.6c-3.8-3.8-5.8-8.4-5.8-14
		c0-5.6,1.9-10.3,5.8-14c3.8-3.8,8.6-5.6,14.2-5.6c5.6,0,10.4,1.9,14.2,5.6c3.8,3.8,5.8,8.4,5.8,14
		C296,480.5,294.1,485.2,290.2,488.9z M287.3,474.9c0-3.4-1.1-6.3-3.3-8.7c-2.2-2.4-4.8-3.6-8-3.6c-3.2,0-5.8,1.2-8,3.6
		c-2.2,2.4-3.3,5.3-3.3,8.7c0,3.4,1.1,6.3,3.3,8.6c2.2,2.4,4.8,3.6,8,3.6c3.2,0,5.8-1.2,8-3.6C286.2,481.2,287.3,478.3,287.3,474.9z
		"/>
	<path class="st1" d="M329.3,456.2v7.5h-17.6v8.2h16.8v7.5h-16.8v14.9h-8.5v-38H329.3z"/>
	<path class="st1" d="M366.9,463.5v30.7h-8.5v-30.7h-10.8v-7.3h30v7.3H366.9z"/>
	<path class="st1" d="M407.5,456.2h8.5v38h-8.5v-15h-15.1v15h-8.5v-38h8.5V472h15.1V456.2z"/>
	<path class="st1" d="M452.7,456.2v7.6h-18.9v7.8h17v7.2h-17v7.9h19.5v7.5h-28v-38H452.7z"/>
	<path class="st1" d="M489.7,471c1-1.4,1.4-2.7,1.4-3.9c0-1.3-0.4-2.3-1.3-3.2c-0.8-0.9-1.9-1.3-3.2-1.3c-2.4,0-4.7,1.7-6.8,5.1
		l-6.8-4c1.8-2.8,3.7-4.8,5.8-6.3s4.8-2.1,8.1-2.1c3.3,0,6.2,1,8.6,3.1c2.5,2.1,3.7,4.9,3.7,8.5c0,2-0.5,3.8-1.5,5.6
		c-1,1.8-2.8,4.1-5.5,6.9l-6.9,7.1h15v7.6h-26.8v-6.3l11.1-11.4C487.1,474.2,488.7,472.3,489.7,471z"/>
	<path class="st1" d="M522.2,494.6c-5.3,0-9.2-1.8-11.8-5.4s-3.9-8.3-3.9-14.3c0-6,1.3-10.7,3.9-14.3c2.6-3.6,6.5-5.4,11.8-5.4
		c5.3,0,9.2,1.8,11.8,5.4c2.6,3.6,3.9,8.3,3.9,14.3c0,6-1.3,10.7-3.9,14.3C531.4,492.8,527.5,494.6,522.2,494.6z M516.6,465.8
		c-1.2,2.3-1.8,5.4-1.8,9.2c0,3.8,0.6,6.9,1.8,9.2c1.2,2.3,3.1,3.5,5.6,3.5c2.5,0,4.4-1.2,5.6-3.5c1.2-2.3,1.8-5.4,1.8-9.2
		c0-3.8-0.6-6.9-1.8-9.2c-1.2-2.3-3.1-3.5-5.6-3.5C519.7,462.3,517.8,463.5,516.6,465.8z"/>
	<path class="st1" d="M542.7,456.2h15.4v38h-8.2v-30.8h-7.2V456.2z"/>
	<path class="st1" d="M565.5,468.3v-12.2h27.5v6.4l-15.4,31.6h-9.2l14.7-30.7h-9.6v4.9H565.5z"/>
	<path class="st1" d="M638.1,474.8h8.5v13.5c-3.8,4.2-9,6.3-15.7,6.3c-5.6,0-10.3-1.8-14.1-5.5c-3.8-3.7-5.7-8.4-5.7-14
		c0-5.6,1.9-10.3,5.8-14.1c3.9-3.8,8.5-5.7,14-5.7c5.5,0,10.2,1.8,14.2,5.4l-4.4,6.4c-1.7-1.5-3.3-2.5-4.7-3.1
		c-1.4-0.6-3-0.8-4.7-0.8c-3.2,0-5.9,1.1-8.2,3.3c-2.2,2.2-3.3,5.1-3.3,8.7c0,3.6,1.1,6.5,3.2,8.6c2.1,2.2,4.7,3.2,7.6,3.2
		s5.4-0.6,7.3-1.7V474.8z"/>
	<path class="st1" d="M681,494.2l-3.5-8.2h-15.9l-3.5,8.2h-9l16.4-38h8.2l16.4,38H681z M669.5,467.5l-4.8,11h9.5L669.5,467.5z"/>
	<path class="st1" d="M728.5,470.2L718.2,491h-5.1l-10.2-20.8v23.9h-8.5v-38h11.5l9.8,20.9l9.8-20.9h11.4v38h-8.5V470.2z"/>
	<path class="st1" d="M773.7,456.2v7.6h-18.9v7.8h17v7.2h-17v7.9h19.5v7.5h-28v-38H773.7z"/>
	<path class="st1" d="M790.8,463.7c-0.8,0.7-1.2,1.6-1.2,2.7c0,1.1,0.5,2,1.5,2.6c1,0.7,3.3,1.4,6.9,2.3c3.6,0.9,6.4,2.2,8.4,4
		c2,1.8,3,4.4,3,7.8s-1.3,6.2-3.8,8.3c-2.6,2.1-5.9,3.2-10.1,3.2c-6,0-11.4-2.2-16.3-6.7l5.1-6.2c4.1,3.6,7.9,5.4,11.4,5.4
		c1.6,0,2.8-0.3,3.7-1c0.9-0.7,1.3-1.6,1.3-2.7c0-1.1-0.5-2-1.4-2.7c-0.9-0.7-2.8-1.4-5.6-2c-4.4-1.1-7.7-2.4-9.7-4.1
		c-2-1.7-3.1-4.3-3.1-7.9s1.3-6.4,3.9-8.3c2.6-2,5.8-2.9,9.7-2.9c2.5,0,5.1,0.4,7.6,1.3s4.8,2.1,6.6,3.7l-4.3,6.2
		c-3.3-2.5-6.7-3.8-10.2-3.8C792.7,462.7,791.6,463.1,790.8,463.7z"/>
	<path class="st1" d="M857,456.2v7.5h-17.6v8.2h16.8v7.5h-16.8v14.9h-8.5v-38H857z"/>
	<path class="st1" d="M896.2,488.9c-3.8,3.8-8.6,5.6-14.2,5.6c-5.6,0-10.4-1.9-14.2-5.6c-3.8-3.8-5.8-8.4-5.8-14
		c0-5.6,1.9-10.3,5.8-14c3.8-3.8,8.6-5.6,14.2-5.6c5.6,0,10.4,1.9,14.2,5.6c3.8,3.8,5.8,8.4,5.8,14
		C901.9,480.5,900,485.2,896.2,488.9z M893.3,474.9c0-3.4-1.1-6.3-3.3-8.7c-2.2-2.4-4.8-3.6-8-3.6s-5.8,1.2-8,3.6
		c-2.2,2.4-3.3,5.3-3.3,8.7c0,3.4,1.1,6.3,3.3,8.6c2.2,2.4,4.8,3.6,8,3.6s5.8-1.2,8-3.6C892.2,481.2,893.3,478.3,893.3,474.9z"/>
	<path class="st1" d="M940,468.8c0,6.1-2.4,10-7.2,11.8l9.6,13.6h-10.4l-8.4-12.1h-5.9v12.1h-8.5v-38h14.4c5.9,0,10.1,1,12.6,3
		C938.7,461.1,940,464.3,940,468.8z M929.7,473.3c1.1-0.9,1.6-2.4,1.6-4.5c0-2-0.5-3.5-1.6-4.2s-3-1.1-5.7-1.1h-6.4v11.3h6.2
		C926.7,474.7,928.7,474.2,929.7,473.3z"/>
	<path class="st1" d="M980.5,486.7c4.2,0,7.6-1.6,10.2-4.9l5.4,5.6c-4.3,4.9-9.4,7.3-15.3,7.3s-10.7-1.8-14.5-5.5
		c-3.8-3.7-5.7-8.4-5.7-14c0-5.6,1.9-10.3,5.8-14.1c3.9-3.8,8.6-5.7,14.2-5.7c6.2,0,11.5,2.4,15.7,7.1l-5.3,6c-2.7-3.3-6-5-10-5
		c-3.2,0-5.9,1-8.2,3.1s-3.4,4.9-3.4,8.4s1.1,6.4,3.2,8.5C974.8,485.6,977.4,486.7,980.5,486.7z"/>
	<path class="st1" d="M1026.4,456.2h8.5v38h-8.5v-15h-15.1v15h-8.5v-38h8.5V472h15.1V456.2z"/>
	<path class="st1" d="M1071.4,494.2l-3.5-8.2h-15.9l-3.5,8.2h-9l16.4-38h8.2l16.4,38H1071.4z M1059.9,467.5l-4.8,11h9.5
		L1059.9,467.5z"/>
	<path class="st1" d="M1111.4,456.2h8.5v38h-8.5l-18.1-23.8v23.8h-8.5v-38h7.9l18.7,24.5V456.2z"/>
	<path class="st1" d="M1153.9,474.8h8.5v13.5c-3.8,4.2-9,6.3-15.7,6.3c-5.6,0-10.3-1.8-14.1-5.5c-3.8-3.7-5.7-8.4-5.7-14
		c0-5.6,1.9-10.3,5.8-14.1c3.9-3.8,8.5-5.7,14-5.7c5.5,0,10.2,1.8,14.2,5.4l-4.4,6.4c-1.7-1.5-3.3-2.5-4.7-3.1
		c-1.4-0.6-3-0.8-4.7-0.8c-3.2,0-5.9,1.1-8.2,3.3c-2.2,2.2-3.3,5.1-3.3,8.7c0,3.6,1.1,6.5,3.2,8.6c2.1,2.2,4.7,3.2,7.6,3.2
		s5.4-0.6,7.3-1.7V474.8z"/>
	<path class="st1" d="M1197.4,456.2v7.6h-18.9v7.8h17v7.2h-17v7.9h19.5v7.5h-28v-38H1197.4z"/>
	<path class="st1" d="M267.5,524.8c2.7,2.3,4,5.7,4,10.4c0,4.7-1.4,8.1-4.1,10.3c-2.7,2.2-6.9,3.3-12.5,3.3h-5.1v10.6h-8.5v-38h13.4
		C260.6,521.4,264.8,522.5,267.5,524.8z M261.3,539.8c1-1.1,1.5-2.8,1.5-5c0-2.2-0.7-3.8-2-4.7c-1.3-0.9-3.4-1.4-6.2-1.4h-4.8v12.8
		h5.7C258.3,541.5,260.2,540.9,261.3,539.8z"/>
	<path class="st1" d="M305.5,521.4v7.6h-18.9v7.8h17v7.2h-17v7.9h19.5v7.5h-28v-38H305.5z"/>
	<path class="st1" d="M345.1,554.2c-3.8,3.8-8.6,5.6-14.2,5.6c-5.6,0-10.4-1.9-14.2-5.6c-3.8-3.8-5.8-8.4-5.8-14
		c0-5.6,1.9-10.3,5.8-14c3.8-3.8,8.6-5.6,14.2-5.6c5.6,0,10.4,1.9,14.2,5.6c3.8,3.8,5.8,8.4,5.8,14
		C350.8,545.8,348.9,550.4,345.1,554.2z M342.2,540.2c0-3.4-1.1-6.3-3.3-8.7c-2.2-2.4-4.8-3.6-8-3.6c-3.2,0-5.8,1.2-8,3.6
		c-2.2,2.4-3.3,5.3-3.3,8.7c0,3.4,1.1,6.3,3.3,8.6c2.2,2.4,4.8,3.6,8,3.6c3.2,0,5.8-1.2,8-3.6C341.1,546.5,342.2,543.6,342.2,540.2z
		"/>
	<path class="st1" d="M384.2,524.8c2.7,2.3,4,5.7,4,10.4c0,4.7-1.4,8.1-4.1,10.3c-2.7,2.2-6.9,3.3-12.5,3.3h-5.1v10.6H358v-38h13.4
		C377.3,521.4,381.5,522.5,384.2,524.8z M378,539.8c1-1.1,1.5-2.8,1.5-5c0-2.2-0.7-3.8-2-4.7c-1.3-0.9-3.4-1.4-6.2-1.4h-4.8v12.8
		h5.7C375,541.5,377,540.9,378,539.8z"/>
	<path class="st1" d="M394.8,559.4v-38h8.5v30.5h16.2v7.6H394.8z"/>
	<path class="st1" d="M453.1,521.4v7.6h-18.9v7.8h17v7.2h-17v7.9h19.5v7.5h-28v-38H453.1z"/>
	<path class="st1" d="M460.5,529.4c-1.2-0.8-1.8-1.9-1.8-3.3s0.4-2.6,1.3-3.4c0.9-0.8,1.9-1.3,3.2-1.3c1.3,0,2.4,0.4,3.2,1.2
		c0.9,0.8,1.3,1.8,1.3,3.1s-0.4,2.5-1.2,3.8l-4,5.8h-4.5L460.5,529.4z"/>
	<path class="st1" d="M483.2,529c-0.8,0.7-1.2,1.6-1.2,2.7c0,1.1,0.5,2,1.5,2.6c1,0.7,3.3,1.4,6.9,2.3c3.6,0.9,6.4,2.2,8.4,4
		c2,1.8,3,4.4,3,7.8s-1.3,6.2-3.8,8.3s-5.9,3.2-10.1,3.2c-6,0-11.4-2.2-16.3-6.7l5.1-6.2c4.1,3.6,7.9,5.4,11.4,5.4
		c1.6,0,2.8-0.3,3.7-1c0.9-0.7,1.3-1.6,1.3-2.7c0-1.1-0.5-2-1.4-2.7c-0.9-0.7-2.8-1.4-5.6-2c-4.4-1.1-7.7-2.4-9.7-4.1
		c-2-1.7-3.1-4.3-3.1-7.9s1.3-6.4,3.9-8.3c2.6-2,5.8-2.9,9.7-2.9c2.5,0,5.1,0.4,7.6,1.3c2.5,0.9,4.7,2.1,6.6,3.7l-4.3,6.2
		c-3.3-2.5-6.7-3.8-10.2-3.8C485.2,528,484,528.3,483.2,529z"/>
	<path class="st1" d="M540.9,551.9c4.2,0,7.6-1.6,10.2-4.9l5.4,5.6c-4.3,4.9-9.4,7.3-15.3,7.3c-5.9,0-10.7-1.8-14.5-5.5
		c-3.8-3.7-5.7-8.4-5.7-14c0-5.6,1.9-10.3,5.8-14.1c3.9-3.8,8.6-5.7,14.2-5.7c6.2,0,11.5,2.4,15.7,7.1l-5.3,6c-2.7-3.3-6-5-10-5
		c-3.2,0-5.9,1-8.2,3.1c-2.3,2.1-3.4,4.9-3.4,8.4s1.1,6.4,3.2,8.5C535.2,550.9,537.8,551.9,540.9,551.9z"/>
	<path class="st1" d="M586.8,521.4h8.5v38h-8.5v-15h-15.1v15h-8.5v-38h8.5v15.9h15.1V521.4z"/>
	<path class="st1" d="M636.6,554.2c-3.8,3.8-8.6,5.6-14.2,5.6c-5.6,0-10.4-1.9-14.2-5.6c-3.8-3.8-5.8-8.4-5.8-14
		c0-5.6,1.9-10.3,5.8-14c3.8-3.8,8.6-5.6,14.2-5.6c5.6,0,10.4,1.9,14.2,5.6c3.8,3.8,5.8,8.4,5.8,14
		C642.4,545.8,640.5,550.4,636.6,554.2z M633.7,540.2c0-3.4-1.1-6.3-3.3-8.7c-2.2-2.4-4.8-3.6-8-3.6s-5.8,1.2-8,3.6
		c-2.2,2.4-3.3,5.3-3.3,8.7c0,3.4,1.1,6.3,3.3,8.6c2.2,2.4,4.8,3.6,8,3.6s5.8-1.2,8-3.6C632.7,546.5,633.7,543.6,633.7,540.2z"/>
	<path class="st1" d="M649.6,521.4h8.5v38h-8.5V521.4z"/>
	<path class="st1" d="M684.9,551.9c4.2,0,7.6-1.6,10.2-4.9l5.4,5.6c-4.3,4.9-9.4,7.3-15.3,7.3s-10.7-1.8-14.5-5.5
		c-3.8-3.7-5.7-8.4-5.7-14c0-5.6,1.9-10.3,5.8-14.1c3.9-3.8,8.6-5.7,14.2-5.7c6.2,0,11.5,2.4,15.7,7.1l-5.3,6c-2.7-3.3-6-5-10-5
		c-3.2,0-5.9,1-8.2,3.1s-3.4,4.9-3.4,8.4s1.1,6.4,3.2,8.5C679.2,550.9,681.8,551.9,684.9,551.9z"/>
	<path class="st1" d="M734.6,521.4v7.6h-18.9v7.8h17v7.2h-17v7.9h19.5v7.5h-28v-38H734.6z"/>
	<path class="st1" d="M784.2,559.4l-3.5-8.2h-15.9l-3.5,8.2h-9l16.4-38h8.2l16.4,38H784.2z M772.8,532.7l-4.8,11h9.5L772.8,532.7z"
		/>
	<path class="st1" d="M807.5,543.3l6.7-21.9h8.9l6.7,21.9l7.6-21.9h9.2l-13.3,38H827l-8.3-26.4l-8.3,26.4h-6.3l-13.3-38h9.2
		L807.5,543.3z"/>
	<path class="st1" d="M876.1,559.4l-3.5-8.2h-15.9l-3.5,8.2h-9l16.4-38h8.2l16.4,38H876.1z M864.7,532.7l-4.8,11h9.5L864.7,532.7z"
		/>
	<path class="st1" d="M920.4,534c0,6.1-2.4,10-7.2,11.8l9.6,13.6h-10.4l-8.4-12.1h-5.9v12.1h-8.5v-38H904c5.9,0,10.1,1,12.6,3
		C919.2,526.4,920.4,529.6,920.4,534z M910.2,538.5c1.1-0.9,1.6-2.4,1.6-4.5c0-2-0.5-3.5-1.6-4.2s-3-1.1-5.7-1.1h-6.4V540h6.2
		C907.2,540,909.1,539.5,910.2,538.5z"/>
	<path class="st1" d="M958.2,526.4c3.6,3.3,5.4,7.9,5.4,13.8c0,5.9-1.8,10.6-5.3,14c-3.5,3.4-8.9,5.2-16.2,5.2h-13v-38h13.4
		C949.3,521.4,954.5,523.1,958.2,526.4z M951.9,549c2.1-2,3.1-4.8,3.1-8.5s-1-6.6-3.1-8.6c-2.1-2-5.3-3-9.6-3h-4.7v23.1h5.4
		C946.9,551.9,949.8,550.9,951.9,549z"/>
</g>
</svg>
