<?xml version="1.0" encoding="utf-8"?>
<!-- Generator: Adobe Illustrator 22.0.1, SVG Export Plug-In . SVG Version: 6.00 Build 0)  -->
<svg version="1.1" id="Layer_1" xmlns="http://www.w3.org/2000/svg" xmlns:xlink="http://www.w3.org/1999/xlink" x="0px" y="0px"
	 viewBox="0 0 374.3 115.3" style="enable-background:new 0 0 374.3 115.3;" xml:space="preserve">
<style type="text/css">
	.st0{fill:#EA5753;}
	.st1{fill:#84818D;}
</style>
<g>
	<g>
		<path class="st0" d="M13.2,61.1c-3.6,2.4-4.3,6.7-1.9,10.6c2.7,3.9,15,10.7,20.1,5.7C35.9,73,23.1,64,16.7,50.4
			c-4.2-8.2,0-24.5,5.2-31.9C31,4.5,50-1.3,62.1,0.3c9.2,1.6,15.8,12,14.6,17.5c-3,13.3-25.2,26.9-33.8,20.8
			c-1.6-1.6-1.1-2.4,1.3-2.9c7.9-1.1,25.4-19.3,21.3-20.5c-9.9-2.3-43.5,7.3-40.7,23.5C25.4,49.5,46,59.3,47.2,69.7
			c0.4,8.7-11.3,20.1-18.6,22.3C16.4,95.9,1.2,88.3,0,76.9c-0.7-8.7,7.7-17.3,11.9-18C14.7,58.4,14.8,59.6,13.2,61.1z"/>
		<path class="st0" d="M369.7,33.9c-1.7-0.1-2.1-0.3-4.4-0.3c4.2-7,6.4-11,7.4-12.3c1.9-3-4.7-6.2-9.7-4.3c-3.9,5-8,10.5-13.2,18.1
			l-5.3,1c-7.2,1.9-6.3,6.6-4.4,7c0.7,0.1,2.1,0.3,4.4,0.1c-3.8,6-7.3,12.2-9.7,17.7c-8,8.1-21.3,19.1-28,14.5
			c-3.9-2.7-3.2-7.6-1.9-11.6c1,1.7,5.7,5.3,9.2,4.9c10.6-0.7,18.1-14.6,18.5-20.2c0.4-6.4-9.6-14.8-15.9-13.9
			c-8.4,0.9-20.7,13.4-24.7,26.3c-5.3,5.2-13.1,12.2-18.8,12.5c-3,0.4-5.7-1-8.2-3.2c11.6-0.7,22.1-11.7,24.4-18.9
			c1.4-4.4-4.4-15.2-10.2-15.2c-3.9-0.1-10.2,3.3-17.6,11.3c5-9.7,10.5-18.3,15.2-26.2c1.6-2.4-7.4-6-9-4.9
			c-4.7,3.9-18.7,24.6-26.7,41.4l0,0c-8,8.6-23.1,22.3-30.7,18.5c-12.2-5.9,10.3-33.5,16.3-34.1c2.7-0.4-2.4,13.3-5.9,16.8
			c-1.6,1-1.1,2.2,1.6,1.6c6.9-1.6,15.2-10,14.8-15.6c-0.4-4.2-10.2-11.6-16.5-10.9c-8.3,0.9-20.5,13.5-25,26.2
			c-2.5,2.4-4.8,4.4-5.8,4.9c1.9-3.7,4.2-11,4.2-14.6c0.4-6.6-7.4-13.5-12.7-14.6c-7-1.1-12.9,4.4-15.3,7.6
			c-0.2,0.1-0.4,0.1-0.6,0.2c-0.5,0.1-1.2,0.3-2,0.6c0,0,0,0,0,0c-1.5,1-3.8,2.8-6.2,4.7c0,0,0,0,0,0c-5.7,4.7-12.2,10.4-11.6,8.4
			c0-0.4,5.4-9.3,9.3-15.5c1.6-3.2-2.7-7.5-6.6-8.2c-3.3,1.4-17.3,12-28.1,23.2c3.4-6.6,8.7-14.8,8.7-15.8c0-3-7.6-7.2-8.7-5.6
			c-0.9,0.9-7.7,10.5-13.8,20.6c-2.5,2.5-6.1,5.8-9.9,9.7c1.9-3.4,6-13.3,6-18.9c0-4-4.2-9.9-10-9.9c-5.6,0-10.5,5.3-17.8,15
			c4.1-8,5.9-10.9,8.4-16.2c1.1-2.6-7.4-6-8.7-4.3C69.4,37.8,47.3,76,45,91.6c-0.7,3.4,3.3,10.3,10.3,11.5c1.6,0.4,2.7-0.9,2.2-2.4
			c-2.9-7.3,31.8-63,33.5-57.2c1.1,3.9-7,21.5-14,29.2c-4.4,1.1-6,1-6.5,3.7c0,4.7,4.7,9.3,7.6,10c2.9,1,6.7-2,10.6-6.6
			c3-2.3,6.4-5.2,9.6-8.2c-1,2.6-1.7,4.7-1.7,6.3c0,6.3,11.7,9.6,12.2,6.7c0.7-10.7,17.2-26.2,29.1-37.4c-2.7,3.9-4.4,6.4-5.4,9.4
			c-1,3.9,5.9,11.3,10.9,10.9c1.4,0,3.7-1.7,6.3-4.2c-0.6,2.3-1,4.8-1.1,7.2c-0.4,7.3,9.2,15.5,14,15.9c7,0.6,15.8-4.4,21.9-12
			c2-0.7,5.8-2.7,9.5-5.7c0,0.2,0,0.5,0,0.7c0,8.6,12.3,17.3,17.5,17.3c8.4,0.3,17.5-7.7,24.6-15.7c-0.5,1.9-0.7,3.5-0.6,4.8
			c0,3.7,4.9,9.9,8.9,10.3c2.6,0,2.7-2.2,2.7-2.7c1.3-4,3.1-8,5.3-11.9c3.4,6.9,11.9,13.9,17.9,13.9c6.4,0,14.5-7.5,20.9-14.7
			c1.6,7.9,12.1,15.1,16.8,15.1c7.9,0.3,16.7-6.6,23.8-13.8c0,0.5,0,1,0,1.5c0.4,6.3,7.3,12,11.5,12.5c7.2,0.6,24.3-22.1,26.1-24.9
			c4.7-6.3,3-10.2-1.6-5.6c-1.7,1.7-19.8,21.5-20.9,18.5c-1.6-3.6,6.2-18.6,13.3-31.5c4.7,0,9.3,0.1,12.7,0.6c1,0.1,1.4,0,1.6-0.7
			C374.7,40.6,372.2,33.9,369.7,33.9z M322.3,43.5c3.6,0-7.9,20.1-15.6,16.8C307.8,56.8,318,43.9,322.3,43.5z M159.4,75.9
			c-1.4-1.9-0.6-9.7,2.4-12.7c2.2,6.3,7.6,9.5,8.4,9.9C167,76.9,161.7,78.6,159.4,75.9z M174.7,67.1c-6.9-0.4-6.7-7-5.3-11.9
			c2.3-7.3,8.6-13.6,12-11.7C184.6,45.5,180.9,59.4,174.7,67.1z M259.7,61c9.3-11.6,18.9-19.3,19.8-17.3c0.4,3-10,16-19.3,17.2
			C260,60.8,259.8,61,259.7,61z"/>
		<path class="st0" d="M163.4,44.3c0.8-0.3,1.5-0.4,2-0.6c0,0,0,0,0,0C165.3,43.2,164.5,43.5,163.4,44.3z"/>
		<path class="st0" d="M159.8,46.4c-0.8,0.7-1.7,1.6-2.6,2.6c2.4-2,4.6-3.7,6.2-4.7C162.3,44.7,161.1,45.3,159.8,46.4z"/>
	</g>
</g>
<g>
	<g>
		<path class="st1" d="M80,115h-6.7v-15h6.8c1.5,0,2.8,0.3,3.8,0.9c1.1,0.6,1.9,1.5,2.4,2.6c0.5,1.1,0.8,2.4,0.8,3.8
			c0,1.5-0.3,2.9-0.9,4c-0.6,1.1-1.4,2-2.5,2.6C82.7,114.7,81.4,115,80,115z M79.9,103.2h-2.6v8.7h2.4c1,0,1.8-0.4,2.4-1.1
			c0.6-0.8,0.9-1.9,0.9-3.3c0-1.3-0.3-2.3-0.8-3.1C81.7,103.6,80.9,103.2,79.9,103.2z"/>
		<path class="st1" d="M100,115l5.6-15h4l5.6,14.8l-3.9,0.4l-1.1-3.2H105l-1,3H100z M106.1,108.9h2.9l-1.5-4.1L106.1,108.9z"/>
		<path class="st1" d="M127.5,100h12.8l0.4,3.1h-4.8V115h-4v-11.8h-4.4V100z"/>
		<path class="st1" d="M153,115l5.6-15h4l5.6,14.8l-3.9,0.4l-1.1-3.2H158l-1,3H153z M159.1,108.9h2.9l-1.5-4.1L159.1,108.9z"/>
		<path class="st1" d="M197.8,114.1l1.3-3c0.4,0.2,0.9,0.5,1.6,0.6c0.7,0.2,1.3,0.3,1.8,0.3c0.6,0,1.1-0.1,1.4-0.4
			c0.4-0.2,0.5-0.5,0.5-0.8c0-0.2-0.1-0.4-0.4-0.6c-0.3-0.2-0.7-0.4-1.2-0.8l-0.7-0.4c-1-0.6-1.8-1.1-2.3-1.5
			c-0.6-0.4-1.1-0.9-1.5-1.5c-0.4-0.6-0.7-1.3-0.7-2.1c0-0.8,0.2-1.6,0.7-2.2c0.5-0.7,1.1-1.2,2-1.5c0.8-0.4,1.8-0.6,2.9-0.6
			c0.8,0,1.5,0.1,2.3,0.3c0.8,0.2,1.5,0.5,2.1,0.9l-1.2,2.7c-0.8-0.3-1.4-0.4-1.8-0.5c-0.4-0.1-0.9-0.1-1.4-0.1
			c-0.4,0-0.8,0.1-1.1,0.3c-0.3,0.2-0.4,0.5-0.4,0.7c0,0.2,0.1,0.4,0.3,0.6c0.2,0.2,0.6,0.4,1.1,0.7l0.8,0.4c0.9,0.5,1.7,1,2.3,1.5
			c0.6,0.4,1.1,1,1.6,1.6c0.4,0.6,0.6,1.3,0.6,2.1c0,0.9-0.2,1.6-0.7,2.3s-1.2,1.2-2.1,1.6c-0.9,0.4-2,0.6-3.2,0.6
			c-0.8,0-1.6-0.1-2.6-0.4C199.2,114.7,198.4,114.4,197.8,114.1z"/>
		<path class="st1" d="M230,109.1v5.9h-4v-5.9l-4.8-8.3l3.8-1.1l2.9,5.7l3.1-5.4h4.1L230,109.1z"/>
		<path class="st1" d="M248,114.1l1.3-3c0.4,0.2,0.9,0.5,1.6,0.6c0.7,0.2,1.3,0.3,1.8,0.3c0.6,0,1.1-0.1,1.4-0.4
			c0.4-0.2,0.5-0.5,0.5-0.8c0-0.2-0.1-0.4-0.4-0.6c-0.3-0.2-0.7-0.4-1.2-0.8l-0.7-0.4c-1-0.6-1.8-1.1-2.3-1.5
			c-0.6-0.4-1.1-0.9-1.5-1.5c-0.4-0.6-0.7-1.3-0.7-2.1c0-0.8,0.2-1.6,0.7-2.2c0.5-0.7,1.1-1.2,2-1.5c0.8-0.4,1.8-0.6,2.9-0.6
			c0.8,0,1.5,0.1,2.3,0.3c0.8,0.2,1.5,0.5,2.1,0.9l-1.2,2.7c-0.8-0.3-1.4-0.4-1.8-0.5c-0.4-0.1-0.9-0.1-1.4-0.1
			c-0.4,0-0.8,0.1-1.1,0.3c-0.3,0.2-0.4,0.5-0.4,0.7c0,0.2,0.1,0.4,0.3,0.6c0.2,0.2,0.6,0.4,1.1,0.7l0.8,0.4c0.9,0.5,1.7,1,2.3,1.5
			s1.1,1,1.6,1.6c0.4,0.6,0.6,1.3,0.6,2.1c0,0.9-0.2,1.6-0.7,2.3c-0.5,0.7-1.2,1.2-2.1,1.6c-0.9,0.4-2,0.6-3.2,0.6
			c-0.8,0-1.6-0.1-2.6-0.4C249.4,114.7,248.6,114.4,248,114.1z"/>
		<path class="st1" d="M271.5,100h12.8l0.4,3.1h-4.8V115h-4v-11.8h-4.4V100z"/>
		<path class="st1" d="M309.1,111.8l0.4,3.1h-11v-15h9.9l0.4,3.1h-6.3v2.7h4.6l0.4,3.1h-5v2.8H309.1z"/>
		<path class="st1" d="M333.7,107.7l-2,2.7l-1.6,0.2l-2.4-2.9v7.2h-4v-15h2.8l4.5,5.7l4.1-5.7h2.7v15h-4V107.7z"/>
		<path class="st1" d="M352.1,114.1l1.3-3c0.4,0.2,0.9,0.5,1.6,0.6c0.7,0.2,1.3,0.3,1.8,0.3c0.6,0,1.1-0.1,1.4-0.4
			c0.4-0.2,0.5-0.5,0.5-0.8c0-0.2-0.1-0.4-0.4-0.6c-0.3-0.2-0.7-0.4-1.2-0.8l-0.7-0.4c-1-0.6-1.8-1.1-2.3-1.5
			c-0.6-0.4-1.1-0.9-1.5-1.5c-0.4-0.6-0.7-1.3-0.7-2.1c0-0.8,0.2-1.6,0.7-2.2c0.5-0.7,1.1-1.2,2-1.5c0.8-0.4,1.8-0.6,2.9-0.6
			c0.8,0,1.5,0.1,2.3,0.3c0.8,0.2,1.5,0.5,2.1,0.9l-1.2,2.7c-0.8-0.3-1.4-0.4-1.8-0.5c-0.4-0.1-0.9-0.1-1.4-0.1
			c-0.4,0-0.8,0.1-1.1,0.3s-0.4,0.5-0.4,0.7c0,0.2,0.1,0.4,0.3,0.6c0.2,0.2,0.6,0.4,1.1,0.7l0.8,0.4c0.9,0.5,1.7,1,2.3,1.5
			c0.6,0.4,1.1,1,1.6,1.6c0.4,0.6,0.6,1.3,0.6,2.1c0,0.9-0.2,1.6-0.7,2.3c-0.5,0.7-1.2,1.2-2.1,1.6c-0.9,0.4-2,0.6-3.2,0.6
			c-0.8,0-1.6-0.1-2.6-0.4C353.4,114.7,352.6,114.4,352.1,114.1z"/>
	</g>
</g>
</svg>
