<?xml version="1.0" encoding="utf-8"?>
<!-- Generator: Adobe Illustrator 21.0.0, SVG Export Plug-In . SVG Version: 6.00 Build 0)  -->
<svg version="1.1" id="Layer_1" xmlns="http://www.w3.org/2000/svg" xmlns:xlink="http://www.w3.org/1999/xlink" x="0px" y="0px"
	 viewBox="0 0 88.1 110.9" style="enable-background:new 0 0 88.1 110.9;" xml:space="preserve">
<style type="text/css">
	.st0{fill:#FFFFFF;}
</style>
<g>
	<path class="st0" d="M77.1,7.4H65C61.8,3.1,57,0,51.6,0h-15c-5.5,0-10.2,3.1-13.4,7.4H11c-6.1,0-11,5-11,11v81.4c0,6.1,5,11,11,11
		h66.1c6.1,0,11-5,11-11V18.5C88.1,12.4,83.2,7.4,77.1,7.4z M71.3,25.1V92c0,1-0.8,1.9-1.9,1.9H18.7c-1,0-1.9-0.8-1.9-1.9V25.1
		c0-1,0.8-1.9,1.9-1.9l0,0h47.6h3C70.4,23.2,71.3,24.1,71.3,25.1z M36.6,6h15c4.1,0,7.6,3,9.8,6.8c1.1,2-0.3,4.4-2.6,4.4H29.5
		c-2.3,0-3.7-2.5-2.6-4.4C29,9,32.5,6,36.6,6z M82.1,99.9c0,2.8-2.3,5-5,5H11c-2.8,0-5-2.3-5-5V18.5c0-2.8,2.3-5,5-5h9
		c-0.4,1.3-0.8,2.5-1,3.8h-6.2c-1,0-1.9,0.8-1.9,1.9V98c0,1,0.8,1.9,1.9,1.9h62.6c1,0,1.9-0.8,1.9-1.9V19.1c0-1-0.8-1.9-1.9-1.9
		h-6.2c-0.2-1.3-0.5-2.6-1-3.8h8.9c2.8,0,5,2.3,5,5C82.1,18.4,82.1,99.9,82.1,99.9z"/>
	<path class="st0" d="M58.7,34.1H29.5c-1.7,0-3,1.3-3,3l0,0c0,1.7,1.3,3,3,3h29.2c1.7,0,3-1.3,3-3l0,0
		C61.7,35.4,60.3,34.1,58.7,34.1z"/>
	<path class="st0" d="M58.7,44.1H29.5c-1.7,0-3,1.3-3,3l0,0c0,1.7,1.3,3,3,3h29.2c1.7,0,3-1.3,3-3l0,0
		C61.7,45.5,60.3,44.1,58.7,44.1z"/>
	<path class="st0" d="M58.7,54.2H29.5c-1.7,0-3,1.3-3,3l0,0c0,1.7,1.3,3,3,3h29.2c1.7,0,3-1.3,3-3l0,0
		C61.7,55.5,60.3,54.2,58.7,54.2z"/>
	<path class="st0" d="M58.7,64.2H29.5c-1.7,0-3,1.3-3,3l0,0c0,1.7,1.3,3,3,3h29.2c1.7,0,3-1.3,3-3l0,0
		C61.7,65.5,60.3,64.2,58.7,64.2z"/>
	<path class="st0" d="M42.7,74.2H29.5c-1.7,0-3,1.3-3,3l0,0c0,1.7,1.3,3,3,3h13.3c1.7,0,3-1.3,3-3l0,0
		C45.7,75.6,44.4,74.2,42.7,74.2z"/>
</g>
</svg>
