<?xml version="1.0" encoding="utf-8"?>
<!-- Generator: Adobe Illustrator 21.0.0, SVG Export Plug-In . SVG Version: 6.00 Build 0)  -->
<svg version="1.1" id="Layer_1" xmlns="http://www.w3.org/2000/svg" xmlns:xlink="http://www.w3.org/1999/xlink" x="0px" y="0px"
	 viewBox="0 0 130.8 103.3" style="enable-background:new 0 0 130.8 103.3;" xml:space="preserve">
<style type="text/css">
	.st0{fill:#FFFFFF;}
</style>
<g>
	<ellipse transform="matrix(0.2481 -0.9687 0.9687 0.2481 24.0113 153.7981)" class="st0" cx="111.1" cy="61.4" rx="2.6" ry="2.6"/>
	<ellipse transform="matrix(0.2482 -0.9687 0.9687 0.2482 22.4647 164.5883)" class="st0" cx="117.3" cy="67.8" rx="2.6" ry="2.6"/>
	<ellipse transform="matrix(0.2482 -0.9687 0.9687 0.2482 15.5726 159.0349)" class="st0" cx="110.2" cy="69.5" rx="2.6" ry="2.6"/>
	<ellipse transform="matrix(0.2481 -0.9687 0.9687 0.2481 13.991 169.702)" class="st0" cx="116.3" cy="75.8" rx="2.6" ry="2.6"/>
	<path class="st0" d="M100.8,68c-3.7-0.9-7.5,1.3-8.4,5s1.3,7.5,5,8.4s7.5-1.3,8.4-5C106.7,72.7,104.5,68.9,100.8,68z M101.4,75.3
		c-0.3,1.3-1.6,2.1-2.9,1.7c-1.3-0.3-2.1-1.6-1.7-2.9c0.3-1.3,1.6-2.1,2.9-1.7C100.9,72.7,101.7,74,101.4,75.3z"/>
	<path class="st0" d="M62.9,54.4c0.9-3.7-1.3-7.5-5-8.4s-7.5,1.3-8.4,5s1.3,7.5,5,8.4C58.2,60.3,62,58.1,62.9,54.4z M58.5,53.3
		c-0.3,1.3-1.6,2.1-2.9,1.7c-1.3-0.3-2.1-1.6-1.7-2.9c0.3-1.3,1.6-2.1,2.9-1.7C58.1,50.7,58.9,52,58.5,53.3z"/>
	<path class="st0" d="M73,64.4l-2.7-0.7c-0.3-0.1-0.5-0.4-0.5-0.8l0.7-2.7c0.1-0.3-0.1-0.7-0.5-0.8l-2.7-0.7
		c-0.3-0.1-0.7,0.1-0.8,0.5L65.9,62c-0.1,0.3-0.4,0.5-0.8,0.5l-2.7-0.7c-0.3-0.1-0.7,0.1-0.8,0.5L60.9,65c-0.1,0.3,0.1,0.7,0.5,0.8
		l2.7,0.7c0.3,0.1,0.5,0.4,0.5,0.8L63.9,70c-0.1,0.3,0.1,0.7,0.5,0.8l2.7,0.7c0.3,0.1,0.7-0.1,0.8-0.5l0.7-2.7
		c0.1-0.3,0.4-0.5,0.8-0.5l2.7,0.7c0.3,0.1,0.7-0.1,0.8-0.5l0.7-2.7C73.5,64.9,73.3,64.5,73,64.4z"/>
	<rect x="83.2" y="56.2" transform="matrix(0.2481 -0.9687 0.9687 0.2481 5.3815 127.3668)" class="st0" width="3" height="8.1"/>
	<path class="st0" d="M127.9,60c-3.1-5.6-8.5-9.8-14.7-11.4l-21.5-5.5c1.2-5.1,3.1-17.2-2.8-25.2c-2.9-4-7.3-6.4-13-7.1l1.3,7
		c2.7,0.7,4.8,2,6.3,4c3.9,5.3,2.9,14.6,1.7,19.6L80,40.1L73,2.2c-0.3-1.4-1.6-2.4-3.1-2.1L2.2,12.6c-1.4,0.3-2.4,1.6-2.1,3.1
		l15.8,85.5c0.3,1.4,1.6,2.4,3.1,2.1l70.4-13l-0.1-0.4c-1.3-1.5-2.5-3.1-3.4-4.9c-0.6-1.1-1.7-2-3-2.3L81,82.2l0.5,2.7L24.3,95.5
		c-1.4,0.3-2.8-0.7-3.1-2.1L7.9,21c-0.3-1.4,0.7-2.8,2.1-3.1l54.6-10c1.4-0.3,2.8,0.7,3.1,2.1l5.2,28.3l-7.5-1.9
		c-1.3-0.3-2.6-0.5-3.9-0.6L61.1,34c-0.2-1-1.1-1.6-2.1-1.4l-35.2,6.5c-1,0.2-1.6,1.1-1.4,2.1l0.6,3.1c0.2,1,1.1,1.6,2.1,1.4
		L43,42.4c-1.6,1.6-3,3.4-4,5.3l-13,2.4c-1,0.2-1.6,1.1-1.4,2.1l0.6,3.1c0.2,1,1.1,1.6,2.1,1.4l9.2-1.7c0-0.1,0.1-0.2,0.1-0.3
		c-2.2,11.8,5,23.6,16.6,26.9c0.2,0.1,0.4,0.1,0.7,0.2c6.5,1.7,13.3,0.5,18.9-3.2c1.1-0.7,2.4-0.9,3.8-0.6l7.2,1.9
		c1.3,0.3,2.4,1.2,3,2.3c3.2,6.2,8.9,10.5,15.7,12.1c11.7,2.6,23.8-4.2,27.5-15.6l0,0C131.7,72.3,131,65.7,127.9,60z M125.4,77.1
		L125.4,77.1c-3,9.2-12.7,14.8-22.2,12.6C97.7,88.5,93.1,85,90.5,80c-1.2-2.3-3.3-3.9-5.9-4.6l-7.2-1.9c-2.6-0.7-5.3-0.2-7.4,1.2
		c-4.6,3.1-10.4,4-15.8,2.5C44.9,74.6,39.1,65,40.9,55.5c1-5.2,4-9.6,8.5-12.5c4.5-2.8,9.7-3.7,14.8-2.4L112.1,53
		c5.1,1.3,9.3,4.6,11.9,9.2C126.5,66.8,127,72.1,125.4,77.1z"/>
	<path class="st0" d="M58.3,28.1c1-0.2,1.6-1.1,1.4-2.1l-0.6-3c-0.2-1-1.1-1.6-2.1-1.4l-35.2,6.5c-1,0.2-1.6,1.1-1.4,2.1l0.6,3.1
		c0.2,1,1.1,1.6,2.1,1.4L58.3,28.1z"/>
	<path class="st0" d="M28,61.1c-1,0.2-1.6,1.1-1.4,2.1l0.6,3.1c0.2,1,1.1,1.6,2.1,1.4l6.6-1.2c-0.5-2.2-0.6-4.5-0.4-6.7L28,61.1z"/>
	<path class="st0" d="M29.2,77.3c0.2,1,1.1,1.6,2.1,1.4l9.6-1.8c-1.5-1.8-2.8-3.9-3.7-6.1L30,72.2c-1,0.2-1.6,1.1-1.4,2.1L29.2,77.3
		z"/>
</g>
</svg>
