<?xml version="1.0" encoding="utf-8"?>
<!-- Generator: Adobe Illustrator 21.0.0, SVG Export Plug-In . SVG Version: 6.00 Build 0)  -->
<svg version="1.1" id="Layer_1" xmlns="http://www.w3.org/2000/svg" xmlns:xlink="http://www.w3.org/1999/xlink" x="0px" y="0px"
	 viewBox="0 0 81.4 111.8" style="enable-background:new 0 0 81.4 111.8;" xml:space="preserve">
<style type="text/css">
	.st0{fill:#FFFFFF;}
</style>
<g>
	<path class="st0" d="M20.7,51.5c0.3-0.4,0.5-0.8,0.6-1.2c0.5-1.3,1.3-3.2,6.7-1.9c2.2,0.5,4,0.9,5.6,1
		c-8.2,8.8-23.2,27.9-15.3,44.2L19,95h42.5h3.7l-1.5-3.4c0-0.1-3.9-9.4,4.3-26.8c5-10.7,4.2-25-2-36.5c-4.8-8.9-12.2-14.9-20.4-16.6
		c-0.9-2.9-3.2-9.1-7-11.3c-0.9-0.5-1.9-0.5-2.8,0c-0.9,0.5-1.4,1.4-1.5,2.4l-0.4,7.9L28.2,12l0.4,2.6c-3,0.9-8,2.8-10.3,6.7
		C16.2,23.1,3.8,34,2.3,35.4c-1.9,1.8-1.6,4.7-1.1,6.5c-1.3,1.7-1.8,3.8-0.4,5.7c0.7,1,1.4,1.5,1.8,1.8c0.4,0.2,0.5,0.4,1,1.4
		c1.3,2.7,3.2,2.9,4.4,3c0.7,0.1,1.3,0.1,2.3,0.7C14.7,56.8,19.2,53.5,20.7,51.5z M12.7,50.2c-1.8-1-3.2-1.2-4.2-1.2
		c-0.1,0-0.3,0-0.4,0c0-0.1-0.1-0.1-0.2-0.3c-1-1.9-1.7-2.6-2.6-3.2c-0.2-0.1-0.3-0.2-0.5-0.4c0.1-0.2,0.4-0.5,0.6-0.7l0.3-0.3
		c0.6-0.5,0.8-1.4,0.5-2.1l-0.1-0.4c-0.4-1-0.6-2.3-0.5-2.8c2-1.8,16-14.1,16.1-14.2l0.3-0.3l0.2-0.4c1.6-3.1,7.4-4.8,9.4-5.2
		l1.7-0.3c0.4-0.1,0.6-0.4,0.6-0.8l-0.2-1.3c-0.1-0.4,0.2-0.7,0.5-0.8l4.2-1L38.8,9c0-0.3,0.4-0.4,0.5-0.1c0.9,1.8,1.6,3.9,2,5.5
		l0.1,0.2c0.2,0.8,0.9,1.4,1.7,1.5h0.3c7.3,1,14.1,6.3,18.4,14.4c5.5,10.2,6.3,22.9,1.9,32.2c-6.4,13.5-6.1,22.8-5.3,27.5H22
		C17.6,78.5,27,64.5,34.1,56c2.8-3.3,6-6.2,9.3-8.9c3.4-2.7,5.4-5.7,6-9c0.4-2.3,0-4.2-0.5-5.7c-0.6-1.5-2.5-2-3.8-0.9l0,0
		c-0.8,0.6-1.1,1.7-0.7,2.6c0.3,0.8,0.5,1.9,0.3,3.1c-0.4,2.4-2.4,4.8-5.7,7.1c-0.2,0-0.3,0-0.5,0.1c-0.4,0.1-2.9,0.7-9.4-0.9
		c-9.5-2.3-11.6,3-12.3,4.8c0,0.1-0.1,0.1-0.1,0.2C16.3,49.2,14.3,51,12.7,50.2z"/>
	<path class="st0" d="M81,40.2L81,40.2c-0.9-5.7-2.8-11.3-5.6-16.6c-2.8-5.2-6.4-9.6-10.5-13c-2.4-2-4.9-3.6-7.5-4.9
		c-0.4-0.2-0.8-0.4-1.2-0.6c-0.2,0-0.4-0.1-0.6-0.2c-0.5-0.2-1-0.4-1.6-0.6l0,0c-2.5-0.9-5.2-1.6-8.1-1.8c1.5,2.4,2.6,5,3.2,7
		c8.3,2,15.7,8.2,20.6,17.2c6.5,12,7.3,26.9,2.1,38c-4.5,9.6-5.3,16.6-5.1,20.8c0.1-0.5,1.1-9.1,8.2-19.7
		C80.9,56.8,82.1,48.8,81,40.2z"/>
	<circle class="st0" cx="9.6" cy="40" r="1.9"/>
	<path class="st0" d="M26.5,28c1.2-0.8,2.6-1.7,3.9-2.3c0.2-0.7,0.1-1.5-0.3-2.1c0-0.1-0.1-0.1-0.2-0.2c-1.7,0.1-3.4,0.3-4.6,0.6
		c-0.7,1-0.9,2.2-0.3,3.1C25.4,27.6,25.9,27.9,26.5,28z"/>
	<path class="st0" d="M31.5,8.1l0.1-6.2c0,0-6.8,0.5-10.3,3.1l6.3,4.2L31.5,8.1z"/>
	<path class="st0" d="M68.6,97.3H15.9c-2.8,0-5,2.3-5,5v4.4c0,2.8,2.3,5,5,5h52.7c2.8,0,5-2.3,5-5v-4.4
		C73.6,99.5,71.3,97.3,68.6,97.3z M68.8,104.5c0,1.4-1.1,2.5-2.5,2.5H18.1c-1.4,0-2.5-1.1-2.5-2.5l0,0c0-1.4,1.1-2.5,2.5-2.5h48.3
		C67.7,102.1,68.8,103.2,68.8,104.5L68.8,104.5z"/>
</g>
</svg>
