<?xml version="1.0" encoding="utf-8"?>
<!-- Generator: Adobe Illustrator 21.0.0, SVG Export Plug-In . SVG Version: 6.00 Build 0)  -->
<svg version="1.1" id="Layer_1" xmlns="http://www.w3.org/2000/svg" xmlns:xlink="http://www.w3.org/1999/xlink" x="0px" y="0px"
	 viewBox="0 0 107.8 110.8" style="enable-background:new 0 0 107.8 110.8;" xml:space="preserve">
<style type="text/css">
	.st0{fill:#FFFFFF;}
</style>
<path class="st0" d="M78,54.4c0,0.3,0,0.6,0,0.9c-4,1-7,4.7-7,9v1.8l-4.8,5H71v6.5H58.1c-1.1,0-2-0.9-2-2v-1.8
	c0-1.1,0.4-2.1,1.1-2.8l8.4-8.6c1.9-2,3.3-3.5,4.1-4.7c0.8-1.2,1.2-2.3,1.2-3.4c0-1.1-0.4-2-1.1-2.7s-1.6-1.1-2.7-1.1
	c-1.6,0-3.1,0.9-4.5,2.6c-0.8,1-2.2,1.2-3.3,0.6L58,53.1c-1.4-0.8-1.7-2.6-0.7-3.8s2.1-2.2,3.2-2.9c1.8-1.2,4.1-1.8,6.9-1.8
	s5.3,0.9,7.4,2.7C77,48.9,78,51.3,78,54.4z"/>
<path class="st0" d="M97,11.1h-8.5v7c0,4.3-3.5,7.7-7.7,7.7c-4.3,0-7.7-3.5-7.7-7.7v-7H34.7v7c0,4.3-3.5,7.7-7.7,7.7
	c-4.3,0-7.7-3.5-7.7-7.7v-7h-8.6C4.8,11.1,0,15.9,0,21.8v83.6c0,2.9,2.4,5.3,5.3,5.3h97.2c2.9,0,5.3-2.4,5.3-5.3V21.8
	C107.8,15.9,103,11.1,97,11.1z M100,104.8H7.8c-1,0-1.8-0.8-1.8-1.8s0.8-1.8,1.8-1.8H100c1,0,1.8,0.8,1.8,1.8S101,104.8,100,104.8z
	 M101.8,93.4c0,1-0.8,1.8-1.8,1.8H7.8c-1,0-1.8-0.8-1.8-1.8s0.8-1.8,1.8-1.8h71.1c0.7,0,1.4-0.5,2-1.1l20.9-20.9V93.4z M81.5,79.2
	v-9.1c0-2.7,2.2-4.8,4.9-4.8h9.1c0.8,0,1.2,0.9,0.6,1.5l-13,13C82.4,80.4,81.5,80,81.5,79.2z M101.8,58.3c0,0.6-0.5,1-1,1H80.4
	c-2.7,0-4.9,2.2-4.9,4.8v19.2c0,1.2-1,2.2-2.2,2.2h-66C6.6,85.6,6,85,6,84.3V36.1h95.8V58.3z"/>
<path class="st0" d="M27,21.3L27,21.3c-1.8,0-3.2-1.4-3.2-3.2V3.2C23.8,1.4,25.2,0,27,0l0,0c1.8,0,3.2,1.4,3.2,3.2V18
	C30.2,19.8,28.8,21.3,27,21.3z"/>
<path class="st0" d="M80.8,21.3L80.8,21.3c-1.8,0-3.2-1.4-3.2-3.2V3.2C77.6,1.4,79,0,80.8,0l0,0C82.6,0,84,1.4,84,3.2V18
	C84,19.8,82.6,21.3,80.8,21.3z"/>
<g>
	<path class="st0" d="M41.7,57.9c0.8-1.2,1.2-2.3,1.2-3.4c0-1.1-0.4-2-1.1-2.7c-0.7-0.7-1.6-1.1-2.7-1.1c-1.6,0-3.1,0.9-4.5,2.6
		c-0.8,1-2.2,1.2-3.3,0.6l-1.4-0.8c-1.4-0.8-1.7-2.6-0.7-3.9c1-1.2,2.1-2.2,3.2-2.9c1.8-1.2,4.1-1.8,6.9-1.8c2.8,0,5.3,0.9,7.4,2.7
		c2.1,1.8,3.2,4.2,3.2,7.3c0,1.7-0.4,3.3-1.3,4.8c-0.9,1.5-2.4,3.5-4.7,5.9l-5.8,6.1h10.3c1.4,0,2.6,1.1,2.6,2.6v1.4
		c0,1.4-1.1,2.6-2.6,2.6H30c-1.1,0-2-0.9-2-2v-1.8c0-1.1,0.4-2.1,1.1-2.8l8.4-8.6C39.5,60.6,40.8,59,41.7,57.9z"/>
	<path class="st0" d="M97,11.1h-8.5v7c0,4.3-3.5,7.7-7.7,7.7c-4.3,0-7.7-3.5-7.7-7.7v-7H34.7v7c0,4.3-3.5,7.7-7.7,7.7
		c-4.3,0-7.7-3.5-7.7-7.7v-7h-8.6C4.8,11.1,0,15.9,0,21.8v83.6c0,2.9,2.4,5.3,5.3,5.3h97.2c2.9,0,5.3-2.4,5.3-5.3V21.8
		C107.8,15.9,103,11.1,97,11.1z M100,104.8H7.8c-1,0-1.8-0.8-1.8-1.8s0.8-1.8,1.8-1.8H100c1,0,1.8,0.8,1.8,1.8S101,104.8,100,104.8z
		 M101.8,93.4c0,1-0.8,1.8-1.8,1.8H7.8c-1,0-1.8-0.8-1.8-1.8s0.8-1.8,1.8-1.8h71.1c0.7,0,1.4-0.5,2-1.1l20.9-20.9V93.4z M81.5,79.2
		v-9.1c0-2.7,2.2-4.8,4.9-4.8h9.1c0.8,0,1.2,0.9,0.6,1.5l-13,13C82.4,80.4,81.5,80,81.5,79.2z M101.8,58.3c0,0.6-0.5,1-1,1H80.4
		c-2.7,0-4.9,2.2-4.9,4.8v19.2c0,1.2-1,2.2-2.2,2.2h-66C6.6,85.6,6,85,6,84.3V36.1h95.8V58.3z"/>
</g>
<path class="st0" d="M41.7,57.9c0.8-1.2,1.2-2.3,1.2-3.4c0-1.1-0.4-2-1.1-2.7c-0.7-0.7-1.6-1.1-2.7-1.1c-1.6,0-3.1,0.9-4.5,2.6
	c-0.8,1-2.2,1.2-3.3,0.6l-1.4-0.8c-1.4-0.8-1.7-2.6-0.7-3.9c1-1.2,2.1-2.2,3.2-2.9c1.8-1.2,4.1-1.8,6.9-1.8c2.8,0,5.3,0.9,7.4,2.7
	c2.1,1.8,3.2,4.2,3.2,7.3c0,1.7-0.4,3.3-1.3,4.8c-0.9,1.5-2.4,3.5-4.7,5.9l-5.8,6.1h10.3c1.4,0,2.6,1.1,2.6,2.6v1.4
	c0,1.4-1.1,2.6-2.6,2.6H30c-1.1,0-2-0.9-2-2v-1.8c0-1.1,0.4-2.1,1.1-2.8l8.4-8.6C39.5,60.6,40.8,59,41.7,57.9z"/>
<path class="st0" d="M97,11.1h-8.5v7c0,4.3-3.5,7.7-7.7,7.7c-4.3,0-7.7-3.5-7.7-7.7v-7H34.7v7c0,4.3-3.5,7.7-7.7,7.7
	c-4.3,0-7.7-3.5-7.7-7.7v-7h-8.6C4.8,11.1,0,15.9,0,21.8v83.6c0,2.9,2.4,5.3,5.3,5.3h97.2c2.9,0,5.3-2.4,5.3-5.3V21.8
	C107.8,15.9,103,11.1,97,11.1z M100,104.8H7.8c-1,0-1.8-0.8-1.8-1.8s0.8-1.8,1.8-1.8H100c1,0,1.8,0.8,1.8,1.8S101,104.8,100,104.8z
	 M101.8,93.4c0,1-0.8,1.8-1.8,1.8H7.8c-1,0-1.8-0.8-1.8-1.8s0.8-1.8,1.8-1.8h71.1c0.7,0,1.4-0.5,2-1.1l20.9-20.9V93.4z M81.5,79.2
	v-9.1c0-2.7,2.2-4.8,4.9-4.8h9.1c0.8,0,1.2,0.9,0.6,1.5l-13,13C82.4,80.4,81.5,80,81.5,79.2z M101.8,58.3c0,0.6-0.5,1-1,1H80.4
	c-2.7,0-4.9,2.2-4.9,4.8v19.2c0,1.2-1,2.2-2.2,2.2h-66C6.6,85.6,6,85,6,84.3V36.1h95.8V58.3z"/>
</svg>
