<?xml version="1.0" encoding="utf-8"?>
<!-- Generator: Adobe Illustrator 21.0.0, SVG Export Plug-In . SVG Version: 6.00 Build 0)  -->
<svg version="1.1" id="Layer_1" xmlns="http://www.w3.org/2000/svg" xmlns:xlink="http://www.w3.org/1999/xlink" x="0px" y="0px"
	 viewBox="0 0 128.5 81.5" style="enable-background:new 0 0 128.5 81.5;" xml:space="preserve">
<style type="text/css">
	.st0{fill:#FFFFFF;}
</style>
<path class="st0" d="M124.2,13.8c-2.8-2.4-6.4-3.4-10-2.8c-1.4,0.2-2.9,0.5-4.3,0.8c-1.3,0.3-5,0.7-12.7-1.1
	c-3.5-0.8-8.6-2.5-14-4.2C65.8,1,57.2-1.4,53.8,0.6L42.7,9.1c-3-0.2-16.2-0.9-27-1.6c-4.1-0.3-8,1.2-11,4C1.6,14.3,0,18.1,0,22.2
	v12.2C0,41.2,4.6,47,11.2,48.7c3.1,0.8,5.8,1.7,8.2,2.8c-0.8,1.4-1.3,2.8-1.3,4.2c0,4.4,3.6,8,8.1,8c1.3,0,2.7-0.4,4.1-1.1
	c-0.1,2.6,1.1,5.2,3.2,6.9c1.7,1.3,3.7,2,5.8,1.9c0.4,0,0.9-0.1,1.3-0.2c0.4,1.5,1.1,2.9,2.3,4c1.6,1.6,3.7,2.5,5.9,2.5
	c1.2,0,2.4-0.3,3.5-0.8c1.1,2.9,4.4,4.5,7.1,4.5c0.6,0,1.2-0.1,1.8-0.2c1.8-0.5,3.3-1.8,4.1-3.5c0.6-0.1,1.1-0.2,1.6-0.3
	c1.3-0.4,2.5-1,3.4-1.9c1.3,0.8,2.8,1.2,4.4,1.2c2.5,0,4.9-1.1,6.5-3c1.2-1.4,1.8-3.1,1.9-4.9c2.8,0.3,5.5-0.9,7.3-3
	c0.8-1,1.4-2.1,1.7-3.3l0.6,0.5c1.7,1.4,3.9,2.1,6.1,1.9c2.2-0.2,4.2-1.3,5.7-3c1.4-1.7,2.1-3.9,1.9-6.1c0-0.5-0.1-0.9-0.3-1.4
	c2.2-1.4,4.1-2.3,5.3-2.4c0.9-0.1,2.6-0.1,4.8-0.1c6.7-0.1,12.2-5.6,12.2-12.3V23.2C128.5,19.6,126.9,16.2,124.2,13.8z M28.8,57.8
	C28,58.5,27.1,59,26.3,59c-1.8,0-3.3-1.4-3.3-3.2c0-0.5,0.3-1.2,0.7-1.9C25.9,55.3,27.6,56.7,28.8,57.8z M56.9,75.5
	c0.7,0.4,1.5,0.8,2.2,1.2c-0.4,0-0.7-0.1-1.1-0.3C57.5,76.1,57.1,75.8,56.9,75.5L56.9,75.5z M73.5,41.9c-0.9,0.9-0.9,2.5,0,3.4
	l12.6,12.3l0.1,0.1c0.7,0.6,1.2,1.5,1.3,2.4c0.1,1-0.2,1.9-0.8,2.6c-1.3,1.5-3.5,1.7-5.1,0.4l-16.5-13c-1-0.8-2.6-0.6-3.4,0.4
	c-0.4,0.5-0.6,1.1-0.5,1.8c0.1,0.6,0.4,1.2,0.9,1.6l15,11.8c1.5,1.2,1.7,3.4,0.4,4.9c-1.3,1.5-3.5,1.7-5.1,0.5l-12.7-9.4
	c-0.5-0.4-1.2-0.5-1.8-0.4s-1.2,0.4-1.6,1c-0.4,0.5-0.5,1.2-0.4,1.8c0.1,0.6,0.4,1.2,1,1.6l9.4,6.9c-0.2,0.1-0.4,0.2-0.7,0.3
	c-1.8,0.5-4.1,0-6.2-1.3c-0.6-0.4-1.3-0.8-1.9-1.2l-1.1-0.7c-0.2-2-1-3.8-2.5-5.3c-2.2-2.2-5.3-3-8.1-2.2c-0.5-1.6-1.5-3.1-2.9-4.3
	c-2.4-1.9-5.5-2.5-8.1-1.4c-1-0.7-1.8-1.3-2.4-1.8L32,54.2c-3.1-2.7-8.4-7.3-19.6-10.1C7.9,43,4.8,39,4.8,34.5v-12
	c0-2.9,1.2-5.7,3.2-7.6c2-1.8,4.6-2.8,7.3-2.6c8.6,0.5,18.7,1.1,24.3,1.4c-0.1,0.5-0.1,1,0,1.5c0.3,2.2,1.6,3.9,3.6,4.7
	c4.8,2,10.2,1.6,14.7-1c0.4-0.2,1-0.2,1.4,0c7.6,4.4,32.9,19.9,40.8,34.3l-0.1,0.1l0.3,0.3c0.2,0.3,0.3,0.7,0.5,1l0.9,1.8
	c0,0.8-0.3,1.6-0.8,2.3c-1.3,1.5-3.5,1.8-5,0.5l-9.4-8.1L77,41.9C76,40.9,74.5,41,73.5,41.9z M35.6,61.5c0.4-0.6,1.1-0.9,2-0.9
	c0.8,0,1.7,0.3,2.4,0.9c0.7,0.6,1.2,1.4,1.4,2.2s0,1.5-0.4,2.1c-0.4,0.5-1.1,0.8-1.8,0.9c-0.9,0-1.8-0.3-2.5-0.9
	C35.1,64.6,34.7,62.7,35.6,61.5z M94.5,36.7l0.9,0.1c0.3,0,0.6,0,1,0c0.9,0,1.8,0.1,2.6,0c2.5,0,4.9-0.5,7.1-0.9l-0.1-1
	c-2.2,0.2-4.6,0.3-6.9,0c-0.8-0.1-1.6-0.2-2.4-0.3c-0.3-0.1-0.6-0.1-0.9-0.2c-0.3-0.1-0.6-0.1-0.9-0.2c-0.8-0.2-1.6-0.4-2.4-0.7
	c-2.2-0.7-4.3-1.5-6.2-2.6c-0.3-0.2-0.6-0.3-0.9-0.5l-0.5-0.3c-0.5-0.3-0.9-0.6-1.3-0.8c-11.3-8.7-22.5-14.9-23.7-15.6
	c-0.8-0.4-1.7-0.4-2.5,0.1l-0.9,0.6c-3.3,2.2-7.5,2.6-11.2,1.1c-0.5-0.2-0.6-0.7-0.7-0.9c-0.1-0.5,0.1-0.9,0.5-1.2l11.4-8.6
	C59.1,3.9,74,8.6,82,11.2c5.5,1.7,10.7,3.4,14.3,4.3c8.3,2,12.8,1.6,14.8,1.2c1.2-0.3,2.6-0.5,3.8-0.8c1.8-0.3,3.5,0,5,0.8
	c2.4,1.3,4,3.9,4,6.6v16.2c0,4.1-3.3,7.5-7.4,7.5c-2.4,0-4,0.1-5,0.1c-2.5,0.2-5.3,1.6-7.4,3c-2.5-4.3-6.5-8.9-11.9-13.8
	C92.8,36.5,93.7,36.6,94.5,36.7z M50.9,72.2c-0.6,0.6-1.4,0.9-2.2,0.8c-0.9,0-1.7-0.4-2.4-1.1c-1.3-1.3-1.5-3.4-0.3-4.6
	c0.5-0.5,1.2-0.8,2-0.8c0.9,0,1.8,0.4,2.5,1.1C51.9,69,52,71,50.9,72.2z"/>
</svg>
