<?xml version="1.0" encoding="utf-8"?>
<!-- Generator: Adobe Illustrator 21.0.0, SVG Export Plug-In . SVG Version: 6.00 Build 0)  -->
<svg version="1.1" id="Layer_1" xmlns="http://www.w3.org/2000/svg" xmlns:xlink="http://www.w3.org/1999/xlink" x="0px" y="0px"
	 viewBox="0 0 114.4 99.7" style="enable-background:new 0 0 114.4 99.7;" xml:space="preserve">
<style type="text/css">
	.st0{fill:#FFFFFF;}
</style>
<g>
	<rect x="14.1" y="45.8" class="st0" width="12" height="3.3"/>
	<rect x="19.9" y="39.2" class="st0" width="34.5" height="3.3"/>
	<rect x="14.1" y="32.5" class="st0" width="12" height="3.3"/>
	<rect x="14.1" y="25.8" class="st0" width="12" height="3.3"/>
	<rect x="60.8" y="45.8" class="st0" width="40.3" height="3.3"/>
	<rect x="60.8" y="39.2" class="st0" width="30.5" height="3.3"/>
	<rect x="60.8" y="32.5" class="st0" width="30.5" height="3.3"/>
	<rect x="60.8" y="25.8" class="st0" width="40.3" height="3.3"/>
	<rect x="60.8" y="19.2" class="st0" width="30.5" height="3.3"/>
	<rect x="60.8" y="12.5" class="st0" width="40.3" height="3.3"/>
	<rect x="19.9" y="19.2" class="st0" width="34.5" height="3.3"/>
	<rect x="14.1" y="12.5" class="st0" width="12" height="3.3"/>
	<path class="st0" d="M81.8,91.6c-6.5-0.3-10.5-3.9-12-10.5l-0.5-2.3h-24l-0.5,2.3c-1.5,6.7-5.6,10.3-12.1,10.5
		c-2.2,0.1-3.9,1.9-3.9,4c0,2.2,1.8,4,4,4h48.9c2.2,0,4-1.8,4-4C85.6,93.5,83.9,91.7,81.8,91.6z M44,93.7c2.6-2.2,4.6-5.2,5.8-8.9
		h14.6c1.2,3.8,3.2,6.8,5.8,8.9H44z"/>
	<circle class="st0" cx="57.2" cy="64.6" r="2.4"/>
	<path class="st0" d="M102.1,0H12.3C5.5,0,0,5.5,0,12.3v50.4C0,69.5,5.5,75,12.3,75h89.8c6.8,0,12.3-5.5,12.3-12.3V12.3
		C114.4,5.5,108.9,0,102.1,0z M12.3,6h89.8c3.5,0,6.3,2.8,6.3,6.3v41.9H6V12.3C6,8.8,8.8,6,12.3,6z M102.1,69H12.3
		C8.8,69,6,66.2,6,62.7v-2.4h102.4v2.4C108.4,66.2,105.6,69,102.1,69z"/>
</g>
</svg>
