<?xml version="1.0" encoding="utf-8"?>
<!-- Generator: Adobe Illustrator 21.0.0, SVG Export Plug-In . SVG Version: 6.00 Build 0)  -->
<svg version="1.1" id="Layer_1" xmlns="http://www.w3.org/2000/svg" xmlns:xlink="http://www.w3.org/1999/xlink" x="0px" y="0px"
	 viewBox="0 0 96.6 94.5" style="enable-background:new 0 0 96.6 94.5;" xml:space="preserve">
<style type="text/css">
	.st0{fill:#FFFFFF;}
</style>
<g>
	<path class="st0" d="M67.5,42.2c0.7-0.7,1.2-1.7,1.3-2.6l9.1-9.1c1-0.1,1.9-0.6,2.7-1.3c0.9-0.9,1.4-2.1,1.4-3.3
		c0-0.6-0.1-1.1-0.3-1.7c1.9,0.4,3.9,0.3,5.8-0.5c2.8-1.1,4.9-3.7,5.7-6.8l3.5-14L82.4,5.7C78.9,6.4,76.1,8.8,75,12
		c-0.6,1.7-0.7,3.5-0.3,5.2c-0.5-0.2-1.1-0.3-1.7-0.3c-1.2,0-2.4,0.5-3.3,1.4C69,19,68.5,20,68.4,21l-9.1,9c-1,0.1-1.9,0.6-2.7,1.3
		C55.9,32,55.4,33,55.3,34L5.6,86.4c-1.8,1.9-1.7,4.8,0.1,6.6l0,0c1.8,1.8,4.7,1.9,6.6,0.1l52.4-49.7C65.8,43.4,66.7,42.9,67.5,42.2
		z M78.9,13.3c0.6-1.8,2.2-3.1,4.3-3.6l7.9-1.6l-1.9,7.7c-0.5,1.8-1.7,3.3-3.3,4c-1.9,0.8-4,0.4-5.5-0.8c-0.1-0.1-0.2-0.2-0.3-0.3
		c-0.1-0.1-0.2-0.2-0.3-0.3C78.6,17,78.3,15.1,78.9,13.3z M72.6,21.1c0.2-0.2,0.7-0.2,0.9,0l4.2,4.2c0.2,0.2,0.2,0.4,0.2,0.5
		s0,0.3-0.2,0.5c-0.1,0.1-0.1,0.1-0.2,0.1l-5-5C72.5,21.3,72.5,21.2,72.6,21.1z M69.9,25.1l3.7,3.7l-6.4,6.4l-3.7-3.7L69.9,25.1z
		 M9.6,90.2c-0.3,0.3-0.7,0.2-0.9,0c-0.3-0.3-0.3-0.7,0-0.9l48.3-51l3.7,3.7L9.6,90.2z M64.6,39.3c-0.1,0.1-0.3,0.2-0.5,0.2
		c-0.2,0-0.3-0.1-0.4-0.2l-4.2-4.2c-0.2-0.2-0.2-0.7,0-0.9S59.9,34,60,34s0.3,0,0.5,0.2l2.1,2.1l2.1,2.1
		C64.8,38.6,64.8,39,64.6,39.3z"/>
	<path class="st0" d="M60.7,52.1l-3,2.8l31.2,33c0.3,0.3,0.2,0.7,0,0.9c-0.3,0.3-0.7,0.3-0.9,0L54.9,57.6l-3,2.8l33.2,31.5
		c1.9,1.8,4.8,1.7,6.6-0.1c1.8-1.8,1.9-4.7,0.1-6.6L60.7,52.1z"/>
	<path class="st0" d="M5.2,18.7c-0.1,0.7,0.1,1.4,0.6,2c0.5,0.5,1.2,0.8,1.9,0.7c1-0.1,4.6-0.1,7.9,2.9c0,1.2,0.4,2.5,1.4,3.5
		c0.7,0.7,1.7,1.2,2.6,1.3l9.1,9.1c0.1,1,0.6,1.9,1.3,2.7c0.7,0.7,1.7,1.2,2.7,1.3l5.4,5.1l2.8-3L37,40.6l3.7-3.7l3.6,3.8l2.8-3
		l-4.8-5.1c-0.1-1-0.6-1.9-1.3-2.7c-0.7-0.7-1.7-1.2-2.7-1.3l-9.1-9.1c-0.1-1-0.6-1.9-1.3-2.7c-1-1-2.3-1.4-3.6-1.4
		c-2.9-3.3-2.9-6.8-2.8-7.9c0.1-0.7-0.2-1.4-0.8-1.9c-0.5-0.5-1.3-0.7-2-0.6c-7,1.3-10-3-10.2-3.1L7.2,0L0,7.2l2.1,1.4
		C2.1,8.6,6.6,11.6,5.2,18.7z M38,32.9c0.2,0.2,0.2,0.7,0,0.9L33.9,38c-0.3,0.2-0.7,0.2-0.9,0c-0.2-0.3-0.2-0.7,0-0.9l4.2-4.1
		C37.4,32.7,37.8,32.7,38,32.9z M34,30.2L30.3,34l-6.4-6.4l3.7-3.7L34,30.2z M24.4,19.7c0.2,0,0.4,0,0.6,0.2c0,0,0,0.1,0.1,0.1l-5,5
		c-0.1,0-0.2-0.1-0.2-0.1c-0.2-0.1-0.2-0.4-0.2-0.6L24.4,19.7z M11.2,12.6c-0.3,0.8-0.1,1.7,0.5,2.3c0.9,0.9,2.3,0.9,3.2,0
		s0.9-2.3,0-3.2c-0.6-0.6-1.5-0.8-2.3-0.5L9.4,8c1.9,1,4.6,1.8,7.9,1.5c0.2,2.1,0.9,5,3.2,8l-3.1,3.1c-2.9-2.3-5.9-3-8-3.2
		c0.3-3.4-0.5-6-1.5-8L11.2,12.6z"/>
</g>
</svg>
