<?xml version="1.0" encoding="utf-8"?>
<!-- Generator: Adobe Illustrator 21.0.0, SVG Export Plug-In . SVG Version: 6.00 Build 0)  -->
<svg version="1.1" id="Layer_1" xmlns="http://www.w3.org/2000/svg" xmlns:xlink="http://www.w3.org/1999/xlink" x="0px" y="0px"
	 viewBox="0 0 216 216" style="enable-background:new 0 0 216 216;" xml:space="preserve">
<style type="text/css">
	.st0{fill:#EF4C6C;}
	.st1{fill:#FFFFFF;}
</style>
<g>
	<path class="st0" d="M108,20c48.5,0,88,39.5,88,88s-39.5,88-88,88s-88-39.5-88-88S59.5,20,108,20 M108,0C48.4,0,0,48.4,0,108
		s48.4,108,108,108s108-48.4,108-108S167.6,0,108,0L108,0z"/>
</g>
<g>
	<polygon class="st1" points="70.5,62.4 87.5,52.6 104.6,62.4 104.6,82.1 87.5,92 70.5,82.1 	"/>
	<polygon class="st0" points="110.9,62.4 128,52.6 145,62.4 145,82.1 128,92 110.9,82.1 	"/>
	<polygon class="st1" points="70.5,133.4 87.5,123.5 104.6,133.4 104.6,153.1 87.5,162.9 70.5,153.1 	"/>
	<polygon class="st1" points="110.9,133.4 128,123.5 145,133.4 145,153.1 128,162.9 110.9,153.1 	"/>
	<polygon class="st1" points="50.5,98.9 67.6,89 84.6,98.9 84.6,118.6 67.6,128.4 50.5,118.6 	"/>
	<polygon class="st0" points="91,98.9 108,89 125.1,98.9 125.1,118.6 108,128.4 91,118.6 	"/>
	<polygon class="st1" points="131.4,98.9 148.5,89 165.5,98.9 165.5,118.6 148.5,128.4 131.4,118.6 	"/>
</g>
</svg>
