<?xml version="1.0" encoding="utf-8"?>
<!-- Generator: Adobe Illustrator 21.0.0, SVG Export Plug-In . SVG Version: 6.00 Build 0)  -->
<svg version="1.1" id="Layer_1" xmlns="http://www.w3.org/2000/svg" xmlns:xlink="http://www.w3.org/1999/xlink" x="0px" y="0px"
	 viewBox="0 0 216 216" style="enable-background:new 0 0 216 216;" xml:space="preserve">
<style type="text/css">
	.st0{fill:#FFFFFF;}
	.st1{fill:#00BABE;}
</style>
<g>
	<g>
		<path class="st0" d="M160.4,160.7c-13.5,13.4-32,21.7-52.4,21.7c-41,0-74.4-33.4-74.4-74.4S67,33.6,108,33.6
			c20.6,0,39.2,8.4,52.7,22l23.8-23.8C164.9,12.2,137.8,0,108,0C48.4,0,0,48.4,0,108s48.4,108,108,108c29.7,0,56.6-12.1,76.2-31.5
			L160.4,160.7z"/>
	</g>
	<path class="st1" d="M182.4,108c0,14.2-4,27.4-10.9,38.7l24.2,24.2c12.8-17.7,20.3-39.5,20.3-62.9c0-23.3-7.4-44.9-20.1-62.6
		l-24.3,24.3C178.5,80.9,182.4,94,182.4,108z"/>
	<path class="st1" d="M147.3,67.6c-10.2-9.9-24-15.9-39.2-15.9C77,51.6,51.7,76.9,51.7,108c0,30.7,24.6,55.7,55.2,56.3v-30.5
		c-6.6-0.3-12.6-3.1-17-7.5l0.1-0.1H111c0,0,11.5-9.6,11.3-21.5l-12.2,0L147.3,67.6z M77.7,111.1c-1.3-9.9,1.8-20.2,9.4-27.8
		c7.6-7.6,17.9-10.7,27.8-9.4L77.7,111.1z"/>
	<path class="st0" d="M158,81.9l-19.7,19.7c0.4,2.1,0.6,4.2,0.6,6.4c0,11.2-5.7,21-14.4,26.8v27.1c23-7.1,39.8-28.5,39.8-53.9
		C164.4,98.6,162.1,89.7,158,81.9z"/>
</g>
</svg>
