<?xml version="1.0" encoding="utf-8"?>
<!-- Generator: Adobe Illustrator 21.0.0, SVG Export Plug-In . SVG Version: 6.00 Build 0)  -->
<svg version="1.1" id="Layer_1" xmlns="http://www.w3.org/2000/svg" xmlns:xlink="http://www.w3.org/1999/xlink" x="0px" y="0px"
	 viewBox="0 0 216 216" style="enable-background:new 0 0 216 216;" xml:space="preserve">
<style type="text/css">
	.st0{fill:#8EC349;}
	.st1{fill:#FFFFFF;}
</style>
<g>
	<path class="st0" d="M108,20c48.5,0,88,39.5,88,88s-39.5,88-88,88s-88-39.5-88-88S59.5,20,108,20 M108,0C48.4,0,0,48.4,0,108
		s48.4,108,108,108s108-48.4,108-108S167.6,0,108,0L108,0z"/>
</g>
<g>
	<path class="st0" d="M56.8,85.1c0,2.4,0,4.8,0,7.2c13.3-2.1,26.9-2.1,40.2,0c0-2.4,0-4.8,0-7.2C83.7,82.9,70.2,82.9,56.8,85.1z"/>
	<path class="st0" d="M56.8,99.5c0,2.4,0,4.8,0,7.2c13.3-2.1,26.9-2.1,40.2,0c0-2.4,0-4.8,0-7.2C83.7,97.4,70.2,97.4,56.8,99.5z"/>
	<path class="st0" d="M56.8,114c0,2.4,0,4.8,0,7.2c13.3-2.1,26.9-2.1,40.2,0c0-2.4,0-4.8,0-7.2C83.7,111.9,70.2,111.9,56.8,114z"/>
	<path class="st0" d="M56.8,128.5c0,2.4,0,4.8,0,7.2c13.3-2.1,26.9-2.1,40.2,0c0-2.4,0-4.8,0-7.2C83.7,126.4,70.2,126.4,56.8,128.5z
		"/>
	<path class="st1" d="M170.1,67.8c-19.7-3.1-39.6-3.2-59.4-0.3v-0.1l-3.1-0.5c-20.4-3.2-41.1-3.2-61.5,0l-3.1,0.5v87.1l4.2-0.7
		c19.6-3.1,39.6-3.1,59.2,0l4.2,0.7v0.1c19.3-3,38.9-2.9,58.2,0.1l4.2,0.7V68.3L170.1,67.8z M103.5,146.1c-17.6-2.4-35.5-2.4-53.1,0
		V73.6c17.6-2.5,35.5-2.5,53.1,0V146.1z M165.9,147c-18.3-2.5-36.9-2.4-55.2,0.3V74.8c18.3-2.8,36.8-2.9,55.2-0.3V147z"/>
</g>
</svg>
