<?xml version="1.0" encoding="utf-8"?>
<!-- Generator: Adobe Illustrator 21.0.0, SVG Export Plug-In . SVG Version: 6.00 Build 0)  -->
<svg version="1.1" id="Layer_1" xmlns="http://www.w3.org/2000/svg" xmlns:xlink="http://www.w3.org/1999/xlink" x="0px" y="0px"
	 viewBox="0 0 216 216" style="enable-background:new 0 0 216 216;" xml:space="preserve">
<style type="text/css">
	.st0{fill:#FEDA00;}
	.st1{fill:#FFFFFF;}
</style>
<g>
	<path class="st0" d="M108,20c48.5,0,88,39.5,88,88s-39.5,88-88,88s-88-39.5-88-88S59.5,20,108,20 M108,0C48.4,0,0,48.4,0,108
		s48.4,108,108,108s108-48.4,108-108S167.6,0,108,0L108,0z"/>
</g>
<g>
	<g>
		
			<rect x="68.7" y="81" transform="matrix(0.5088 -0.8609 0.8609 0.5088 -35.0146 103.9864)" class="st1" width="9.9" height="3.4"/>
		<path class="st1" d="M86.7,45.9c-5.8-3.4-13.2-1.5-16.6,4.3l-4,6.7l8.5,5l4-6.7c0.6-1.1,2-1.4,3.1-0.8l12.6,7.5
			c3.1,1.8,4.1,5.8,2.3,9l-7.5,12.6c-0.6,1.1-2,1.4-3.1,0.8l-6.7-4l-5,8.5l6.7,4c0.7,0.4,1.5,0.8,2.3,1c5.3,1.8,11.4-0.3,14.4-5.3
			l12.5-21.1c1.8-3.1,0.8-7.1-2.3-9L86.7,45.9z"/>
		
			<rect x="66.7" y="57.6" transform="matrix(0.5088 -0.8609 0.8609 0.5088 -20.2238 89.6372)" class="st1" width="3.4" height="9.9"/>
	</g>
	<circle class="st0" cx="147.5" cy="85.2" r="6.2"/>
	<g>
		<path class="st1" d="M135.1,85.2c0-3.8,1.8-7.3,4.5-9.6c0.5-0.4,0.4-1.2-0.2-1.4l-21.3-10.3c-0.5-0.3-1.2,0.1-1.2,0.7
			c-0.2,2-0.9,4-1.9,5.9l-2.7,4.6c-0.3,0.4-0.1,1,0.4,1.2l20.4,9.9c0.6,0.3,0.7,1.1,0.2,1.5l-18.8,15.3c-0.5,0.4-0.4,1.2,0.3,1.5
			c3.6,1.4,6.4,4.4,7.4,8.1c0.2,0.6,0.9,0.8,1.4,0.4l18.6-15.2c0.5-0.4,0.4-1.2-0.2-1.4C137.9,94.3,135.1,90.1,135.1,85.2z"/>
		<path class="st1" d="M110.3,128.3c-3.8,0-7.1-1.7-9.4-4.4c-0.4-0.5-1.2-0.4-1.5,0.3l-10.9,31.1c-0.2,0.6,0.2,1.2,0.8,1.2h39.5
			c0.6,0,1-0.6,0.8-1.2l-10.3-29.3c-0.2-0.6-0.9-0.8-1.3-0.4C115.8,127.3,113.2,128.3,110.3,128.3z"/>
	</g>
	<circle class="st0" cx="110.3" cy="116" r="6.3"/>
	<path class="st1" d="M130.5,176.9H90.1c-4.2,0-7.7-3.4-7.7-7.7v0c0-4.2,3.4-7.7,7.7-7.7h40.4c4.2,0,7.7,3.4,7.7,7.7v0
		C138.1,173.5,134.7,176.9,130.5,176.9z"/>
</g>
</svg>
