<?xml version="1.0" encoding="utf-8"?>
<!-- Generator: Adobe Illustrator 22.0.1, SVG Export Plug-In . SVG Version: 6.00 Build 0)  -->
<svg version="1.1" id="Layer_1" xmlns="http://www.w3.org/2000/svg" xmlns:xlink="http://www.w3.org/1999/xlink" x="0px" y="0px"
	 viewBox="0 0 142.8 148.4" style="enable-background:new 0 0 142.8 148.4;" xml:space="preserve">
<style type="text/css">
	.st0{fill:#7BCED3;}
	.st1{fill:#FFFFFF;}
</style>
<path class="st0" d="M22.6,148.4H0V49.5c0-0.5,0.4-0.8,0.8-0.8h21c0.5,0,0.8,0.4,0.8,0.8V148.4z"/>
<path class="st0" d="M53,148.4H30.3V9.4c0-0.5,0.4-0.8,0.8-0.8h21c0.5,0,0.8,0.4,0.8,0.8V148.4z"/>
<path class="st0" d="M83.3,85v63.4H60.7V72.3C66.6,79.2,74.7,83.6,83.3,85z"/>
<path class="st0" d="M113.7,148.4H91v-37.4c0-0.5,0.4-0.8,0.8-0.8h21c0.5,0,0.8,0.4,0.8,0.8V148.4z"/>
<g>
	<path class="st1" d="M106,72.2c-13.6,9.1-32.1,5.3-41.1-8.3c-9.1-13.6-5.3-32.1,8.3-41.1s32.1-5.3,41.1,8.3
		C123.4,44.7,119.6,63.2,106,72.2z M76.2,27.4c-11.1,7.4-14.1,22.3-6.7,33.4s22.3,14.1,33.4,6.7s14.1-22.3,6.7-33.4
		C102.3,23.1,87.3,20.1,76.2,27.4z"/>
	<path class="st1" d="M140.5,105.9c3.8,4.7,2.7,11.6-2.3,15s-11.8,1.6-14.7-3.7l-20.1-37.3c1.9-0.8,3.8-1.8,5.6-3
		c1.8-1.2,3.5-2.6,5-4.1L140.5,105.9z"/>
</g>
</svg>
