<?xml version="1.0" encoding="utf-8"?>
<!-- Generator: Adobe Illustrator 22.0.1, SVG Export Plug-In . SVG Version: 6.00 Build 0)  -->
<svg version="1.1" id="Layer_1" xmlns="http://www.w3.org/2000/svg" xmlns:xlink="http://www.w3.org/1999/xlink" x="0px" y="0px"
	 viewBox="0 0 142.8 148.4" style="enable-background:new 0 0 142.8 148.4;" xml:space="preserve">
<style type="text/css">
	.st0{fill:#7BCED3;}
	.st1{fill:#FFFFFF;}
</style>
<g>
	<g>
		<g>
			<path class="st0" d="M136,86.4l-6.8,6.7c0.1,0.4,0.1,0.7,0.1,1.1c0,14.5-11.8,26.3-26.3,26.3c-14.4,0-26.3-11.8-26.3-26.3
				S88.6,68,103,68c5.4,0,10.5,1.7,14.6,4.4l5.5-5.4c-5.6-4.2-12.6-6.6-20.1-6.6c-18.7,0-33.9,15.2-33.9,33.9s15.2,33.9,33.9,33.9
				s33.9-15.2,33.9-33.9C136.9,91.5,136.6,88.9,136,86.4z"/>
			<polygon class="st0" points="102.6,109.1 88.7,95.2 94.1,89.8 102.6,98.3 137.4,63.4 142.8,68.8 			"/>
		</g>
	</g>
	<path class="st1" d="M97.3,133.3c-2.3-0.3-4.6-0.8-6.9-1.6l-0.6-0.2l-0.1,0.6c-0.4,1.7-1.3,3.4-2.4,4.8c-1.8,2.2-4.2,3.4-6.7,3.4
		H18c-2.5,0-4.9-1.2-6.7-3.4c-2.6-3-3.6-7.3-2.9-11.5l8.5-47.4c1-5.6,5-9.6,9.6-9.6H72c0.4,0,0.8,0.1,1.3,0.1l0.3,0l0.2-0.2
		c1.7-2,3.6-3.9,5.6-5.5l0.7-0.5l-0.8-0.4c-2.3-1.2-4.8-1.8-7.3-1.8h-7c10-5.6,16.4-16.4,16.4-28C81.4,14.4,67,0,49.2,0
		S17.1,14.4,17.1,32.2c0,11.6,6.4,22.3,16.4,28h-7c-8.6,0-16,6.9-17.7,16.4L0.4,124c-1.2,6.6,0.5,13.4,4.6,18.2
		c3.3,4.1,8,6.3,13,6.3h62.5c5,0,9.6-2.2,13-6.3c1.9-2.3,3.4-5.1,4.2-8.2l0.2-0.6L97.3,133.3z M25.3,32.2c0-13.2,10.8-24,24-24
		s24,10.8,24,24s-10.8,24-24,24S25.3,45.4,25.3,32.2z"/>
</g>
</svg>
