<?xml version="1.0" encoding="utf-8"?>
<!-- Generator: Adobe Illustrator 22.0.1, SVG Export Plug-In . SVG Version: 6.00 Build 0)  -->
<svg version="1.1" id="Layer_1" xmlns="http://www.w3.org/2000/svg" xmlns:xlink="http://www.w3.org/1999/xlink" x="0px" y="0px"
	 viewBox="0 0 142.8 148.4" style="enable-background:new 0 0 142.8 148.4;" xml:space="preserve">
<style type="text/css">
	.st0{fill:#7BCED3;}
</style>
<path class="st0" d="M115,118.8c-0.5,0-1.1,0-1.6-0.1l-28.3,0c-4.4,0-7.9-3.6-7.9-7.9v-15c0-2,1.6-3.7,3.7-3.7h6.9L71.4,64L55,92.2
	H62c2,0,3.7,1.6,3.7,3.7v15c0,4.4-3.6,7.9-7.9,7.9H26.8C11.7,118.1,0,105.9,0,91c0-15.3,12.4-27.7,27.7-27.7c0.7,0,1.5,0,2.2,0.1
	c4.9-19.7,22.7-33.7,43.2-33.7s38.3,14,43.2,33.7c12.4,0.9,22.9,9.4,25.6,20.8v0c2,8.2,0.4,16.3-4.4,23
	c-4.7,6.5-11.9,10.7-19.9,11.5c-0.1,0-0.4,0-0.6,0.1C116.1,118.8,115.6,118.8,115,118.8z M115,113.5c0.3,0,0.6,0,0.9,0l0.8-0.1
	c6.9-0.6,12.8-4,16.6-9.3c3.9-5.4,5.1-12,3.5-18.6c-2.3-9.7-11.7-16.8-22.2-16.8h-2.2l-0.8-2.1C107.9,48.2,91.7,35,73.1,35
	c-18.8,0-34.9,13.4-38.5,31.8l-0.5,2.5l-2.5-0.4c-1.2-0.2-2.5-0.3-3.8-0.3C15.4,68.6,5.3,78.6,5.3,91c0,12.1,9.5,21.9,21.6,22.4
	l30.8,0c1.4,0,2.6-1.2,2.6-2.6V97.5h-8.1c-1.3,0-2.5-0.7-3.2-1.8c-0.7-1.1-0.6-2.5,0-3.7l19.2-33.1c1.3-2.3,5-2.3,6.3,0L93.7,92
	c0.7,1.1,0.7,2.5,0,3.7c-0.7,1.1-1.9,1.8-3.2,1.8h-8.1v13.3c0,1.4,1.2,2.6,2.6,2.6h28.7C114.3,113.5,114.6,113.4,115,113.5z
	 M53.6,94.6L53.6,94.6C53.6,94.6,53.6,94.6,53.6,94.6z"/>
</svg>
