<?xml version="1.0" encoding="utf-8"?>
<!-- Generator: Adobe Illustrator 22.0.1, SVG Export Plug-In . SVG Version: 6.00 Build 0)  -->
<svg version="1.1" id="Layer_1" xmlns="http://www.w3.org/2000/svg" xmlns:xlink="http://www.w3.org/1999/xlink" x="0px" y="0px"
	 viewBox="0 0 142.8 148.4" style="enable-background:new 0 0 142.8 148.4;" xml:space="preserve">
<style type="text/css">
	.st0{opacity:0.25;fill:#7BCED3;}
	.st1{fill:#7BCED3;}
	.st2{fill:#FFFFFF;}
</style>
<g>
	<path class="st0" d="M51.4,61.2c-0.1,0-0.2,0.1-0.3,0.2c-0.3,0.2-0.6,0.4-0.9,0.5c-0.2,0.1-0.3,0.2-0.5,0.3h3.1
		c0-0.3,0.1-0.7,0.3-1H51.4z M101.2,77.8L101.2,77.8c0.3,0,0.6,0,1,0v-0.1C101.8,77.7,101.5,77.8,101.2,77.8z M62.8,62.2h4
		c0-0.3,0-0.7-0.1-1h-3.9v-1.6c-0.1,0-0.2,0-0.3,0c-0.2,0-0.4-0.1-0.7-0.1v1.7h-0.7c0.1,0.3,0.2,0.6,0.3,1h0.5v5.6h-5.5v-0.9
		c-0.3-0.1-0.7-0.2-1-0.3v1.3h-5.6v-5.6c-0.3,0.2-0.7,0.4-1,0.6v4.7c0.3,0.5,0.6,1,1,1.4v-0.1h5.6v3.4c0.3,0.1,0.7,0.1,1,0.1v-3.6
		h5.5v2.4c0.3-0.2,0.7-0.4,1-0.6v-1.8h1.8c0.3-0.3,0.5-0.6,0.7-1h-2.6V62.2z M139.6,41.6c-0.2,0.3-0.5,0.7-0.7,1h1.5v5.5h-5.5v-0.3
		c-0.3,0.4-0.6,0.9-1,1.3v5.5h-4.3c-0.3,0.3-0.5,0.7-0.8,1h5.1v5.5h-5.5v-5c-0.3,0.4-0.6,0.8-1,1.2v3.8H124c-0.3,0.3-0.5,0.7-0.9,1
		h4.2v5.6h-5.6v-4.1c-0.3,0.4-0.7,0.7-1,1v3h-3c-0.3,0.3-0.7,0.7-1.1,1h4.1v5.5h-4.3c0.1,0.3,0.3,0.7,0.4,1h3.9v5.6h-3.2
		c0,0.3-0.1,0.7-0.1,1h3.3v5.5h-5.4c-0.3,0.5-0.6,0.9-0.9,1.3c-0.1,0.1-0.1,0.2-0.2,0.2V94h-5.5V93c-0.3,0.1-0.7,0.3-1,0.4V94h-5.5
		v-0.1c-0.3,0-0.7-0.1-1-0.1V94h-5.6v-2.4c-0.3-0.2-0.7-0.5-1-0.7V94H89v-5.6h3.1c-0.2-0.3-0.5-0.6-0.7-1H89v-5.5h0.4
		c0-0.2-0.1-0.4-0.1-0.6c0,0,0,0,0,0c0-0.1,0-0.3,0-0.4H89v-5.6h1c0.1-0.3,0.2-0.7,0.4-1H89v-0.9c-0.3-0.2-0.7-0.4-1-0.6v1.5h-5.6
		v-5.2c-0.6-0.4-1.3-0.9-1.9-1.3H76v-3c-0.1,0-0.2-0.1-0.3-0.1c-0.1,0-0.2-0.1-0.2-0.1c-0.2-0.1-0.3-0.2-0.5-0.3v3.5h-4.9
		c0.1,0,0.1,0.1,0.2,0.1c-0.1,0.3-0.3,0.6-0.4,0.9H75v5.5h-5.6v-4.5c-0.1,0.1-0.1,0.2-0.2,0.3c-0.2,0.4-0.5,0.8-0.8,1.1v3.1h-3.2
		c-0.4,0.3-0.8,0.5-1.2,0.7c-0.2,0.1-0.3,0.2-0.5,0.3h4.9v5.6h-5.5v-5.2c-0.3,0.2-0.7,0.3-1,0.4v4.8h-5.5v-4.1c-0.1,0-0.3,0-0.4,0
		c-0.2,0-0.4,0-0.6-0.1v4.2h-5.6v-5.6h1c-0.7-0.4-1.4-0.8-2-1.3v0.3h-5.5v-5.5h1.2c-0.2-0.3-0.3-0.6-0.4-1h-0.5
		c-0.4,0.5-0.8,0.9-1.2,1.5v5.1h-3.3c-0.2,0.3-0.4,0.7-0.6,1h3.9v5.6h-5.5v-2.6c-0.3,0.6-0.7,1.2-1,1.8v0.8h-0.4
		c-0.2,0.3-0.3,0.7-0.5,1h0.9v5.5H32c-0.2,0.3-0.3,0.7-0.5,1h4.2V94h-1.1c-0.2,0.3-0.4,0.7-0.6,1h1.7v0c0.4,0.9,0.8,1.8,1,2.7V95
		h5.5v5.5h-5.1c0,0.2,0,0.4,0,0.6c0,0.1,0,0.2,0,0.3h5.1v5.6h-5.5v-2.4c-0.1,0.5-0.3,1-0.5,1.5c-0.2,0.6-0.5,1.3-0.9,1.8h0.4v5.6
		h-5.5v-0.3c-0.1,0.1-0.2,0.1-0.3,0.2c-0.8,0.4-1.5,0.8-2.4,1h1.7v5.6h-5.6v-4.9c-0.2,0-0.4,0-0.6,0c-0.1,0-0.3,0-0.4,0v4.9H17v-5.6
		h1.5c-0.9-0.3-1.7-0.6-2.5-1.1v0.1h-5.5V108h0.1c-0.4-0.8-0.8-1.6-1.1-2.5v1.5H4v-5.6h4.9c0-0.1,0-0.2,0-0.3c0-0.2,0-0.4,0-0.6H4
		V95h5.5v1.8c0.3-0.8,0.6-1.6,1-2.3c-0.3-0.3-0.7-0.5-1-0.8V94H4v-5.6h0.6c-0.2-0.3-0.3-0.5-0.5-0.7c0,0,0,0,0,0
		C4,87.5,4,87.5,4,87.4c-0.1-0.2-0.2-0.3-0.3-0.4c0,0,0,0,0-0.1c-0.2-0.3-0.3-0.5-0.4-0.7C3.1,86.1,3.1,86,3,85.9c0,0,0,0,0,0
		c0,0,0-0.1-0.1-0.1v62.3h1v-0.7h5.5v0.7h1v-0.7H16v0.7h1v-0.7h5.5v0.7h1v-0.7h5.6v0.7h1v-0.7h5.5v0.7h1v-0.7h5.5v0.7h1v-0.7h5.5
		v0.7h1v-0.7h5.6v0.7h1v-0.7h5.5v0.7h1v-0.7h5.5v0.7h1v-0.7H75v0.7h1v-0.7h5.5v0.7h1v-0.7H88v0.7h1v-0.7h5.5v0.7h1v-0.7h5.6v0.7h1
		v-0.7h5.5v0.7h1v-0.7h5.5v0.7h1v-0.7h5.5v0.7h1v-0.7h5.6v0.7h1v-0.7h5.5v0.7h1v-0.7h5.5v0.7h1V41.6H139.6z M134.9,55.7h5.5v5.5
		h-5.5V55.7z M134.9,133.3v-5.6h5.5v5.6H134.9z M140.4,134.2v5.6h-5.5v-5.6H140.4z M134.9,126.7v-5.5h5.5v5.5H134.9z M134.9,120.2
		v-5.6h5.5v5.6H134.9z M134.9,113.6V108h5.5v5.6H134.9z M134.9,107.1v-5.6h5.5v5.6H134.9z M134.9,100.5V95h5.5v5.5H134.9z M134.9,94
		v-5.6h5.5V94H134.9z M134.9,87.4v-5.5h5.5v5.5H134.9z M134.9,80.9v-5.6h5.5v5.6H134.9z M134.9,74.4v-5.5h5.5v5.5H134.9z
		 M134.9,67.8v-5.6h5.5v5.6H134.9z M133.9,75.3v5.6h-5.5v-5.6H133.9z M128.3,74.4v-5.5h5.5v5.5H128.3z M133.9,81.9v5.5h-5.5v-5.5
		H133.9z M133.9,88.4V94h-5.5v-5.6H133.9z M133.9,95v5.5h-5.5V95H133.9z M133.9,101.5v5.6h-5.5v-5.6H133.9z M133.9,108v5.6h-5.5V108
		H133.9z M133.9,114.6v5.6h-5.5v-5.6H133.9z M133.9,121.2v5.5h-5.5v-5.5H133.9z M133.9,127.7v5.6h-5.5v-5.6H133.9z M133.9,134.2v5.6
		h-5.5v-5.6H133.9z M128.3,62.2h5.5v5.6h-5.5V62.2z M127.3,81.9v5.5h-5.6v-5.5H127.3z M121.7,80.9v-5.6h5.6v5.6H121.7z M127.3,88.4
		V94h-5.6v-5.6H127.3z M127.3,95v5.5h-5.6V95H127.3z M127.3,101.5v5.6h-5.6v-5.6H127.3z M127.3,108v5.6h-5.6V108H127.3z
		 M127.3,114.6v5.6h-5.6v-5.6H127.3z M127.3,121.2v5.5h-5.6v-5.5H127.3z M127.3,127.7v5.6h-5.6v-5.6H127.3z M127.3,134.2v5.6h-5.6
		v-5.6H127.3z M121.7,68.8h5.6v5.5h-5.6V68.8z M115.2,88.4h5.5V94h-5.5V88.4z M115.2,95h5.5v5.5h-5.5V95z M115.2,101.5h5.5v5.6h-5.5
		V101.5z M115.2,108h5.5v5.6h-5.5V108z M115.2,114.6h5.5v5.6h-5.5V114.6z M115.2,121.2h5.5v5.5h-5.5V121.2z M115.2,127.7h5.5v5.6
		h-5.5V127.7z M115.2,134.2h5.5v5.6h-5.5V134.2z M108.7,95h5.5v5.5h-5.5V95z M108.7,101.5h5.5v5.6h-5.5V101.5z M108.7,108h5.5v5.6
		h-5.5V108z M108.7,114.6h5.5v5.6h-5.5V114.6z M108.7,121.2h5.5v5.5h-5.5V121.2z M108.7,127.7h5.5v5.6h-5.5V127.7z M108.7,134.2h5.5
		v5.6h-5.5V134.2z M102.1,95h5.5v5.5h-5.5V95z M102.1,101.5h5.5v5.6h-5.5V101.5z M102.1,108h5.5v5.6h-5.5V108z M102.1,114.6h5.5v5.6
		h-5.5V114.6z M102.1,121.2h5.5v5.5h-5.5V121.2z M102.1,127.7h5.5v5.6h-5.5V127.7z M102.1,134.2h5.5v5.6h-5.5V134.2z M95.6,95h5.6
		v5.5h-5.6V95z M95.6,101.5h5.6v5.6h-5.6V101.5z M95.6,108h5.6v5.6h-5.6V108z M95.6,114.6h5.6v5.6h-5.6V114.6z M95.6,121.2h5.6v5.5
		h-5.6V121.2z M95.6,127.7h5.6v5.6h-5.6V127.7z M95.6,134.2h5.6v5.6h-5.6V134.2z M94.6,108v5.6H89V108H94.6z M89,107.1v-5.6h5.5v5.6
		H89z M94.6,114.6v5.6H89v-5.6H94.6z M94.6,121.2v5.5H89v-5.5H94.6z M94.6,127.7v5.6H89v-5.6H94.6z M94.6,134.2v5.6H89v-5.6H94.6z
		 M94.6,95v5.5H89V95H94.6z M82.5,75.3H88v5.6h-5.6V75.3z M81.5,88.4V94H76v-5.6H81.5z M76,87.4v-5.5h5.5v5.5H76z M81.5,95v5.5H76
		V95H81.5z M81.5,101.5v5.6H76v-5.6H81.5z M81.5,108v5.6H76V108H81.5z M81.5,114.6v5.6H76v-5.6H81.5z M81.5,121.2v5.5H76v-5.5H81.5z
		 M81.5,127.7v5.6H76v-5.6H81.5z M81.5,134.2v5.6H76v-5.6H81.5z M81.5,80.9H76v-5.6h5.5V80.9z M82.5,126.7v-5.5H88v5.5H82.5z
		 M88,127.7v5.6h-5.6v-5.6H88z M82.5,120.2v-5.6H88v5.6H82.5z M82.5,113.6V108H88v5.6H82.5z M82.5,107.1v-5.6H88v5.6H82.5z
		 M82.5,100.5V95H88v5.5H82.5z M82.5,94v-5.6H88V94H82.5z M82.5,87.4v-5.5H88v5.5H82.5z M82.5,134.2H88v5.6h-5.6V134.2z M76,68.8
		h5.5v5.5H76V68.8z M69.4,75.3H75v5.6h-5.6V75.3z M69.4,81.9H75v5.5h-5.6V81.9z M69.4,88.4H75V94h-5.6V88.4z M69.4,95H75v5.5h-5.6
		V95z M69.4,101.5H75v5.6h-5.6V101.5z M69.4,108H75v5.6h-5.6V108z M69.4,114.6H75v5.6h-5.6V114.6z M69.4,121.2H75v5.5h-5.6V121.2z
		 M69.4,127.7H75v5.6h-5.6V127.7z M69.4,134.2H75v5.6h-5.6V134.2z M62.8,81.9h5.5v5.5h-5.5V81.9z M62.8,88.4h5.5V94h-5.5V88.4z
		 M62.8,95h5.5v5.5h-5.5V95z M62.8,101.5h5.5v5.6h-5.5V101.5z M62.8,108h5.5v5.6h-5.5V108z M62.8,114.6h5.5v5.6h-5.5V114.6z
		 M62.8,121.2h5.5v5.5h-5.5V121.2z M62.8,127.7h5.5v5.6h-5.5V127.7z M62.8,134.2h5.5v5.6h-5.5V134.2z M56.3,81.9h5.5v5.5h-5.5V81.9z
		 M56.3,88.4h5.5V94h-5.5V88.4z M56.3,95h5.5v5.5h-5.5V95z M56.3,101.5h5.5v5.6h-5.5V101.5z M56.3,108h5.5v5.6h-5.5V108z
		 M56.3,114.6h5.5v5.6h-5.5V114.6z M56.3,121.2h5.5v5.5h-5.5V121.2z M56.3,127.7h5.5v5.6h-5.5V127.7z M56.3,134.2h5.5v5.6h-5.5
		V134.2z M49.7,81.9h5.6v5.5h-5.6V81.9z M49.7,88.4h5.6V94h-5.6V88.4z M49.7,95h5.6v5.5h-5.6V95z M49.7,101.5h5.6v5.6h-5.6V101.5z
		 M49.7,108h5.6v5.6h-5.6V108z M49.7,114.6h5.6v5.6h-5.6V114.6z M49.7,121.2h5.6v5.5h-5.6V121.2z M49.7,127.7h5.6v5.6h-5.6V127.7z
		 M49.7,134.2h5.6v5.6h-5.6V134.2z M48.7,88.4V94h-5.5v-5.6H48.7z M43.2,87.4v-5.5h5.5v5.5H43.2z M48.7,95v5.5h-5.5V95H48.7z
		 M48.7,101.5v5.6h-5.5v-5.6H48.7z M48.7,108v5.6h-5.5V108H48.7z M48.7,114.6v5.6h-5.5v-5.6H48.7z M48.7,121.2v5.5h-5.5v-5.5H48.7z
		 M48.7,127.7v5.6h-5.5v-5.6H48.7z M48.7,134.2v5.6h-5.5v-5.6H48.7z M43.2,75.3h5.5v5.6h-5.5V75.3z M42.2,81.9v5.5h-5.5v-5.5H42.2z
		 M36.7,94v-5.6h5.5V94H36.7z M36.7,108h5.5v5.6h-5.5V108z M36.7,114.6h5.5v5.6h-5.5V114.6z M36.7,121.2h5.5v5.5h-5.5V121.2z
		 M36.7,127.7h5.5v5.6h-5.5V127.7z M36.7,134.2h5.5v5.6h-5.5V134.2z M30.1,114.6h5.5v5.6h-5.5V114.6z M30.1,121.2h5.5v5.5h-5.5
		V121.2z M30.1,127.7h5.5v5.6h-5.5V127.7z M30.1,134.2h5.5v5.6h-5.5V134.2z M23.5,121.2h5.6v5.5h-5.6V121.2z M23.5,127.7h5.6v5.6
		h-5.6V127.7z M23.5,134.2h5.6v5.6h-5.6V134.2z M17,121.2h5.5v5.5H17V121.2z M17,127.7h5.5v5.6H17V127.7z M17,134.2h5.5v5.6H17
		V134.2z M10.5,114.6H16v5.6h-5.5V114.6z M10.5,121.2H16v5.5h-5.5V121.2z M10.5,127.7H16v5.6h-5.5V127.7z M10.5,134.2H16v5.6h-5.5
		V134.2z M9.5,121.2v5.5H4v-5.5H9.5z M4,120.2v-5.6h5.5v5.6H4z M9.5,127.7v5.6H4v-5.6H9.5z M9.5,134.2v5.6H4v-5.6H9.5z M9.5,108v5.6
		H4V108H9.5z M9.5,146.4H4v-5.5h5.5V146.4z M16,146.4h-5.5v-5.5H16V146.4z M22.6,146.4H17v-5.5h5.5V146.4z M29.2,146.4h-5.6v-5.5
		h5.6V146.4z M35.7,146.4h-5.5v-5.5h5.5V146.4z M42.2,146.4h-5.5v-5.5h5.5V146.4z M48.7,146.4h-5.5v-5.5h5.5V146.4z M55.3,146.4
		h-5.6v-5.5h5.6V146.4z M61.9,146.4h-5.5v-5.5h5.5V146.4z M68.4,146.4h-5.5v-5.5h5.5V146.4z M75,146.4h-5.6v-5.5H75V146.4z
		 M81.5,146.4H76v-5.5h5.5V146.4z M88,146.4h-5.6v-5.5H88V146.4z M94.6,146.4H89v-5.5h5.5V146.4z M101.2,146.4h-5.6v-5.5h5.6V146.4z
		 M107.7,146.4h-5.5v-5.5h5.5V146.4z M114.2,146.4h-5.5v-5.5h5.5V146.4z M120.8,146.4h-5.5v-5.5h5.5V146.4z M127.3,146.4h-5.6v-5.5
		h5.6V146.4z M133.9,146.4h-5.5v-5.5h5.5V146.4z M140.4,146.4h-5.5v-5.5h5.5V146.4z M140.4,54.7h-5.5v-5.5h5.5V54.7z M115.2,72v-1.9
		c0,0-0.1,0.1-0.2,0.1c-0.2,0.2-0.5,0.4-0.7,0.6c0,0-0.1,0.1-0.1,0.1v0c0,0,0.1-0.1,0.1-0.1C114.7,71.3,114.9,71.6,115.2,72z
		 M98.9,88.4h2.3v0.9c0.3,0.1,0.6,0.1,1,0.2v-1h5.5v0.1c0.6-0.3,1.2-0.7,1.8-1.1h-0.8v-5.5h4.2c0.1-0.3,0.1-0.7,0.2-1h-4.4v-5.6h3.3
		c-0.2-0.3-0.4-0.7-0.6-1H110c0,0-0.1,0-0.1,0.1c-0.1,0.1-0.2,0.1-0.3,0.2c-0.2,0.1-0.3,0.2-0.5,0.3c0,0,0,0-0.1,0
		c-0.1,0.1-0.3,0.2-0.4,0.2c-0.2,0.1-0.5,0.3-0.7,0.4c-0.1,0.1-0.2,0.1-0.3,0.2v5.1h-0.2c-0.1,0.3-0.2,0.7-0.4,1h0.5v5.5h-5.5v-3.5
		c-0.3-0.1-0.7-0.3-1-0.5v4h-3.8C97.9,87.8,98.4,88.1,98.9,88.4z M94.6,81.9v1.9c0.3,0.6,0.6,1.2,1,1.7v-3.6h4.1
		c-0.2-0.3-0.3-0.6-0.4-1h-3.8v-4.1c-0.1,0-0.2-0.1-0.3-0.1c-0.2-0.1-0.4-0.2-0.7-0.3v4.5h-0.8c0,0.3,0.1,0.7,0.2,1H94.6z
		 M32.7,101.5c0-0.1,0-0.2,0-0.3c0-0.2,0-0.4,0-0.6h-2.5V95h0.3c-0.4-0.5-0.8-0.9-1.3-1.3V94h-1c-0.3,0.3-0.5,0.6-0.8,1h1.7v5.5h-2
		c0,0.2,0,0.4,0,0.6c0,0.1,0,0.2,0,0.3h2v5.6h-5.6v-1.7c-0.2,0-0.4,0-0.6,0c-0.1,0-0.3,0-0.4,0v1.7H17v-5.6h1.7c0-0.1,0-0.2,0-0.3
		c0-0.2,0-0.4,0-0.6H17V98c-0.1,0-0.1,0-0.2-0.1c0,0,0,0,0,0c-0.2,0-0.3-0.1-0.5-0.2c-0.1,0-0.2-0.1-0.3-0.1v2.9c0,0,0,0.1,0,0.1
		h-2.7c0,0.2,0,0.4,0,0.6c0,0.1,0,0.2,0,0.3H16v5.6h-0.8c0.5,0.7,1.1,1.3,1.7,1.8V108h5.5v2.8c0.1,0,0.3,0,0.4,0c0.2,0,0.4,0,0.6,0
		V108h5.6v0.6c0.6-0.5,1.1-1,1.5-1.6h-0.5v-5.6H32.7z M22.6,98.9L22.6,98.9c0.3,0,0.7-0.1,1-0.3v0C23.2,98.7,22.9,98.9,22.6,98.9z"
		/>
	<path class="st1" d="M10.5,94.5C10.5,94.5,10.5,94.5,10.5,94.5C10.5,94.5,10.5,94.5,10.5,94.5c-0.7,1.3-1,2.7-1,4.2v1.9H9.3
		c-0.2-0.1-0.3-0.2-0.4-0.3c-1.3-0.8-2.4-1.7-3.4-2.6c-0.5-0.5-1-1-1.5-1.5c-0.3-0.4-0.7-0.8-1-1.2c-0.1-0.1-0.2-0.2-0.3-0.3v-9.4
		c0,0,0.1,0.2,0.3,0.5c0,0,0,0.1,0.1,0.1c0,0,0,0,0,0c0,0.1,0.1,0.2,0.1,0.3c0.1,0.2,0.3,0.4,0.4,0.7c0,0,0,0,0,0.1
		c0.1,0.2,0.3,0.4,0.4,0.6c0,0,0,0,0,0c0.4,0.6,0.8,1.2,1.4,1.9C6.7,91.1,8.4,92.9,10.5,94.5z"/>
	<path class="st1" d="M46.4,71.9c0.1,0.2,0.3,0.3,0.4,0.5c-0.5,0.6-1,1.3-1.5,2c-0.2,0.3-0.4,0.7-0.6,1c-0.5,0.8-1,1.6-1.5,2.5
		c-0.3,0.6-0.7,1.1-1,1.7c-0.2,0.4-0.5,0.9-0.7,1.3c-0.2,0.3-0.3,0.6-0.5,1c-0.7,1.4-1.5,2.9-2.2,4.3c-0.2,0.4-0.4,0.8-0.6,1.3
		c-0.2,0.3-0.3,0.7-0.5,1c-0.3,0.6-0.6,1.3-1,1.9c-0.3,0.6-0.7,1.2-1,1.8c-0.3,0.5-0.5,1-0.8,1.5c-1-1.6-2.4-3-3.9-4.1
		c0.2-0.4,0.4-0.7,0.6-1.1c0.2-0.3,0.4-0.6,0.5-1c0.6-1.2,1.3-2.5,1.9-3.7c0.3-0.6,0.6-1.2,0.9-1.8c0.2-0.3,0.3-0.7,0.5-1
		c0.1-0.2,0.2-0.4,0.3-0.7c0.3-0.6,0.7-1.2,1-1.8c0.5-1,1.1-2.1,1.7-3.1c0.2-0.3,0.4-0.6,0.6-1c1-1.7,2.1-3.4,3.3-5
		c0.4-0.5,0.8-1,1.2-1.5c0.1-0.2,0.3-0.3,0.4-0.5c0.1,0.2,0.1,0.3,0.2,0.5c0.1,0.3,0.3,0.7,0.4,1c0.2,0.3,0.3,0.6,0.5,1
		C45.3,70.5,45.8,71.2,46.4,71.9L46.4,71.9z"/>
	<path class="st1" d="M54.3,65.9c-0.6,0.3-1.2,0.6-1.8,0.9c-0.2,0.1-0.4,0.3-0.7,0.4c-0.3,0.2-0.5,0.4-0.8,0.5
		c-0.4,0.3-0.8,0.6-1.1,1c-0.1,0-0.1,0.1-0.2,0.2c0,0,0,0,0,0v-0.1c-0.4-0.4-0.7-0.9-1-1.4c-0.7-1.2-1.1-2.4-1.2-3.8c0,0,0,0,0,0
		c0.9-0.7,1.8-1.3,2.7-1.9h0c0.3-0.2,0.6-0.3,0.9-0.5c0.1-0.1,0.2-0.1,0.3-0.2c0.7-0.3,1.5-0.7,2.2-0.9c-0.2,0.3-0.3,0.6-0.5,0.9
		c-0.1,0.3-0.2,0.6-0.3,1c0,0.2,0,0.3,0,0.5C52.9,64,53.5,65.1,54.3,65.9z"/>
	<path class="st1" d="M66.8,62.2c0,0.2,0,0.3,0,0.5c0,1.2-0.2,2.4-0.6,3.4c-0.9-0.3-1.8-0.5-2.6-0.8c-0.3,0-0.5-0.1-0.7-0.2
		c0,0,0,0,0,0c-0.3-0.1-0.6-0.1-0.9-0.1c-0.4-0.1-0.8-0.1-1.1-0.1c0.4-0.7,0.7-1.4,0.7-2.3c0-0.2,0-0.3,0-0.5c0-0.3-0.1-0.7-0.3-1
		c-0.3-0.7-0.7-1.3-1.2-1.8c0.7,0,1.3,0,2,0.1c0.2,0,0.5,0.1,0.7,0.1c0.1,0,0.2,0,0.3,0c0.2,0,0.4,0.1,0.6,0.1
		c1.1,0.2,2.1,0.4,3.1,0.7c0.1,0.2,0.1,0.5,0.1,0.7C66.8,61.6,66.8,61.9,66.8,62.2z"/>
	<path class="st1" d="M89,73.5c0.5,0.3,0.9,0.6,1.4,0.8c0,0,0,0,0,0c-0.1,0.3-0.3,0.6-0.4,1c-0.5,1.4-0.7,2.9-0.7,4.5v0.1
		c-0.1,0-0.2-0.1-0.3-0.1c-0.3-0.2-0.7-0.4-1-0.5c-1.9-1.1-3.8-2.3-5.6-3.5c-0.7-0.5-1.3-0.9-2-1.4c-0.1-0.1-0.3-0.2-0.4-0.3
		c-1.4-0.9-2.8-1.9-4.2-2.8c-0.3-0.2-0.7-0.4-1-0.6c-1-0.6-2-1.2-3-1.8c-0.5-0.3-1.1-0.6-1.7-0.9c-0.1,0-0.1-0.1-0.2-0.1h0.2
		c0,0,0,0,0-0.1c0.6-1.5,0.9-3.3,0.9-5c0-0.1,0-0.3,0-0.4c1.4,0.7,2.8,1.4,4.2,2.2c0.1,0,0.2,0.1,0.2,0.1c0.1,0,0.2,0.1,0.3,0.1
		c2.5,1.5,5,3.2,7.3,4.8C85.3,71,87.2,72.4,89,73.5z"/>
	<path class="st1" d="M112,75.3c0.6,1.1,0.9,2.3,1.1,3.5c-0.1,0-0.1,0.1-0.2,0.2c-0.8,0.6-1.7,1.1-2.5,1.6c-0.2,0.1-0.3,0.2-0.5,0.3
		c-0.1,0.1-0.2,0.1-0.4,0.2c-0.6,0.3-1.2,0.6-1.8,0.8c-0.2,0.1-0.5,0.2-0.7,0.3c0.1-0.1,0.1-0.2,0.2-0.3c0.2-0.3,0.3-0.6,0.4-1
		c0.1-0.3,0.1-0.7,0.1-1.1c0-1.3-0.6-2.4-1.5-3.2c0.5-0.2,1-0.5,1.5-0.8c0.1-0.1,0.2-0.1,0.3-0.2c0.2-0.1,0.5-0.3,0.7-0.4
		c0.1-0.1,0.2-0.2,0.4-0.2c0,0,0,0,0.1,0c0.2-0.1,0.3-0.2,0.5-0.3c0.1-0.1,0.2-0.1,0.3-0.2c0,0,0.1,0,0.1-0.1
		c0.3-0.2,0.6-0.4,0.9-0.7c0.2,0.2,0.3,0.4,0.5,0.7C111.6,74.7,111.8,75,112,75.3z"/>
	<path class="st1" d="M141.6,39v9c-0.1,0.1-0.2,0.2-0.3,0.3c-0.3,0.4-0.6,0.9-1,1.3c-0.8,1.1-1.6,2.1-2.4,3.2
		c-0.5,0.6-1,1.3-1.5,1.9c-0.3,0.3-0.5,0.7-0.8,1c-0.3,0.4-0.6,0.8-0.9,1.1c-0.3,0.4-0.7,0.8-1,1.2c-0.9,1.1-1.7,2.2-2.6,3.2
		c-0.3,0.3-0.5,0.7-0.8,1c-0.7,0.8-1.4,1.6-2.1,2.4c-0.3,0.4-0.6,0.7-1,1.1c-0.6,0.7-1.3,1.4-1.9,2.1c-0.3,0.3-0.6,0.7-0.9,1
		c-0.9,0.9-1.8,1.9-2.8,2.8c-0.3,0.3-0.7,0.6-1,0.9c-0.7,0.7-1.4,1.3-2.1,1.9c-0.4,0.3-0.8,0.7-1.1,1c-0.2,0.2-0.4,0.3-0.6,0.5
		c0-0.2-0.1-0.3-0.2-0.5c-0.1-0.3-0.2-0.7-0.4-1c-0.3-0.8-0.8-1.6-1.3-2.3c-0.3-0.4-0.5-0.8-0.8-1.2c0.2-0.2,0.5-0.4,0.7-0.6
		c0.6-0.5,1.1-1,1.6-1.5c0.4-0.3,0.7-0.7,1-1c1-1,2-2,3-3c0.3-0.3,0.7-0.7,1-1c0.5-0.5,1-1,1.5-1.6c0.3-0.3,0.6-0.6,0.9-1
		c1.1-1.2,2.2-2.5,3.3-3.8c0.3-0.4,0.7-0.8,1-1.2c0.2-0.2,0.3-0.4,0.5-0.6c0.3-0.3,0.5-0.7,0.8-1c0.5-0.6,1-1.3,1.5-1.9
		c0.9-1.2,1.8-2.4,2.8-3.5c0.3-0.4,0.7-0.9,1-1.3c1.3-1.8,2.7-3.6,4-5.3h0c0.2-0.3,0.5-0.7,0.7-1c0,0,0,0,0.1-0.1
		C140.3,40.7,141,39.8,141.6,39z"/>
	<polygon class="st2" points="141.6,148.4 0,148.4 0,0 5.4,0 5.4,143 141.6,143 	"/>
	<g>
		<path class="st2" d="M22.6,98.9c0.3,0,0.7-0.2,1-0.3v0C23.2,98.7,22.9,98.8,22.6,98.9L22.6,98.9z"/>
		<path class="st2" d="M29.9,100.5c-0.1-0.9-0.3-1.8-0.8-2.6c-0.5-1-1.2-1.8-2.1-2.4c-1.1-0.8-2.6-1.3-4.1-1.3c-2.7,0-5,1.5-6.2,3.7
			c0,0,0,0,0,0c-0.4,0.8-0.7,1.6-0.8,2.5c0,0,0,0.1,0,0.1c0,0.2,0,0.4,0,0.6c0,0.1,0,0.2,0,0.3c0,0.1,0,0.2,0,0.4
			c0.1,0.6,0.2,1.1,0.4,1.7c0.1,0.4,0.3,0.8,0.6,1.2c0.6,0.9,1.3,1.7,2.3,2.3c0.8,0.5,1.7,0.8,2.7,1c0.2,0,0.4,0.1,0.6,0.1
			c0.1,0,0.3,0,0.4,0c0.2,0,0.4,0,0.6,0c0.2,0,0.3,0,0.5-0.1c1-0.1,1.9-0.5,2.6-1c1.1-0.7,1.9-1.6,2.5-2.7c0.5-1,0.8-2.1,0.8-3.2
			C29.9,100.9,29.9,100.7,29.9,100.5z M26.8,103.1c-0.6,1.2-1.8,2.1-3.2,2.3c-0.2,0-0.4,0-0.6,0c-0.1,0-0.3,0-0.4,0
			c-0.9-0.1-1.8-0.5-2.4-1.1c-0.8-0.7-1.3-1.7-1.4-2.8c0-0.1,0-0.2,0-0.3c0-0.2,0-0.4,0-0.6c0.1-0.7,0.4-1.3,0.8-1.9
			c0.8-1.1,2-1.8,3.4-1.8c0.8,0,1.5,0.2,2.2,0.6c1.1,0.6,1.8,1.7,2,3c0,0.2,0,0.4,0,0.6c0,0.1,0,0.2,0,0.3
			C27.2,102.1,27,102.6,26.8,103.1z"/>
		<path class="st1" d="M32.6,100.5c-0.1-0.9-0.3-1.8-0.5-2.6c-0.4-1.1-1-2.1-1.7-2.9c-0.4-0.5-0.8-0.9-1.3-1.3
			c-0.2-0.1-0.3-0.3-0.5-0.4c-1.6-1.2-3.6-1.8-5.7-1.8c-3.8,0-7.1,2.2-8.7,5.4c-0.6,1.1-0.9,2.4-1,3.7c0,0.2,0,0.4,0,0.6
			c0,0.1,0,0.2,0,0.3c0,0.4,0,0.7,0.1,1c0.2,1.7,0.9,3.2,1.9,4.5c0.5,0.7,1.1,1.3,1.7,1.8c1.5,1.2,3.5,2,5.5,2c0.1,0,0.3,0,0.4,0
			c0.2,0,0.4,0,0.6,0c2.1-0.1,4.1-0.9,5.6-2.2c0.6-0.5,1.1-1,1.5-1.6c1.2-1.6,1.9-3.5,2-5.6c0-0.1,0-0.2,0-0.3
			C32.7,101,32.7,100.7,32.6,100.5z M26.8,103.1c-0.6,1.2-1.8,2.1-3.2,2.3c-0.2,0-0.4,0-0.6,0c-0.1,0-0.3,0-0.4,0
			c-0.9-0.1-1.8-0.5-2.4-1.1c-0.8-0.7-1.3-1.7-1.4-2.8c0-0.1,0-0.2,0-0.3c0-0.2,0-0.4,0-0.6c0.1-0.7,0.4-1.3,0.8-1.9
			c0.8-1.1,2-1.8,3.4-1.8c0.8,0,1.5,0.2,2.2,0.6c1.1,0.6,1.8,1.7,2,3c0,0.2,0,0.4,0,0.6c0,0.1,0,0.2,0,0.3
			C27.2,102.1,27,102.6,26.8,103.1z"/>
	</g>
	<g>
		<path class="st2" d="M64.1,62.2c0-0.3-0.1-0.7-0.1-1c-0.1-0.5-0.3-1-0.5-1.4c-1.1-2.4-3.5-4-6.3-4c-3.5,0-6.5,2.6-6.9,6.1h0
			c0,0,0,0.1,0,0.1c0,0.1,0,0.2,0,0.3c0,0.2,0,0.3,0,0.5c0,1.7,0.6,3.3,1.7,4.5c0.2,0.2,0.4,0.4,0.5,0.5c0.4,0.4,0.8,0.7,1.3,1
			c0.5,0.3,1,0.5,1.6,0.6c0.3,0.1,0.6,0.2,1,0.2c0.3,0,0.5,0.1,0.8,0.1c1.2,0,2.4-0.3,3.4-0.9c0.9-0.5,1.7-1.2,2.3-2.1
			c0.3-0.4,0.5-0.9,0.7-1.3c0.3-0.8,0.5-1.7,0.5-2.7C64.1,62.6,64.1,62.4,64.1,62.2z M55.3,66.6c-0.4-0.2-0.7-0.4-1-0.7
			c-0.9-0.8-1.4-1.9-1.4-3.2c0-0.2,0-0.3,0-0.5c0-0.3,0.1-0.7,0.3-1c0.1-0.3,0.3-0.6,0.5-0.9c0.8-1.1,2.1-1.9,3.5-1.9
			c1,0,2,0.4,2.7,1c0.5,0.5,1,1.1,1.2,1.8c0.1,0.3,0.2,0.6,0.3,1c0,0.2,0,0.3,0,0.5c0,0.8-0.2,1.6-0.7,2.3c-0.8,1.2-2.1,2-3.6,2
			c-0.3,0-0.6,0-0.8-0.1C56,66.8,55.6,66.7,55.3,66.6z"/>
		<path class="st1" d="M66.8,62.2c0-0.3,0-0.7-0.1-1c0-0.2-0.1-0.5-0.1-0.7c-1-4.3-4.9-7.5-9.4-7.5c-5.4,0-9.7,4.4-9.7,9.7
			c0,0.3,0,0.7,0,1c0,0,0,0,0,0c0.1,1.4,0.6,2.7,1.2,3.8c0.3,0.5,0.6,1,1,1.4l0,0c1.4,1.7,3.3,2.8,5.6,3.3c0.3,0.1,0.7,0.1,1,0.1
			c0.3,0,0.6,0,0.8,0c1.7,0,3.3-0.4,4.7-1.2c0.3-0.2,0.7-0.4,1-0.6c0.7-0.5,1.3-1.1,1.8-1.8c0.3-0.3,0.5-0.6,0.7-1
			c0.3-0.5,0.6-1.1,0.8-1.7c0.4-1.1,0.6-2.2,0.6-3.4C66.9,62.6,66.9,62.4,66.8,62.2z M54.3,65.9c-0.9-0.8-1.4-1.9-1.4-3.2
			c0-0.2,0-0.3,0-0.5c0-0.3,0.1-0.7,0.3-1c0.1-0.3,0.3-0.6,0.5-0.9c0.8-1.1,2.1-1.9,3.5-1.9c1,0,2,0.4,2.7,1c0.5,0.5,1,1.1,1.2,1.8
			c0.1,0.3,0.2,0.6,0.3,1c0,0.2,0,0.3,0,0.5c0,0.8-0.2,1.6-0.7,2.3c-0.8,1.2-2.1,2-3.6,2c-0.3,0-0.6,0-0.8-0.1
			c-0.3-0.1-0.7-0.2-1-0.3C55,66.4,54.6,66.2,54.3,65.9z"/>
	</g>
	<g>
		<path class="st2" d="M101.2,77.8c0.3,0,0.6,0,1-0.1v0.1C101.8,77.8,101.5,77.8,101.2,77.8L101.2,77.8z"/>
		<path class="st2" d="M108.7,75.3C108.7,75.3,108.7,75.3,108.7,75.3L108.7,75.3c-1.3-1.5-3.2-2.5-5.3-2.5c-2.9,0-5.5,1.8-6.5,4.4
			c-0.3,0.8-0.5,1.7-0.5,2.6c0,0.4,0,0.7,0.1,1.1c0,0.3,0.1,0.7,0.2,1c0.1,0.3,0.2,0.6,0.4,1c0.8,1.7,2.3,3,4.1,3.6
			c0.3,0.1,0.6,0.2,1,0.3c0.4,0.1,0.8,0.1,1.3,0.1c1.6,0,3.1-0.5,4.3-1.5c0.4-0.3,0.7-0.6,1-0.9c0.6-0.7,1.1-1.6,1.4-2.5
			c0.1-0.3,0.2-0.6,0.2-1c0-0.1,0-0.2,0-0.3c0-0.3,0-0.5,0-0.8C110.4,78.1,109.8,76.5,108.7,75.3z M103.4,84.1
			c-0.5,0-0.9-0.1-1.3-0.2c-0.3-0.1-0.7-0.3-1-0.5v-0.2h-0.3c-0.5-0.4-0.9-0.8-1.1-1.3c-0.2-0.3-0.3-0.6-0.4-1
			c-0.1-0.3-0.1-0.7-0.1-1.1c0-0.8,0.2-1.5,0.5-2.1c0.7-1.3,2.1-2.2,3.7-2.2c1.1,0,2,0.4,2.8,1c0.9,0.8,1.5,1.9,1.5,3.2
			c0,0.4-0.1,0.7-0.1,1.1c-0.1,0.3-0.2,0.7-0.4,1c0,0.1-0.1,0.2-0.2,0.3C106.2,83.3,104.9,84.1,103.4,84.1z"/>
		<path class="st1" d="M113.1,78.9c-0.1-1.3-0.5-2.5-1.1-3.5c-0.2-0.3-0.4-0.7-0.6-1c-0.2-0.2-0.3-0.5-0.5-0.7
			c-1.8-2.2-4.5-3.5-7.5-3.5c-4.1,0-7.7,2.6-9.1,6.2c-0.4,1.1-0.6,2.3-0.6,3.5c0,0.4,0,0.7,0.1,1.1c0,0.3,0.1,0.7,0.2,1
			c0,0,0,0.1,0,0.1c0.1,0.6,0.3,1.3,0.6,1.8c0.3,0.6,0.6,1.2,1,1.7c0.5,0.7,1.1,1.4,1.8,1.9c0.5,0.4,1,0.7,1.5,1
			c0.7,0.4,1.5,0.7,2.3,0.9c0.3,0.1,0.6,0.1,1,0.2c0.4,0.1,0.8,0.1,1.3,0.1c1.5,0,3-0.4,4.3-1c0.6-0.3,1.2-0.7,1.8-1.1
			c1.7-1.4,3-3.3,3.5-5.5c0.1-0.3,0.1-0.7,0.2-1c0-0.4,0.1-0.7,0.1-1.1C113.1,79.5,113.1,79.2,113.1,78.9z M102.1,83.9
			c-0.3-0.1-0.7-0.3-1-0.5c-0.1-0.1-0.2-0.1-0.3-0.2c-0.5-0.4-0.9-0.8-1.1-1.3c-0.2-0.3-0.3-0.6-0.4-1c-0.1-0.3-0.1-0.7-0.1-1.1
			c0-0.8,0.2-1.5,0.5-2.1c0.7-1.3,2.1-2.2,3.7-2.2c1.1,0,2,0.4,2.8,1c0.9,0.8,1.5,1.9,1.5,3.2c0,0.4-0.1,0.7-0.1,1.1
			c-0.1,0.3-0.2,0.7-0.4,1c0,0.1-0.1,0.2-0.2,0.3c-0.8,1.2-2.1,1.9-3.6,1.9C103,84.1,102.5,84,102.1,83.9z"/>
	</g>
</g>
</svg>
