<?xml version="1.0" encoding="utf-8"?>
<!-- Generator: Adobe Illustrator 22.1.0, SVG Export Plug-In . SVG Version: 6.00 Build 0)  -->
<svg version="1.1" id="Layer_1" xmlns="http://www.w3.org/2000/svg" xmlns:xlink="http://www.w3.org/1999/xlink" x="0px" y="0px"
	 viewBox="0 0 715.6 156.7" style="enable-background:new 0 0 715.6 156.7;" xml:space="preserve">
<style type="text/css">
	.st0{fill:#FFFFFF;}
	.st1{fill:#8EB849;}
	.st2{fill:#A5ACBC;}
	.st3{opacity:0.5;fill:#A5ACBC;}
</style>
<g>
	<g>
		<path class="st0" d="M154.1,15c1.1-1.6,0.9-3.8-0.5-5.1l-6.3-6.3c-1.7-1.7-4.3-1.7-6,0L99.5,45.4l0,0L71.9,73
			c-1.7,1.7-1.7,4.3,0,6l8,8c1.7,1.7,4.3,1.7,6,0l17.8-17.8c1.2-1.2,3.2-0.6,3.7,1c3.9,14.1-2.5,30.5-19.3,37.1
			c-6.3,2.5-13.5,2.5-19.8,0C45.7,98.4,41.9,71.9,56.8,57c6.9-6.9,16.4-9.8,25.4-8.6c2.7,0.4,5-1.6,4.9-4.3L86.5,28
			c-0.1-2.3-1.9-4.1-4.2-4.1l-8.8,0c-2,0-3.8,1.5-4.2,3.5L69,29.3c-0.6,3.1-2.7,5.8-5.6,7l-4,1.7c-3.2,1.3-6.9,0.9-9.8-1.1l-1.1-0.8
			c-1.7-1.2-4-1-5.4,0.5l-6.6,6.6c-1.4,1.4-1.6,3.7-0.5,5.4l0.8,1.1c2,2.9,2.4,6.6,1.1,9.8l-1.5,3.5c-1.3,3.3-4.3,5.6-7.7,6.2
			l-1.4,0.2c-2,0.4-3.5,2.1-3.5,4.2v9.4c0,2,1.5,3.8,3.5,4.2l1.3,0.2c3.5,0.6,6.4,3,7.7,6.2l1.7,4c1.2,2.9,0.8,6.3-1,8.9l-1.1,1.6
			c-1.2,1.7-1,4,0.5,5.4l6.6,6.6c1.4,1.4,3.7,1.6,5.4,0.5l1.1-0.8c2.9-2,6.6-2.4,9.8-1.1l3.5,1.5c3.3,1.3,5.6,4.3,6.2,7.7l0.2,1.3
			c0.4,2,2.1,3.5,4.2,3.5l9.4,0c2,0,3.8-1.5,4.2-3.5l0.2-1.3c0.6-3.5,3-6.4,6.2-7.8l3.5-1.5c3.2-1.3,6.9-0.9,9.8,1.1l1.2,0.8
			c1.7,1.2,4,1,5.4-0.5l6.6-6.6c1.4-1.4,1.6-3.7,0.5-5.4l-0.8-1.2c-2-2.9-2.4-6.6-1.1-9.8l1.5-3.5c1.4-3.3,4.3-5.6,7.8-6.2l1.3-0.2
			c2-0.4,3.5-2.1,3.5-4.2l0-9.4c0-2-1.5-3.8-3.5-4.2l-1.9-0.3c-3.1-0.6-5.8-2.7-7-5.6l-1.9-4.5c-1.2-2.9-2.8-5.7-0.9-7.6L154.1,15z"
			/>
		<path class="st1" d="M134.2,46.1c-0.9,0.9-1.1,2.2-0.5,3.4c12.5,24,8.6,54.4-12,74.2c-10,9.6-22.6,15.1-35.6,16.7
			c-1,0.3-2,0.5-3.1,0.5h-2.8c-1.1,0-2.2,0-3.3,0h-3.3c-1.1,0-2.2-0.2-3.2-0.5c-12.6-1.5-24.8-6.8-34.6-15.9
			C9.5,100.2,8.9,59.1,33.9,34.1c20-20,50.1-23.5,73.8-10.9c1.1,0.6,2.5,0.4,3.4-0.5l7.3-7.3c1.3-1.3,1.1-3.6-0.5-4.5
			C87.2-7.2,46.7-2.6,21,24.7c-27.7,29.4-28.1,76.5-0.9,106.4c30.3,33.3,82.1,34.3,113.6,2.8c25.6-25.6,29.7-64.6,12.4-94.6
			c-0.9-1.6-3.2-1.9-4.6-0.6L134.2,46.1z"/>
	</g>
	<g>
		<g>
			<path class="st0" d="M205,54.3h9.6v15.2c-4.2,4.7-10.1,7.1-17.6,7.1c-6.3,0-11.5-2.1-15.8-6.2c-4.3-4.2-6.4-9.4-6.4-15.7
				c0-6.3,2.2-11.6,6.5-15.9c4.3-4.2,9.6-6.4,15.7-6.4c6.1,0,11.5,2,16,6.1l-5,7.2c-1.9-1.7-3.7-2.8-5.3-3.5
				c-1.6-0.6-3.4-0.9-5.2-0.9c-3.6,0-6.7,1.2-9.2,3.7c-2.5,2.5-3.7,5.7-3.7,9.8s1.2,7.3,3.6,9.7c2.4,2.4,5.2,3.6,8.5,3.6
				s6.1-0.6,8.3-1.9V54.3z"/>
			<path class="st0" d="M257.6,33.3v8.5h-21.3v8.8h19.1v8.1h-19.1v8.9h22v8.4h-31.5V33.3H257.6z"/>
			<path class="st0" d="M300.9,76.1l-4-9.2H279l-4,9.2h-10.2l18.5-42.7h9.2l18.5,42.7H300.9z M288,46.1l-5.4,12.4h10.7L288,46.1z"/>
			<path class="st0" d="M354.4,47.5c0,6.8-2.7,11.3-8.1,13.3l10.8,15.3h-11.7l-9.5-13.6h-6.6v13.6h-9.5V33.3h16.2
				c6.6,0,11.4,1.1,14.2,3.4C353,38.9,354.4,42.5,354.4,47.5z M342.9,52.6c1.2-1.1,1.8-2.7,1.8-5c0-2.3-0.6-3.9-1.8-4.7
				c-1.2-0.9-3.4-1.3-6.4-1.3h-7.2v12.7h7C339.5,54.2,341.7,53.7,342.9,52.6z"/>
			<path class="st1" d="M367.8,76.1V33.3h9.5v34.2h18.2v8.5H367.8z"/>
			<path class="st1" d="M437,33.3v8.5h-21.3v8.8h19.1v8.1h-19.1v8.9h22v8.4h-31.5V33.3H437z"/>
			<path class="st1" d="M480.3,76.1l-4-9.2h-17.9l-4,9.2h-10.2l18.5-42.7h9.2l18.5,42.7H480.3z M467.4,46.1l-5.4,12.4h10.7
				L467.4,46.1z"/>
			<path class="st1" d="M533.8,47.5c0,6.8-2.7,11.3-8.1,13.3l10.8,15.3h-11.7l-9.5-13.6h-6.6v13.6h-9.5V33.3h16.2
				c6.6,0,11.4,1.1,14.2,3.4C532.4,38.9,533.8,42.5,533.8,47.5z M522.3,52.6c1.2-1.1,1.8-2.7,1.8-5c0-2.3-0.6-3.9-1.8-4.7
				s-3.4-1.3-6.4-1.3h-7.2v12.7h7C518.9,54.2,521.1,53.7,522.3,52.6z"/>
			<path class="st1" d="M577.1,33.3h9.5v42.7h-9.5l-20.4-26.8v26.8h-9.5V33.3h8.9l21,27.5V33.3z"/>
			<path class="st1" d="M600.9,33.3h9.5v42.7h-9.5V33.3z"/>
			<path class="st1" d="M654.5,33.3h9.5v42.7h-9.5l-20.4-26.8v26.8h-9.5V33.3h8.9l21,27.5V33.3z"/>
			<path class="st1" d="M706,54.3h9.6v15.2c-4.2,4.7-10.1,7.1-17.6,7.1c-6.3,0-11.5-2.1-15.8-6.2c-4.3-4.2-6.4-9.4-6.4-15.7
				c0-6.3,2.2-11.6,6.5-15.9s9.6-6.4,15.7-6.4c6.1,0,11.5,2,16,6.1l-5,7.2c-1.9-1.7-3.7-2.8-5.3-3.5c-1.6-0.6-3.4-0.9-5.2-0.9
				c-3.6,0-6.7,1.2-9.2,3.7c-2.5,2.5-3.7,5.7-3.7,9.8s1.2,7.3,3.6,9.7c2.4,2.4,5.2,3.6,8.5,3.6c3.3,0,6.1-0.6,8.3-1.9V54.3z"/>
		</g>
		<g>
			<path class="st2" d="M179.9,121.6l2.2-7.1h1.5l2.2,7.1l2.5-7.1h1.8l-3.5,9.9H185l-2.1-6.8h-0.1l-2.1,6.8H179l-3.5-9.9h1.8
				L179.9,121.6z"/>
			<path class="st2" d="M191.2,115.4c-0.2-0.2-0.3-0.4-0.3-0.7c0-0.3,0.1-0.5,0.3-0.7c0.2-0.2,0.4-0.3,0.7-0.3
				c0.3,0,0.5,0.1,0.7,0.3c0.2,0.2,0.3,0.4,0.3,0.7c0,0.3-0.1,0.5-0.3,0.7c-0.2,0.2-0.4,0.3-0.7,0.3
				C191.6,115.7,191.4,115.6,191.2,115.4z M192.7,124.4h-1.6v-7.5h1.6V124.4z"/>
			<path class="st2" d="M200.1,122.2c0,0.7-0.3,1.3-0.8,1.7c-0.5,0.4-1.2,0.6-2,0.6c-0.5,0-1.1-0.1-1.7-0.3
				c-0.6-0.2-1.1-0.5-1.6-0.8l0.8-1.2c0.9,0.7,1.7,1,2.5,1c0.4,0,0.6-0.1,0.8-0.2c0.2-0.2,0.3-0.4,0.3-0.6c0-0.4-0.5-0.7-1.5-1
				c-0.1,0-0.1,0-0.2-0.1c-1.6-0.4-2.3-1.1-2.3-2.1c0-0.7,0.3-1.3,0.8-1.7c0.5-0.4,1.2-0.6,2.1-0.6c0.9,0,1.7,0.3,2.5,0.8l-0.6,1.2
				c-0.6-0.4-1.3-0.6-2-0.6c-0.4,0-0.7,0.1-0.9,0.2c-0.2,0.1-0.4,0.3-0.4,0.6c0,0.2,0.1,0.4,0.4,0.5c0.2,0.1,0.4,0.2,0.7,0.2
				c0.3,0.1,0.6,0.2,0.8,0.2c0.2,0.1,0.5,0.2,0.7,0.3c0.2,0.1,0.5,0.2,0.7,0.4C199.8,120.9,200.1,121.5,200.1,122.2z"/>
			<path class="st2" d="M204.9,124.5c-1,0-1.9-0.4-2.7-1.1c-0.8-0.7-1.1-1.6-1.1-2.8s0.4-2.1,1.2-2.8c0.8-0.7,1.7-1.1,2.9-1.1
				c1.1,0,2.1,0.4,2.9,1.2l-0.9,1.1c-0.7-0.6-1.3-0.9-2-0.9c-0.7,0-1.2,0.2-1.7,0.7c-0.5,0.4-0.7,1-0.7,1.7c0,0.7,0.2,1.3,0.7,1.8
				s1.1,0.7,1.8,0.7c0.7,0,1.4-0.3,2-1l0.9,1C207.2,124.1,206.1,124.5,204.9,124.5z"/>
			<path class="st2" d="M215.6,123.4c-0.8,0.8-1.7,1.1-2.8,1.1c-1.1,0-2.1-0.4-2.8-1.1c-0.8-0.8-1.1-1.7-1.1-2.8
				c0-1.1,0.4-2,1.1-2.8c0.8-0.8,1.7-1.1,2.8-1.1c1.1,0,2.1,0.4,2.8,1.1c0.8,0.8,1.1,1.7,1.1,2.8
				C216.7,121.7,216.3,122.7,215.6,123.4z M211.1,122.4c0.4,0.5,1,0.7,1.7,0.7c0.7,0,1.3-0.2,1.7-0.7c0.4-0.5,0.7-1.1,0.7-1.8
				s-0.2-1.3-0.7-1.8c-0.4-0.5-1-0.7-1.7-0.7c-0.7,0-1.3,0.2-1.7,0.7c-0.4,0.5-0.7,1.1-0.7,1.8S210.6,122,211.1,122.4z"/>
			<path class="st2" d="M219.8,120.3v4.1h-1.6v-7.5h1.6v1.4c0.3-0.5,0.6-0.8,1.1-1.1s0.9-0.4,1.4-0.4c0.8,0,1.5,0.3,2.1,0.8
				c0.5,0.5,0.8,1.3,0.8,2.3v4.6h-1.6v-4.1c0-1.4-0.6-2.1-1.7-2.1c-0.5,0-1,0.2-1.4,0.5C220,119.1,219.8,119.6,219.8,120.3z"/>
			<path class="st2" d="M232.4,122.2c0,0.7-0.3,1.3-0.8,1.7c-0.5,0.4-1.2,0.6-2,0.6c-0.5,0-1.1-0.1-1.7-0.3
				c-0.6-0.2-1.1-0.5-1.6-0.8l0.8-1.2c0.9,0.7,1.7,1,2.5,1c0.4,0,0.6-0.1,0.8-0.2c0.2-0.2,0.3-0.4,0.3-0.6c0-0.4-0.5-0.7-1.5-1
				c-0.1,0-0.1,0-0.2-0.1c-1.6-0.4-2.3-1.1-2.3-2.1c0-0.7,0.3-1.3,0.8-1.7c0.5-0.4,1.2-0.6,2.1-0.6c0.9,0,1.7,0.3,2.5,0.8l-0.6,1.2
				c-0.6-0.4-1.3-0.6-2-0.6c-0.4,0-0.7,0.1-0.9,0.2c-0.2,0.1-0.4,0.3-0.4,0.6c0,0.2,0.1,0.4,0.4,0.5c0.2,0.1,0.4,0.2,0.7,0.2
				c0.3,0.1,0.6,0.2,0.8,0.2c0.2,0.1,0.5,0.2,0.7,0.3c0.2,0.1,0.5,0.2,0.7,0.4C232.2,120.9,232.4,121.5,232.4,122.2z"/>
			<path class="st2" d="M234.1,115.4c-0.2-0.2-0.3-0.4-0.3-0.7c0-0.3,0.1-0.5,0.3-0.7c0.2-0.2,0.4-0.3,0.7-0.3
				c0.3,0,0.5,0.1,0.7,0.3c0.2,0.2,0.3,0.4,0.3,0.7c0,0.3-0.1,0.5-0.3,0.7c-0.2,0.2-0.4,0.3-0.7,0.3
				C234.5,115.7,234.3,115.6,234.1,115.4z M235.5,124.4H234v-7.5h1.6V124.4z"/>
			<path class="st2" d="M239.1,120.3v4.1h-1.6v-7.5h1.6v1.4c0.3-0.5,0.6-0.8,1.1-1.1s0.9-0.4,1.4-0.4c0.8,0,1.5,0.3,2.1,0.8
				c0.5,0.5,0.8,1.3,0.8,2.3v4.6h-1.6v-4.1c0-1.4-0.6-2.1-1.7-2.1c-0.5,0-1,0.2-1.4,0.5C239.3,119.1,239.1,119.6,239.1,120.3z"/>
			<path class="st2" d="M254.7,122.9c0.6,0,1.1-0.1,1.5-0.3c0.4-0.2,0.8-0.5,1.3-0.9l1.1,1.1c-1,1.2-2.3,1.7-3.8,1.7
				s-2.7-0.5-3.7-1.4c-1-1-1.5-2.2-1.5-3.7c0-1.5,0.5-2.7,1.5-3.7c1-1,2.3-1.5,3.8-1.5s2.8,0.6,3.8,1.7l-1.1,1.2
				c-0.5-0.5-0.9-0.8-1.3-1c-0.4-0.2-0.9-0.3-1.5-0.3c-1,0-1.8,0.3-2.5,1c-0.7,0.6-1,1.5-1,2.5c0,1,0.3,1.8,1,2.5
				C253,122.6,253.8,122.9,254.7,122.9z"/>
			<path class="st2" d="M267.1,121.4h-5.9c0,0.5,0.3,1,0.7,1.3c0.5,0.3,1,0.5,1.6,0.5c0.9,0,1.7-0.3,2.2-0.9l0.9,1
				c-0.8,0.8-1.9,1.3-3.2,1.3c-1.1,0-2-0.4-2.7-1.1c-0.7-0.7-1.1-1.6-1.1-2.8c0-1.2,0.4-2.1,1.1-2.8c0.8-0.7,1.6-1,2.7-1
				c1,0,1.9,0.3,2.6,0.9c0.7,0.6,1.1,1.5,1.1,2.6V121.4z M261.2,120.1h4.3c0-0.6-0.2-1.1-0.6-1.5c-0.4-0.3-0.9-0.5-1.5-0.5
				c-0.6,0-1.1,0.2-1.6,0.5C261.5,119,261.2,119.5,261.2,120.1z"/>
			<path class="st2" d="M270.2,120.3v4.1h-1.6v-7.5h1.6v1.4c0.3-0.5,0.6-0.8,1.1-1.1c0.4-0.3,0.9-0.4,1.4-0.4c0.8,0,1.5,0.3,2.1,0.8
				c0.5,0.5,0.8,1.3,0.8,2.3v4.6h-1.6v-4.1c0-1.4-0.6-2.1-1.7-2.1c-0.5,0-1,0.2-1.4,0.5C270.4,119.1,270.2,119.6,270.2,120.3z"/>
			<path class="st2" d="M279.3,118.2v3.8c0,0.4,0.1,0.6,0.3,0.9c0.2,0.2,0.5,0.3,0.8,0.3c0.3,0,0.7-0.2,1-0.5l0.7,1.1
				c-0.6,0.5-1.2,0.8-1.8,0.8c-0.7,0-1.3-0.2-1.7-0.7c-0.5-0.5-0.7-1.1-0.7-1.9v-3.8h-0.9v-1.3h0.9v-2.4h1.6v2.4h2v1.3H279.3z"/>
			<path class="st2" d="M290,121.4h-5.9c0,0.5,0.3,1,0.7,1.3c0.5,0.3,1,0.5,1.6,0.5c0.9,0,1.7-0.3,2.2-0.9l0.9,1
				c-0.8,0.8-1.9,1.3-3.2,1.3c-1.1,0-2-0.4-2.7-1.1c-0.7-0.7-1.1-1.6-1.1-2.8c0-1.2,0.4-2.1,1.1-2.8c0.8-0.7,1.6-1,2.7-1
				c1,0,1.9,0.3,2.6,0.9c0.7,0.6,1.1,1.5,1.1,2.6V121.4z M284.1,120.1h4.3c0-0.6-0.2-1.1-0.6-1.5c-0.4-0.3-0.9-0.5-1.5-0.5
				c-0.6,0-1.1,0.2-1.6,0.5C284.3,119,284.1,119.5,284.1,120.1z"/>
			<path class="st2" d="M295.4,118.4c-0.8,0-1.4,0.3-1.8,0.8c-0.4,0.5-0.6,1.2-0.6,2.1v3.2h-1.6v-7.5h1.6v1.5c0.3-0.5,0.6-0.9,1-1.2
				c0.4-0.3,0.9-0.5,1.4-0.5L295.4,118.4C295.4,118.4,295.4,118.4,295.4,118.4z"/>
			<path class="st2" d="M302.3,116.3v0.6h2v1.3h-2v6.3h-1.6v-6.3h-0.9v-1.3h0.9v-0.6c0-0.8,0.2-1.4,0.7-1.9c0.5-0.5,1.1-0.7,1.7-0.7
				s1.3,0.3,1.8,0.8l-0.7,1.1c-0.3-0.3-0.6-0.5-1-0.5s-0.6,0.1-0.8,0.3C302.4,115.6,302.3,115.9,302.3,116.3z"/>
			<path class="st2" d="M311.6,123.4c-0.8,0.8-1.7,1.1-2.8,1.1s-2.1-0.4-2.8-1.1c-0.8-0.8-1.1-1.7-1.1-2.8c0-1.1,0.4-2,1.1-2.8
				c0.8-0.8,1.7-1.1,2.8-1.1s2.1,0.4,2.8,1.1c0.8,0.8,1.1,1.7,1.1,2.8C312.8,121.7,312.4,122.7,311.6,123.4z M307.1,122.4
				c0.4,0.5,1,0.7,1.7,0.7s1.3-0.2,1.7-0.7c0.4-0.5,0.7-1.1,0.7-1.8s-0.2-1.3-0.7-1.8c-0.4-0.5-1-0.7-1.7-0.7s-1.3,0.2-1.7,0.7
				c-0.4,0.5-0.7,1.1-0.7,1.8S306.7,122,307.1,122.4z"/>
			<path class="st2" d="M318.2,118.4c-0.8,0-1.4,0.3-1.8,0.8c-0.4,0.5-0.6,1.2-0.6,2.1v3.2h-1.6v-7.5h1.6v1.5c0.3-0.5,0.6-0.9,1-1.2
				c0.4-0.3,0.9-0.5,1.4-0.5L318.2,118.4C318.3,118.4,318.3,118.4,318.2,118.4z"/>
			<path class="st2" d="M330.4,114.5v1.6h-5.3v2.6h4.7v1.5h-4.7v2.7h5.4v1.6h-7.1v-9.9H330.4z"/>
			<path class="st2" d="M332.8,123.5c-0.7-0.7-1.1-1.7-1.1-2.8c0-1.2,0.4-2.1,1.1-2.8c0.7-0.7,1.6-1,2.6-1s1.8,0.4,2.4,1.3v-4.1h1.6
				v10.5h-1.6v-1.1c-0.6,0.8-1.4,1.2-2.6,1.2C334.3,124.5,333.5,124.2,332.8,123.5z M333.3,120.7c0,0.7,0.2,1.3,0.7,1.8
				c0.5,0.5,1,0.7,1.6,0.7c0.6,0,1.2-0.2,1.6-0.7c0.4-0.5,0.7-1,0.7-1.8c0-0.7-0.2-1.3-0.7-1.8c-0.4-0.5-1-0.7-1.6-0.7
				c-0.6,0-1.2,0.2-1.6,0.7C333.5,119.4,333.3,120,333.3,120.7z"/>
			<path class="st2" d="M346.7,121v-4.1h1.6v7.5h-1.6v-1.4c-0.3,0.5-0.6,0.8-1.1,1.1c-0.4,0.3-0.9,0.4-1.5,0.4
				c-0.8,0-1.5-0.3-2.1-0.8c-0.5-0.5-0.8-1.3-0.8-2.3v-4.6h1.6v4.1c0,1.4,0.6,2.1,1.7,2.1c0.5,0,1-0.2,1.4-0.5
				C346.5,122.2,346.7,121.7,346.7,121z"/>
			<path class="st2" d="M353.6,124.5c-1,0-1.9-0.4-2.7-1.1c-0.8-0.7-1.1-1.6-1.1-2.8s0.4-2.1,1.2-2.8c0.8-0.7,1.7-1.1,2.9-1.1
				c1.1,0,2.1,0.4,2.9,1.2l-0.9,1.1c-0.7-0.6-1.3-0.9-2-0.9c-0.7,0-1.2,0.2-1.7,0.7c-0.5,0.4-0.7,1-0.7,1.7c0,0.7,0.2,1.3,0.7,1.8
				s1.1,0.7,1.8,0.7c0.7,0,1.4-0.3,2-1l0.9,1C355.9,124.1,354.8,124.5,353.6,124.5z"/>
			<path class="st2" d="M364.2,124.4h-1.4v-1c-0.6,0.7-1.5,1.1-2.5,1.1c-0.8,0-1.4-0.2-1.9-0.7c-0.5-0.4-0.8-1-0.8-1.8
				c0-0.7,0.3-1.3,0.8-1.7c0.5-0.4,1.3-0.6,2.2-0.6h2.1v-0.3c0-1-0.6-1.5-1.7-1.5c-0.7,0-1.4,0.3-2.2,0.8l-0.7-1
				c0.9-0.7,2-1.1,3.1-1.1c0.9,0,1.6,0.2,2.2,0.7c0.6,0.4,0.8,1.2,0.8,2.1V124.4z M362.6,121.6V121h-1.8c-1.1,0-1.7,0.4-1.7,1.1
				c0,0.4,0.1,0.6,0.4,0.8c0.3,0.2,0.7,0.3,1.2,0.3s0.9-0.1,1.3-0.4C362.4,122.5,362.6,122.1,362.6,121.6z"/>
			<path class="st2" d="M368,118.2v3.8c0,0.4,0.1,0.6,0.3,0.9c0.2,0.2,0.5,0.3,0.8,0.3s0.7-0.2,1-0.5l0.7,1.1
				c-0.6,0.5-1.2,0.8-1.8,0.8c-0.7,0-1.3-0.2-1.7-0.7c-0.5-0.5-0.7-1.1-0.7-1.9v-3.8h-0.9v-1.3h0.9v-2.4h1.6v2.4h2v1.3H368z"/>
			<path class="st2" d="M371.7,115.4c-0.2-0.2-0.3-0.4-0.3-0.7c0-0.3,0.1-0.5,0.3-0.7c0.2-0.2,0.4-0.3,0.7-0.3
				c0.3,0,0.5,0.1,0.7,0.3c0.2,0.2,0.3,0.4,0.3,0.7c0,0.3-0.1,0.5-0.3,0.7c-0.2,0.2-0.4,0.3-0.7,0.3
				C372.2,115.7,371.9,115.6,371.7,115.4z M373.2,124.4h-1.6v-7.5h1.6V124.4z"/>
			<path class="st2" d="M381.5,123.4c-0.8,0.8-1.7,1.1-2.8,1.1c-1.1,0-2.1-0.4-2.8-1.1c-0.8-0.8-1.1-1.7-1.1-2.8
				c0-1.1,0.4-2,1.1-2.8c0.8-0.8,1.7-1.1,2.8-1.1c1.1,0,2.1,0.4,2.8,1.1c0.8,0.8,1.1,1.7,1.1,2.8
				C382.7,121.7,382.3,122.7,381.5,123.4z M377,122.4c0.4,0.5,1,0.7,1.7,0.7s1.3-0.2,1.7-0.7c0.4-0.5,0.7-1.1,0.7-1.8
				s-0.2-1.3-0.7-1.8c-0.4-0.5-1-0.7-1.7-0.7s-1.3,0.2-1.7,0.7c-0.4,0.5-0.7,1.1-0.7,1.8S376.5,122,377,122.4z"/>
			<path class="st2" d="M385.8,120.3v4.1h-1.6v-7.5h1.6v1.4c0.3-0.5,0.6-0.8,1.1-1.1c0.4-0.3,0.9-0.4,1.4-0.4c0.8,0,1.5,0.3,2.1,0.8
				c0.5,0.5,0.8,1.3,0.8,2.3v4.6h-1.6v-4.1c0-1.4-0.6-2.1-1.7-2.1c-0.5,0-1,0.2-1.4,0.5C386,119.1,385.8,119.6,385.8,120.3z"/>
			<path class="st2" d="M404.7,117.7c0,1.6-0.7,2.7-2.1,3.1l2.6,3.6h-2.1l-2.4-3.3h-2.2v3.3h-1.7v-9.9h3.7c1.5,0,2.6,0.3,3.2,0.8
				C404.4,115.8,404.7,116.6,404.7,117.7z M402.5,119.1c0.3-0.3,0.5-0.8,0.5-1.4c0-0.6-0.2-1.1-0.5-1.3c-0.3-0.2-1-0.4-1.9-0.4h-2.1
				v3.5h2.1C401.5,119.6,402.2,119.4,402.5,119.1z"/>
			<path class="st2" d="M413.6,121.4h-5.9c0,0.5,0.3,1,0.7,1.3c0.5,0.3,1,0.5,1.6,0.5c0.9,0,1.7-0.3,2.2-0.9l0.9,1
				c-0.8,0.8-1.9,1.3-3.2,1.3c-1.1,0-2-0.4-2.7-1.1c-0.7-0.7-1.1-1.6-1.1-2.8c0-1.2,0.4-2.1,1.1-2.8c0.8-0.7,1.6-1,2.7-1
				c1,0,1.9,0.3,2.6,0.9c0.7,0.6,1.1,1.5,1.1,2.6V121.4z M407.7,120.1h4.3c0-0.6-0.2-1.1-0.6-1.5c-0.4-0.3-0.9-0.5-1.5-0.5
				s-1.1,0.2-1.6,0.5C408,119,407.7,119.5,407.7,120.1z"/>
			<path class="st2" d="M420.5,122.2c0,0.7-0.3,1.3-0.8,1.7c-0.5,0.4-1.2,0.6-2,0.6c-0.5,0-1.1-0.1-1.7-0.3
				c-0.6-0.2-1.1-0.5-1.6-0.8l0.8-1.2c0.9,0.7,1.7,1,2.5,1c0.4,0,0.6-0.1,0.8-0.2c0.2-0.2,0.3-0.4,0.3-0.6c0-0.4-0.5-0.7-1.5-1
				c-0.1,0-0.1,0-0.2-0.1c-1.6-0.4-2.3-1.1-2.3-2.1c0-0.7,0.3-1.3,0.8-1.7c0.5-0.4,1.2-0.6,2.1-0.6s1.7,0.3,2.5,0.8l-0.6,1.2
				c-0.6-0.4-1.3-0.6-2-0.6c-0.4,0-0.7,0.1-0.9,0.2c-0.2,0.1-0.4,0.3-0.4,0.6c0,0.2,0.1,0.4,0.4,0.5c0.2,0.1,0.4,0.2,0.7,0.2
				c0.3,0.1,0.6,0.2,0.8,0.2c0.2,0.1,0.5,0.2,0.7,0.3c0.2,0.1,0.5,0.2,0.7,0.4C420.2,120.9,420.5,121.5,420.5,122.2z"/>
			<path class="st2" d="M429,121.4h-5.9c0,0.5,0.3,1,0.7,1.3c0.5,0.3,1,0.5,1.6,0.5c0.9,0,1.7-0.3,2.2-0.9l0.9,1
				c-0.8,0.8-1.9,1.3-3.2,1.3c-1.1,0-2-0.4-2.7-1.1c-0.7-0.7-1.1-1.6-1.1-2.8c0-1.2,0.4-2.1,1.1-2.8c0.8-0.7,1.6-1,2.7-1
				c1,0,1.9,0.3,2.6,0.9c0.7,0.6,1.1,1.5,1.1,2.6V121.4z M423.1,120.1h4.3c0-0.6-0.2-1.1-0.6-1.5c-0.4-0.3-0.9-0.5-1.5-0.5
				s-1.1,0.2-1.6,0.5C423.3,119,423.1,119.5,423.1,120.1z"/>
			<path class="st2" d="M436.5,124.4h-1.4v-1c-0.6,0.7-1.5,1.1-2.5,1.1c-0.8,0-1.4-0.2-1.9-0.7c-0.5-0.4-0.8-1-0.8-1.8
				c0-0.7,0.3-1.3,0.8-1.7c0.5-0.4,1.3-0.6,2.2-0.6h2.1v-0.3c0-1-0.6-1.5-1.7-1.5c-0.7,0-1.4,0.3-2.2,0.8l-0.7-1
				c0.9-0.7,2-1.1,3.1-1.1c0.9,0,1.6,0.2,2.2,0.7s0.8,1.2,0.8,2.1V124.4z M434.9,121.6V121h-1.8c-1.1,0-1.7,0.4-1.7,1.1
				c0,0.4,0.1,0.6,0.4,0.8c0.3,0.2,0.7,0.3,1.2,0.3c0.5,0,0.9-0.1,1.3-0.4C434.8,122.5,434.9,122.1,434.9,121.6z"/>
			<path class="st2" d="M442.4,118.4c-0.8,0-1.4,0.3-1.8,0.8c-0.4,0.5-0.6,1.2-0.6,2.1v3.2h-1.6v-7.5h1.6v1.5c0.3-0.5,0.6-0.9,1-1.2
				c0.4-0.3,0.9-0.5,1.4-0.5L442.4,118.4C442.5,118.4,442.4,118.4,442.4,118.4z"/>
			<path class="st2" d="M447.1,124.5c-1,0-1.9-0.4-2.7-1.1c-0.8-0.7-1.1-1.6-1.1-2.8s0.4-2.1,1.2-2.8c0.8-0.7,1.7-1.1,2.9-1.1
				c1.1,0,2.1,0.4,2.9,1.2l-0.9,1.1c-0.7-0.6-1.3-0.9-2-0.9c-0.7,0-1.2,0.2-1.7,0.7c-0.5,0.4-0.7,1-0.7,1.7c0,0.7,0.2,1.3,0.7,1.8
				s1.1,0.7,1.8,0.7c0.7,0,1.4-0.3,2-1l0.9,1C449.4,124.1,448.3,124.5,447.1,124.5z"/>
			<path class="st2" d="M453.2,120.3v4.1h-1.6v-10.5h1.6v4.3c0.2-0.5,0.6-0.8,1-1.1s1-0.4,1.5-0.4c0.8,0,1.5,0.3,2.1,0.8
				c0.5,0.5,0.8,1.3,0.8,2.3v4.6H457v-4.1c0-1.4-0.6-2.1-1.7-2.1c-0.5,0-1,0.2-1.4,0.5C453.4,119.1,453.2,119.6,453.2,120.3z"/>
			<path class="st2" d="M488.1,122.2c0.5,0.5,1.1,0.8,1.8,0.8s1.4-0.3,1.8-0.8c0.5-0.5,0.7-1.2,0.7-2.2v-5.5h1.7v5.6
				c0,1.4-0.4,2.5-1.2,3.3c-0.8,0.8-1.8,1.2-3,1.2c-1.2,0-2.2-0.4-3-1.2c-0.8-0.8-1.2-1.9-1.2-3.3v-5.6h1.7v5.5
				C487.4,120.9,487.6,121.6,488.1,122.2z"/>
			<path class="st2" d="M499.5,121.6l2.2-7.1h1.5l2.2,7.1l2.5-7.1h1.8l-3.5,9.9h-1.7l-2.1-6.8h-0.1l-2.1,6.8h-1.7l-3.5-9.9h1.8
				L499.5,121.6z"/>
			<path class="st2" d="M510.4,120.9v-1.5h4.7v1.5H510.4z"/>
			<path class="st2" d="M518.9,124.4h-1.7v-9.9h2.6l3,6.2l3-6.2h2.6v9.9h-1.7v-7.7l-3.5,6.9h-0.9l-3.4-6.9V124.4z"/>
			<path class="st2" d="M536.7,124.4h-1.4v-1c-0.6,0.7-1.5,1.1-2.5,1.1c-0.8,0-1.4-0.2-1.9-0.7c-0.5-0.4-0.8-1-0.8-1.8
				c0-0.7,0.3-1.3,0.8-1.7c0.5-0.4,1.3-0.6,2.2-0.6h2.1v-0.3c0-1-0.6-1.5-1.7-1.5c-0.7,0-1.4,0.3-2.2,0.8l-0.7-1
				c0.9-0.7,2-1.1,3.1-1.1c0.9,0,1.6,0.2,2.2,0.7s0.8,1.2,0.8,2.1V124.4z M535.1,121.6V121h-1.8c-1.1,0-1.7,0.4-1.7,1.1
				c0,0.4,0.1,0.6,0.4,0.8c0.3,0.2,0.7,0.3,1.2,0.3s0.9-0.1,1.3-0.4C534.9,122.5,535.1,122.1,535.1,121.6z"/>
			<path class="st2" d="M539.2,123.5c-0.7-0.7-1.1-1.7-1.1-2.8c0-1.2,0.4-2.1,1.1-2.8c0.7-0.7,1.6-1,2.6-1s1.8,0.4,2.4,1.3v-4.1h1.6
				v10.5h-1.6v-1.1c-0.6,0.8-1.4,1.2-2.6,1.2C540.7,124.5,539.9,124.2,539.2,123.5z M539.7,120.7c0,0.7,0.2,1.3,0.7,1.8
				c0.5,0.5,1,0.7,1.6,0.7c0.6,0,1.2-0.2,1.6-0.7c0.4-0.5,0.7-1,0.7-1.8c0-0.7-0.2-1.3-0.7-1.8c-0.4-0.5-1-0.7-1.6-0.7
				c-0.6,0-1.2,0.2-1.6,0.7C539.9,119.4,539.7,120,539.7,120.7z"/>
			<path class="st2" d="M547.9,115.4c-0.2-0.2-0.3-0.4-0.3-0.7c0-0.3,0.1-0.5,0.3-0.7c0.2-0.2,0.4-0.3,0.7-0.3
				c0.3,0,0.5,0.1,0.7,0.3c0.2,0.2,0.3,0.4,0.3,0.7c0,0.3-0.1,0.5-0.3,0.7c-0.2,0.2-0.4,0.3-0.7,0.3
				C548.4,115.7,548.1,115.6,547.9,115.4z M549.4,124.4h-1.6v-7.5h1.6V124.4z"/>
			<path class="st2" d="M556.8,122.2c0,0.7-0.3,1.3-0.8,1.7c-0.5,0.4-1.2,0.6-2,0.6c-0.5,0-1.1-0.1-1.7-0.3
				c-0.6-0.2-1.1-0.5-1.6-0.8l0.8-1.2c0.9,0.7,1.7,1,2.5,1c0.4,0,0.6-0.1,0.8-0.2c0.2-0.2,0.3-0.4,0.3-0.6c0-0.4-0.5-0.7-1.5-1
				c-0.1,0-0.1,0-0.2-0.1c-1.6-0.4-2.3-1.1-2.3-2.1c0-0.7,0.3-1.3,0.8-1.7c0.5-0.4,1.2-0.6,2.1-0.6s1.7,0.3,2.5,0.8l-0.6,1.2
				c-0.6-0.4-1.3-0.6-2-0.6c-0.4,0-0.7,0.1-0.9,0.2c-0.2,0.1-0.4,0.3-0.4,0.6c0,0.2,0.1,0.4,0.4,0.5c0.2,0.1,0.4,0.2,0.7,0.2
				c0.3,0.1,0.6,0.2,0.8,0.2c0.2,0.1,0.5,0.2,0.7,0.3c0.2,0.1,0.5,0.2,0.7,0.4C556.5,120.9,556.8,121.5,556.8,122.2z"/>
			<path class="st2" d="M564.6,123.4c-0.8,0.8-1.7,1.1-2.8,1.1c-1.1,0-2.1-0.4-2.8-1.1c-0.8-0.8-1.1-1.7-1.1-2.8
				c0-1.1,0.4-2,1.1-2.8c0.8-0.8,1.7-1.1,2.8-1.1c1.1,0,2.1,0.4,2.8,1.1c0.8,0.8,1.1,1.7,1.1,2.8
				C565.7,121.7,565.3,122.7,564.6,123.4z M560.1,122.4c0.4,0.5,1,0.7,1.7,0.7s1.3-0.2,1.7-0.7c0.4-0.5,0.7-1.1,0.7-1.8
				s-0.2-1.3-0.7-1.8c-0.4-0.5-1-0.7-1.7-0.7s-1.3,0.2-1.7,0.7c-0.4,0.5-0.7,1.1-0.7,1.8S559.6,122,560.1,122.4z"/>
			<path class="st2" d="M568.8,120.3v4.1h-1.6v-7.5h1.6v1.4c0.3-0.5,0.6-0.8,1.1-1.1s0.9-0.4,1.4-0.4c0.8,0,1.5,0.3,2.1,0.8
				c0.5,0.5,0.8,1.3,0.8,2.3v4.6h-1.6v-4.1c0-1.4-0.6-2.1-1.7-2.1c-0.5,0-1,0.2-1.4,0.5C569,119.1,568.8,119.6,568.8,120.3z"/>
			<path class="st2" d="M582.9,115.8c-0.5,0-0.9,0.1-1.2,0.3c-0.3,0.2-0.5,0.5-0.5,0.9c0,0.4,0.2,0.7,0.5,0.9c0.3,0.2,1,0.4,2,0.7
				c1,0.2,1.8,0.6,2.3,1c0.5,0.4,0.8,1.1,0.8,2s-0.3,1.6-1,2.1c-0.7,0.5-1.5,0.8-2.6,0.8c-1.5,0-2.9-0.5-4.1-1.6l1-1.3
				c1,0.9,2,1.3,3.1,1.3c0.5,0,1-0.1,1.3-0.3s0.5-0.5,0.5-0.9c0-0.4-0.1-0.7-0.4-0.9c-0.3-0.2-0.8-0.4-1.5-0.6
				c-0.7-0.2-1.3-0.3-1.7-0.5c-0.4-0.1-0.7-0.3-1-0.6c-0.6-0.4-0.9-1.1-0.9-2c0-0.9,0.3-1.6,1-2.1c0.7-0.5,1.5-0.7,2.5-0.7
				c0.6,0,1.3,0.1,1.9,0.3c0.6,0.2,1.2,0.5,1.6,0.9l-0.9,1.3c-0.3-0.3-0.7-0.5-1.2-0.7C583.9,115.9,583.4,115.8,582.9,115.8z"/>
			<path class="st2" d="M591.6,124.5c-1,0-1.9-0.4-2.7-1.1c-0.8-0.7-1.1-1.6-1.1-2.8s0.4-2.1,1.2-2.8c0.8-0.7,1.7-1.1,2.9-1.1
				c1.1,0,2.1,0.4,2.9,1.2l-0.9,1.1c-0.7-0.6-1.3-0.9-2-0.9s-1.2,0.2-1.7,0.7c-0.5,0.4-0.7,1-0.7,1.7c0,0.7,0.2,1.3,0.7,1.8
				c0.5,0.5,1.1,0.7,1.8,0.7c0.7,0,1.4-0.3,2-1l0.9,1C593.9,124.1,592.8,124.5,591.6,124.5z"/>
			<path class="st2" d="M597.8,120.3v4.1h-1.6v-10.5h1.6v4.3c0.2-0.5,0.6-0.8,1-1.1s1-0.4,1.5-0.4c0.8,0,1.5,0.3,2.1,0.8
				c0.5,0.5,0.8,1.3,0.8,2.3v4.6h-1.6v-4.1c0-1.4-0.6-2.1-1.7-2.1c-0.5,0-1,0.2-1.4,0.5C598,119.1,597.8,119.6,597.8,120.3z"/>
			<path class="st2" d="M611.3,123.4c-0.8,0.8-1.7,1.1-2.8,1.1s-2.1-0.4-2.8-1.1c-0.8-0.8-1.1-1.7-1.1-2.8c0-1.1,0.4-2,1.1-2.8
				c0.8-0.8,1.7-1.1,2.8-1.1s2.1,0.4,2.8,1.1c0.8,0.8,1.1,1.7,1.1,2.8C612.5,121.7,612.1,122.7,611.3,123.4z M606.8,122.4
				c0.4,0.5,1,0.7,1.7,0.7s1.3-0.2,1.7-0.7c0.4-0.5,0.7-1.1,0.7-1.8s-0.2-1.3-0.7-1.8c-0.4-0.5-1-0.7-1.7-0.7s-1.3,0.2-1.7,0.7
				c-0.4,0.5-0.7,1.1-0.7,1.8S606.3,122,606.8,122.4z"/>
			<path class="st2" d="M620.3,123.4c-0.8,0.8-1.7,1.1-2.8,1.1c-1.1,0-2.1-0.4-2.8-1.1c-0.8-0.8-1.1-1.7-1.1-2.8
				c0-1.1,0.4-2,1.1-2.8c0.8-0.8,1.7-1.1,2.8-1.1c1.1,0,2.1,0.4,2.8,1.1c0.8,0.8,1.1,1.7,1.1,2.8C621.4,121.7,621,122.7,620.3,123.4
				z M615.7,122.4c0.4,0.5,1,0.7,1.7,0.7s1.3-0.2,1.7-0.7c0.4-0.5,0.7-1.1,0.7-1.8s-0.2-1.3-0.7-1.8c-0.4-0.5-1-0.7-1.7-0.7
				s-1.3,0.2-1.7,0.7c-0.4,0.5-0.7,1.1-0.7,1.8S615.3,122,615.7,122.4z"/>
			<path class="st2" d="M624.5,124.4h-1.6v-10.5h1.6V124.4z"/>
			<path class="st2" d="M636.4,123.4c-0.8,0.8-1.7,1.1-2.8,1.1s-2.1-0.4-2.8-1.1c-0.8-0.8-1.1-1.7-1.1-2.8c0-1.1,0.4-2,1.1-2.8
				c0.8-0.8,1.7-1.1,2.8-1.1s2.1,0.4,2.8,1.1c0.8,0.8,1.1,1.7,1.1,2.8C637.5,121.7,637.1,122.7,636.4,123.4z M631.9,122.4
				c0.4,0.5,1,0.7,1.7,0.7s1.3-0.2,1.7-0.7c0.4-0.5,0.7-1.1,0.7-1.8s-0.2-1.3-0.7-1.8c-0.4-0.5-1-0.7-1.7-0.7s-1.3,0.2-1.7,0.7
				c-0.4,0.5-0.7,1.1-0.7,1.8S631.4,122,631.9,122.4z"/>
			<path class="st2" d="M640.9,116.3v0.6h2v1.3h-2v6.3h-1.6v-6.3h-0.9v-1.3h0.9v-0.6c0-0.8,0.2-1.4,0.7-1.9c0.5-0.5,1.1-0.7,1.7-0.7
				c0.7,0,1.3,0.3,1.8,0.8l-0.7,1.1c-0.3-0.3-0.6-0.5-1-0.5c-0.3,0-0.6,0.1-0.8,0.3C641,115.6,640.9,115.9,640.9,116.3z"/>
			<path class="st2" d="M654.9,114.5v1.6h-5.3v2.6h4.7v1.5h-4.7v2.7h5.4v1.6h-7.1v-9.9H654.9z"/>
			<path class="st2" d="M657.2,123.5c-0.7-0.7-1.1-1.7-1.1-2.8c0-1.2,0.4-2.1,1.1-2.8c0.7-0.7,1.6-1,2.6-1c1,0,1.8,0.4,2.4,1.3v-4.1
				h1.6v10.5h-1.6v-1.1c-0.6,0.8-1.4,1.2-2.6,1.2C658.8,124.5,657.9,124.2,657.2,123.5z M657.8,120.7c0,0.7,0.2,1.3,0.7,1.8
				c0.5,0.5,1,0.7,1.6,0.7c0.6,0,1.2-0.2,1.6-0.7c0.4-0.5,0.7-1,0.7-1.8c0-0.7-0.2-1.3-0.7-1.8c-0.4-0.5-1-0.7-1.6-0.7
				c-0.6,0-1.2,0.2-1.6,0.7C658,119.4,657.8,120,657.8,120.7z"/>
			<path class="st2" d="M671.1,121v-4.1h1.6v7.5h-1.6v-1.4c-0.3,0.5-0.6,0.8-1.1,1.1s-0.9,0.4-1.5,0.4c-0.8,0-1.5-0.3-2.1-0.8
				c-0.5-0.5-0.8-1.3-0.8-2.3v-4.6h1.6v4.1c0,1.4,0.6,2.1,1.7,2.1c0.5,0,1-0.2,1.4-0.5C670.9,122.2,671.1,121.7,671.1,121z"/>
			<path class="st2" d="M678.1,124.5c-1,0-1.9-0.4-2.7-1.1c-0.8-0.7-1.1-1.6-1.1-2.8s0.4-2.1,1.2-2.8c0.8-0.7,1.7-1.1,2.9-1.1
				c1.1,0,2.1,0.4,2.9,1.2l-0.9,1.1c-0.7-0.6-1.3-0.9-2-0.9c-0.7,0-1.2,0.2-1.7,0.7c-0.5,0.4-0.7,1-0.7,1.7c0,0.7,0.2,1.3,0.7,1.8
				c0.5,0.5,1.1,0.7,1.8,0.7c0.7,0,1.4-0.3,2-1l0.9,1C680.3,124.1,679.3,124.5,678.1,124.5z"/>
			<path class="st2" d="M688.6,124.4h-1.4v-1c-0.6,0.7-1.5,1.1-2.5,1.1c-0.8,0-1.4-0.2-1.9-0.7c-0.5-0.4-0.8-1-0.8-1.8
				c0-0.7,0.3-1.3,0.8-1.7c0.5-0.4,1.3-0.6,2.2-0.6h2.1v-0.3c0-1-0.6-1.5-1.7-1.5c-0.7,0-1.4,0.3-2.2,0.8l-0.7-1
				c0.9-0.7,2-1.1,3.1-1.1c0.9,0,1.6,0.2,2.2,0.7s0.8,1.2,0.8,2.1V124.4z M687.1,121.6V121h-1.8c-1.1,0-1.7,0.4-1.7,1.1
				c0,0.4,0.1,0.6,0.4,0.8c0.3,0.2,0.7,0.3,1.2,0.3s0.9-0.1,1.3-0.4C686.9,122.5,687.1,122.1,687.1,121.6z"/>
			<path class="st2" d="M692.4,118.2v3.8c0,0.4,0.1,0.6,0.3,0.9c0.2,0.2,0.5,0.3,0.8,0.3c0.3,0,0.7-0.2,1-0.5l0.7,1.1
				c-0.6,0.5-1.2,0.8-1.8,0.8s-1.3-0.2-1.7-0.7c-0.5-0.5-0.7-1.1-0.7-1.9v-3.8h-0.9v-1.3h0.9v-2.4h1.6v2.4h2v1.3H692.4z"/>
			<path class="st2" d="M696.2,115.4c-0.2-0.2-0.3-0.4-0.3-0.7c0-0.3,0.1-0.5,0.3-0.7c0.2-0.2,0.4-0.3,0.7-0.3
				c0.3,0,0.5,0.1,0.7,0.3c0.2,0.2,0.3,0.4,0.3,0.7c0,0.3-0.1,0.5-0.3,0.7c-0.2,0.2-0.4,0.3-0.7,0.3
				C696.6,115.7,696.4,115.6,696.2,115.4z M697.7,124.4h-1.6v-7.5h1.6V124.4z"/>
			<path class="st2" d="M706,123.4c-0.8,0.8-1.7,1.1-2.8,1.1c-1.1,0-2.1-0.4-2.8-1.1c-0.8-0.8-1.1-1.7-1.1-2.8c0-1.1,0.4-2,1.1-2.8
				c0.8-0.8,1.7-1.1,2.8-1.1c1.1,0,2.1,0.4,2.8,1.1c0.8,0.8,1.1,1.7,1.1,2.8C707.1,121.7,706.8,122.7,706,123.4z M701.5,122.4
				c0.4,0.5,1,0.7,1.7,0.7s1.3-0.2,1.7-0.7c0.4-0.5,0.7-1.1,0.7-1.8s-0.2-1.3-0.7-1.8c-0.4-0.5-1-0.7-1.7-0.7s-1.3,0.2-1.7,0.7
				c-0.4,0.5-0.7,1.1-0.7,1.8S701,122,701.5,122.4z"/>
			<path class="st2" d="M710.2,120.3v4.1h-1.6v-7.5h1.6v1.4c0.3-0.5,0.6-0.8,1.1-1.1s0.9-0.4,1.4-0.4c0.8,0,1.5,0.3,2.1,0.8
				c0.5,0.5,0.8,1.3,0.8,2.3v4.6H714v-4.1c0-1.4-0.6-2.1-1.7-2.1c-0.5,0-1,0.2-1.4,0.5C710.4,119.1,710.2,119.6,710.2,120.3z"/>
		</g>
		<circle class="st3" cx="472.2" cy="119.5" r="2.2"/>
		<rect x="174.8" y="95.3" class="st3" width="540.7" height="0.5"/>
	</g>
</g>
</svg>
