<?xml version="1.0" encoding="utf-8"?>
<!-- Generator: Adobe Illustrator 23.0.0, SVG Export Plug-In . SVG Version: 6.00 Build 0)  -->
<svg version="1.1" id="Layer_1" xmlns="http://www.w3.org/2000/svg" xmlns:xlink="http://www.w3.org/1999/xlink" x="0px" y="0px"
	 viewBox="0 0 715.57 120.96" style="enable-background:new 0 0 715.57 120.96;" xml:space="preserve">
<style type="text/css">
	.st0{fill:#FFFFFF;}
	.st1{fill:#8EB849;}
</style>
<g>
	<path class="st0" d="M118.93,11.51c0.86-1.23,0.71-2.9-0.35-3.96l-4.85-4.85c-1.27-1.27-3.34-1.27-4.61,0L76.82,35.01L76.81,35
		l-21.3,21.3c-1.27,1.27-1.27,3.34,0,4.61l6.19,6.19c1.27,1.27,3.34,1.27,4.61,0l13.72-13.72c0.92-0.92,2.5-0.5,2.85,0.76
		c3.04,10.87-1.91,23.5-14.88,28.6c-4.89,1.92-10.43,1.92-15.31-0.01C35.28,75.87,32.32,55.4,43.81,43.9
		c5.35-5.35,12.64-7.56,19.6-6.64c2.05,0.27,3.88-1.26,3.81-3.33l-0.45-12.41c-0.06-1.75-1.5-3.14-3.26-3.14l-6.79,0
		c-1.58,0-2.93,1.13-3.21,2.69l-0.26,1.46c-0.43,2.42-2.07,4.46-4.35,5.39l-3.12,1.28c-2.5,1.03-5.36,0.72-7.58-0.83l-0.87-0.61
		c-1.3-0.9-3.05-0.75-4.17,0.37l-5.12,5.12c-1.12,1.12-1.27,2.88-0.37,4.17l0.61,0.88c1.55,2.22,1.86,5.07,0.83,7.57L28,48.62
		c-1.04,2.52-3.29,4.33-5.97,4.81l-1.04,0.19c-1.56,0.28-2.69,1.63-2.69,3.21v7.25c0,1.58,1.13,2.93,2.69,3.21l1.04,0.19
		c2.68,0.48,4.93,2.29,5.97,4.81l1.28,3.11c0.93,2.26,0.65,4.85-0.75,6.86l-0.85,1.22c-0.9,1.3-0.75,3.05,0.37,4.17l5.12,5.12
		c1.12,1.12,2.88,1.27,4.17,0.37l0.88-0.62c2.22-1.55,5.07-1.86,7.57-0.83l2.73,1.13c2.52,1.04,4.33,3.29,4.81,5.97l0.19,1.04
		c0.28,1.56,1.63,2.69,3.21,2.69l7.25,0c1.58,0,2.93-1.13,3.21-2.69l0.18-1.02c0.48-2.69,2.3-4.95,4.82-5.99l2.73-1.13
		c2.49-1.03,5.34-0.72,7.55,0.82l0.9,0.63c1.3,0.9,3.05,0.75,4.17-0.37l5.12-5.12c1.12-1.12,1.27-2.88,0.37-4.17l-0.62-0.89
		c-1.54-2.21-1.85-5.06-0.82-7.56l1.13-2.73c1.04-2.52,3.3-4.34,5.99-4.82l1.02-0.18c1.56-0.28,2.69-1.63,2.69-3.21l0-7.25
		c0-1.58-1.13-2.93-2.69-3.21l-1.46-0.26c-2.42-0.43-4.45-2.06-5.39-4.33l-1.45-3.5c-0.9-2.23-2.15-4.37-0.68-5.84L118.93,11.51z"/>
	<path class="st1" d="M103.54,35.5c-0.69,0.69-0.82,1.73-0.37,2.59c9.66,18.5,6.61,41.96-9.29,57.25
		c-7.69,7.39-17.42,11.68-27.49,12.91c-0.77,0.21-1.57,0.35-2.4,0.35h-2.14c-0.86,0.03-1.72,0.02-2.58,0h-2.52
		c-0.85,0-1.66-0.15-2.45-0.36C44.55,107.04,35.13,103,27.55,96C7.31,77.28,6.84,45.56,26.15,26.24
		c15.41-15.41,38.68-18.17,56.98-8.4c0.86,0.46,1.91,0.33,2.61-0.36l5.64-5.64c1.02-1.02,0.84-2.77-0.41-3.5
		C67.26-5.59,36.06-2.09,16.22,19.02c-21.35,22.72-21.67,59.03-0.71,82.1c23.38,25.72,63.35,26.44,87.65,2.14
		c19.76-19.76,22.9-49.87,9.56-73c-0.73-1.26-2.49-1.45-3.52-0.42L103.54,35.5z"/>
</g>
<g>
	<g>
		<path class="st0" d="M172.41,60.32h10.21v16.13c-4.51,5.03-10.76,7.55-18.74,7.55c-6.68,0-12.29-2.21-16.82-6.64
			c-4.53-4.42-6.8-10.01-6.8-16.75c0-6.74,2.31-12.37,6.93-16.88s10.19-6.77,16.72-6.77c6.53,0,12.2,2.15,17.01,6.44l-5.27,7.61
			c-2.04-1.78-3.91-3-5.63-3.68c-1.71-0.67-3.57-1.01-5.56-1.01c-3.86,0-7.11,1.31-9.76,3.94c-2.65,2.63-3.97,6.08-3.97,10.38
			s1.27,7.73,3.81,10.31c2.54,2.58,5.56,3.87,9.08,3.87s6.44-0.67,8.78-2.02V60.32z"/>
		<path class="st0" d="M228.36,38v9.04h-22.64v9.37h20.36v8.65h-20.36v9.43h23.36v8.98h-33.5V38H228.36z"/>
		<path class="st0" d="M274.42,83.48l-4.23-9.82h-19.06l-4.23,9.82h-10.8L255.75,38h9.82l19.65,45.47H274.42z M260.7,51.53
			l-5.73,13.21h11.39L260.7,51.53z"/>
		<path class="st0" d="M331.28,53.1c0,7.29-2.88,11.99-8.65,14.12l11.51,16.26h-12.49l-10.08-14.51h-7.03v14.51h-10.15V38h17.24
			c7.07,0,12.11,1.19,15.13,3.58C329.77,43.97,331.28,47.8,331.28,53.1z M319.05,58.49c1.26-1.13,1.89-2.92,1.89-5.37
			c0-2.45-0.65-4.13-1.95-5.04s-3.58-1.37-6.83-1.37h-7.61v13.47h7.42C315.43,60.19,317.79,59.62,319.05,58.49z"/>
		<path class="st1" d="M345.59,83.48V38h10.15v36.43h19.39v9.04H345.59z"/>
		<path class="st1" d="M419.24,38v9.04H396.6v9.37h20.36v8.65H396.6v9.43h23.36v8.98h-33.5V38H419.24z"/>
		<path class="st1" d="M465.3,83.48l-4.23-9.82h-19.06l-4.23,9.82h-10.8L446.63,38h9.82l19.65,45.47H465.3z M451.57,51.53
			l-5.73,13.21h11.39L451.57,51.53z"/>
		<path class="st1" d="M522.16,53.1c0,7.29-2.88,11.99-8.65,14.12l11.51,16.26h-12.49l-10.08-14.51h-7.03v14.51h-10.15V38h17.24
			c7.07,0,12.11,1.19,15.13,3.58C520.65,43.97,522.16,47.8,522.16,53.1z M509.93,58.49c1.26-1.13,1.89-2.92,1.89-5.37
			c0-2.45-0.65-4.13-1.95-5.04c-1.3-0.91-3.58-1.37-6.83-1.37h-7.61v13.47h7.42C506.31,60.19,508.67,59.62,509.93,58.49z"/>
		<path class="st1" d="M568.28,38h10.15v45.47h-10.15l-21.66-28.49v28.49h-10.15V38h9.5l22.31,29.28V38z"/>
		<path class="st1" d="M593.53,38h10.15v45.47h-10.15V38z"/>
		<path class="st1" d="M650.58,38h10.15v45.47h-10.15l-21.66-28.49v28.49h-10.15V38h9.5l22.31,29.28V38z"/>
		<path class="st1" d="M705.36,60.32h10.21v16.13c-4.51,5.03-10.76,7.55-18.74,7.55c-6.68,0-12.29-2.21-16.82-6.64
			c-4.53-4.42-6.8-10.01-6.8-16.75c0-6.74,2.31-12.37,6.93-16.88s10.19-6.77,16.72-6.77c6.53,0,12.2,2.15,17.01,6.44l-5.27,7.61
			c-2.04-1.78-3.91-3-5.63-3.68c-1.71-0.67-3.57-1.01-5.56-1.01c-3.86,0-7.11,1.31-9.76,3.94c-2.65,2.63-3.97,6.08-3.97,10.38
			s1.27,7.73,3.81,10.31c2.54,2.58,5.56,3.87,9.08,3.87s6.44-0.67,8.78-2.02V60.32z"/>
	</g>
</g>
</svg>
