<?xml version="1.0" encoding="utf-8"?>
<!-- Generator: Adobe Illustrator 21.0.0, SVG Export Plug-In . SVG Version: 6.00 Build 0)  -->
<svg version="1.1" id="Layer_1" xmlns="http://www.w3.org/2000/svg" xmlns:xlink="http://www.w3.org/1999/xlink" x="0px" y="0px"
	 viewBox="0 0 276.1 349.3" style="enable-background:new 0 0 276.1 349.3;" xml:space="preserve">
<style type="text/css">
	.st0{fill:#FFFFFF;}
	.st1{fill:#87B840;}
</style>
<g>
	<path class="st0" d="M271.8,26.3c2-2.8,1.6-6.6-0.8-9L259.9,6.2c-2.9-2.9-7.6-2.9-10.5,0L175.5,80l0,0l-48.7,48.7
		c-2.9,2.9-2.9,7.6,0,10.5l14.1,14.1c2.9,2.9,7.6,2.9,10.5,0l31.4-31.4c2.1-2.1,5.7-1.1,6.5,1.7c6.9,24.8-4.4,53.7-34,65.4
		c-11.2,4.4-23.8,4.4-35,0c-39.8-15.7-46.6-62.5-20.3-88.7c12.2-12.2,28.9-17.3,44.8-15.2c4.7,0.6,8.9-2.9,8.7-7.6l-1-28.4
		c-0.1-4-3.4-7.2-7.4-7.2l-15.5,0c-3.6,0-6.7,2.6-7.3,6.1l-0.6,3.3c-1,5.5-4.7,10.2-9.9,12.3l-7.1,2.9c-5.7,2.4-12.2,1.6-17.3-1.9
		l-2-1.4c-3-2.1-7-1.7-9.5,0.8L64.1,76c-2.6,2.6-2.9,6.6-0.8,9.5l1.4,2c3.5,5.1,4.2,11.6,1.9,17.3l-2.6,6.2
		c-2.4,5.8-7.5,9.9-13.6,11l-2.4,0.4c-3.6,0.6-6.1,3.7-6.1,7.3v16.6c0,3.6,2.6,6.7,6.1,7.3l2.4,0.4c6.1,1.1,11.3,5.2,13.7,11
		l2.9,7.1c2.1,5.2,1.5,11.1-1.7,15.7l-1.9,2.8c-2.1,3-1.7,7,0.8,9.5L75.8,212c2.6,2.6,6.6,2.9,9.5,0.8l2-1.4
		c5.1-3.5,11.6-4.2,17.3-1.9l6.2,2.6c5.8,2.4,9.9,7.5,11,13.7l0.4,2.4c0.6,3.6,3.7,6.1,7.3,6.1l16.6,0c3.6,0,6.7-2.6,7.3-6.1
		l0.4-2.3c1.1-6.1,5.2-11.3,11-13.7l6.2-2.6c5.7-2.4,12.2-1.7,17.3,1.9l2.1,1.4c3,2.1,7,1.7,9.5-0.8l11.7-11.7
		c2.6-2.6,2.9-6.6,0.8-9.5l-1.4-2c-3.5-5.1-4.2-11.6-1.9-17.3l2.6-6.2c2.4-5.8,7.5-9.9,13.7-11l2.3-0.4c3.6-0.6,6.1-3.7,6.1-7.3
		l0-16.6c0-3.6-2.6-6.7-6.1-7.3l-3.3-0.6c-5.5-1-10.2-4.7-12.3-9.9l-3.3-8c-2.1-5.1-4.9-10-1.6-13.3L271.8,26.3z"/>
	<path class="st1" d="M236.6,81.1c-1.6,1.6-1.9,3.9-0.9,5.9c22.1,42.3,15.1,95.9-21.2,130.8c-17.6,16.9-39.8,26.7-62.8,29.5
		c-1.8,0.5-3.6,0.8-5.5,0.8h-4.9c-2,0.1-3.9,0-5.9,0h-5.8c-1.9,0-3.8-0.3-5.6-0.8c-22.2-2.7-43.8-12-61.1-28
		C16.7,176.6,15.6,104.1,59.8,60C95,24.8,148.2,18.5,190,40.8c2,1.1,4.4,0.8,6-0.8l12.9-12.9c2.3-2.3,1.9-6.3-0.9-8
		C153.7-12.8,82.4-4.8,37.1,43.5c-48.8,51.9-49.5,134.9-1.6,187.6c53.4,58.8,144.8,60.4,200.3,4.9c45.2-45.2,52.3-114,21.8-166.8
		c-1.7-2.9-5.7-3.3-8-1L236.6,81.1z"/>
</g>
<g>
	<path class="st0" d="M35.2,324.4h10.7v16.9c-4.7,5.3-11.3,7.9-19.7,7.9c-7,0-12.9-2.3-17.7-7c-4.8-4.6-7.1-10.5-7.1-17.6
		c0-7.1,2.4-13,7.3-17.7c4.8-4.7,10.7-7.1,17.6-7.1c6.9,0,12.8,2.3,17.9,6.8l-5.5,8c-2.1-1.9-4.1-3.2-5.9-3.9
		c-1.8-0.7-3.7-1.1-5.8-1.1c-4.1,0-7.5,1.4-10.2,4.1c-2.8,2.8-4.2,6.4-4.2,10.9c0,4.5,1.3,8.1,4,10.8c2.7,2.7,5.8,4.1,9.5,4.1
		c3.7,0,6.8-0.7,9.2-2.1V324.4z"/>
	<path class="st0" d="M117.1,301v9.5H93.3v9.8h21.4v9.1H93.3v9.9h24.5v9.4H82.7V301H117.1z"/>
	<path class="st0" d="M188.7,348.7l-4.4-10.3h-20l-4.4,10.3h-11.3l20.6-47.7h10.3l20.6,47.7H188.7z M174.3,315.2l-6,13.9h12
		L174.3,315.2z"/>
	<path class="st0" d="M271.6,316.9c0,7.6-3,12.6-9.1,14.8l12.1,17.1h-13.1l-10.6-15.2h-7.4v15.2h-10.7V301H251
		c7.4,0,12.7,1.3,15.9,3.8C270,307.3,271.6,311.3,271.6,316.9z M258.8,322.5c1.3-1.2,2-3.1,2-5.6c0-2.6-0.7-4.3-2-5.3
		c-1.4-1-3.8-1.4-7.2-1.4h-8v14.1h7.8C255,324.3,257.4,323.7,258.8,322.5z"/>
</g>
</svg>
