<?xml version="1.0" encoding="utf-8"?>
<!-- Generator: Adobe Illustrator 21.0.0, SVG Export Plug-In . SVG Version: 6.00 Build 0)  -->
<svg version="1.1" id="Layer_1" xmlns="http://www.w3.org/2000/svg" xmlns:xlink="http://www.w3.org/1999/xlink" x="0px" y="0px"
	 viewBox="0 0 29.8 29.8" style="enable-background:new 0 0 29.8 29.8;" xml:space="preserve">
<style type="text/css">
	.st0{fill:#FFFFFF;}
	.st1{fill:#87B840;}
</style>
<g>
	<path class="st0" d="M29.3,2.8c0.2-0.3,0.2-0.7-0.1-1l-1.2-1.2c-0.3-0.3-0.8-0.3-1.1,0l-8,8l0,0l-5.3,5.3c-0.3,0.3-0.3,0.8,0,1.1
		l1.5,1.5c0.3,0.3,0.8,0.3,1.1,0l3.4-3.4c0.2-0.2,0.6-0.1,0.7,0.2c0.7,2.7-0.5,5.8-3.7,7.1c-1.2,0.5-2.6,0.5-3.8,0
		c-4.3-1.7-5-6.7-2.2-9.6c1.3-1.3,3.1-1.9,4.8-1.6c0.5,0.1,1-0.3,0.9-0.8l-0.1-3.1c0-0.4-0.4-0.8-0.8-0.8l-1.7,0
		c-0.4,0-0.7,0.3-0.8,0.7l-0.1,0.4c-0.1,0.6-0.5,1.1-1.1,1.3l-0.8,0.3C10.7,7.5,10,7.4,9.4,7L9.2,6.9c-0.3-0.2-0.8-0.2-1,0.1
		L6.9,8.2c-0.3,0.3-0.3,0.7-0.1,1L7,9.5c0.4,0.5,0.5,1.3,0.2,1.9L6.9,12c-0.3,0.6-0.8,1.1-1.5,1.2l-0.3,0c-0.4,0.1-0.7,0.4-0.7,0.8
		v1.8c0,0.4,0.3,0.7,0.7,0.8l0.3,0c0.7,0.1,1.2,0.6,1.5,1.2l0.3,0.8c0.2,0.6,0.2,1.2-0.2,1.7l-0.2,0.3c-0.2,0.3-0.2,0.8,0.1,1
		l1.3,1.3c0.3,0.3,0.7,0.3,1,0.1l0.2-0.2c0.5-0.4,1.3-0.5,1.9-0.2l0.7,0.3c0.6,0.3,1.1,0.8,1.2,1.5l0,0.3c0.1,0.4,0.4,0.7,0.8,0.7
		l1.8,0c0.4,0,0.7-0.3,0.8-0.7l0-0.3c0.1-0.7,0.6-1.2,1.2-1.5l0.7-0.3c0.6-0.3,1.3-0.2,1.9,0.2l0.2,0.2c0.3,0.2,0.8,0.2,1-0.1
		l1.3-1.3c0.3-0.3,0.3-0.7,0.1-1l-0.2-0.2c-0.4-0.5-0.5-1.2-0.2-1.9l0.3-0.7c0.3-0.6,0.8-1.1,1.5-1.2l0.3,0c0.4-0.1,0.7-0.4,0.7-0.8
		l0-1.8c0-0.4-0.3-0.7-0.7-0.8l-0.4-0.1c-0.6-0.1-1.1-0.5-1.3-1.1l-0.4-0.9c-0.2-0.5-0.5-1.1-0.2-1.4L29.3,2.8z"/>
	<path class="st1" d="M25.5,8.8c-0.2,0.2-0.2,0.4-0.1,0.6c2.4,4.6,1.6,10.4-2.3,14.1c-1.9,1.8-4.3,2.9-6.8,3.2
		c-0.2,0.1-0.4,0.1-0.6,0.1h-0.5c-0.2,0-0.4,0-0.6,0H14c-0.2,0-0.4,0-0.6-0.1c-2.4-0.3-4.7-1.3-6.6-3c-5-4.6-5.1-12.4-0.3-17.2
		C10.3,2.7,16,2,20.5,4.4c0.2,0.1,0.5,0.1,0.6-0.1l1.4-1.4c0.3-0.3,0.2-0.7-0.1-0.9C16.6-1.4,8.9-0.5,4,4.7
		c-5.3,5.6-5.3,14.6-0.2,20.3c5.8,6.3,15.6,6.5,21.6,0.5c4.9-4.9,5.6-12.3,2.4-18c-0.2-0.3-0.6-0.4-0.9-0.1L25.5,8.8z"/>
</g>
</svg>
